<?xml version="1.0" encoding="UTF-8"?>
<svg id="a" data-name="Layer 1" xmlns="http://www.w3.org/2000/svg" width="232.45" height="456.42" viewBox="0 0 232.45 456.42">
  <defs>
    <style>
      .b {
        fill: #fff;
      }
    </style>
  </defs>
  <path class="b" d="M230.56,301.08c-1.57-1.22-4.3-1-6.33-.87-3.46.23-6.91-.45-10.38-.49s-6.88-.13-10.33-.43-6.86-.59-10.28-1.15-7.12.19-10.49-.63-6.69-2.04-9.99-3.1-6.05-3.62-9.26-4.93-6.41-2.52-9.5-4.07c-3.45-1.73-7.66-2.71-10.55-5.23-3.05-2.66-5.51-6.79-6.39-10.63,3.36,1.75,7.67,3.12,11.03,4.87s6.06,4.78,9.42,6.53,6.58,3.78,9.94,5.53,7.47,2.07,10.83,3.82c3.73,1.94,7.84,5.08,11.77,3.55,3.93-1.53,4.91-9.09.69-9.51,2.56-3.38,5.48-5.64,9.26-7.72s7.75-3.38,12.03-3.79c1.72-.17,2.73-1.79,3.97-2.94,2.93-2.74,2.3-5.35.49-7.62-2.16-2.72-5.14-4.75-7.95-6.84s-5.66-4.11-8.88-5.5-6.59-2.38-10.02-3.03-6.99-1.8-10.46-1.68-6.39,1.07-9.74,2.03c1.05-2.74-2.74-3.78-5.79-3.97-3.05-.19-5.84.45-8.86.91-3.39.52-7.25.12-10.12-1.57s-5.52-4.72-6.96-7.66-1.47-7.04-.41-10.3c4.88-2.38,10.8,1.21,14.6,4.99,3.8,3.78,7.33,8.1,12.5,9.86,5.17,1.76,12.34-2.39,10.74-7.4,2.77,4.59,9.58,7,14.85,5.36,5.27-1.64,8.9-6.43,11.28-11.21.63-1.27.42-2.31.1-3.68-.45-1.89-.85-4.25-2.62-5.2-3.11-1.68-7.24-1.41-10.41-3s-5.65-4.56-8.86-6.05-6.9-1.89-10.16-3.28-6.21-3.48-9.51-4.77c-4.13-1.61-8.92-1.99-12.91-3.93s-7.16-5.54-10.3-8.69c-3.04-3.04-6.25-6.71-7.06-10.84s.34-9.84,3.17-13.31c2.82,1.96,5.57,5.32,8.39,7.28s6.43,2.79,9.25,4.76,4.76,5.19,7.58,7.15c3.4,2.37,7.84,4.53,11.95,3.68,4.11-.85,6.5-7.63,2.62-9.19,2.96-.51,5.56-1.19,8.53-1.7s5.95-.92,8.91-1.44c2.59-.45,4.62-1.14,5.76-3.92.7-1.71.64-2.93-.29-4.54-1.89-3.27-4.62-6.07-8.17-7.22-3.77-1.21-7.79-1.83-11.66-2.8s-8.07-.69-11.87-1.8-7.23-3.42-10.84-5.08c-3.48-1.6-6.57-3.86-9.54-6.33s-6.94-4.48-8.83-7.73-1.71-6.86-1.72-10.8c2.17,2.18,3.16,4.06,4.83,6.61s4.21,4.44,6.1,6.84c1.87,2.38,3.1,5.81,5.77,7.37s5.97.91,9.12.54c2.99-.35,5.33-1.65,6.8-4.14,1.59-2.71,3.24-5.57.98-7.83,2.96-2.17,4.89-4.54,7.55-7.04s5.33-5.11,7.66-7.93,4.63-5.78,6.58-8.87c1.15-1.83,1.52-4.32,1.09-6.41-.78-3.81-4.24-4.37-7.14-4.88-3.22-.57-6.6-.22-9.82-.79s-6.45-1.06-9.67-1.63-6.09-2.16-9.31-2.72c2.78-2.2,2.9-5.15,2.9-8.39,0-2.99-.26-6.13-1.83-9.14s-3.25-5.76-5.49-7.9c-2.29-2.2-4.69-4.52-7.08-6.78s-4.28-4.91-6.01-7.52c-1.84-2.77-4.31-6.19-4.4-9.56,2.64,2.02,6.59.06,6.91-3.16.31-3.22-.84-6.23-2.82-8.85-3.59-4.75-4.17-4.31-7.75-9.05s-4-4.44-7.59-9.19-3.39-4.9-6.98-9.65c-1.64-2.17-3.2-4.75-6.16-3.32-2.04.98-2.15,2.68-1.72,4.82.76,3.77-.45,7.78-.79,11.58s-.92,7.55-2.23,11.15-3.84,6.44-5.99,9.62-3.68,6.77-6.53,9.33-5.94,4.91-9.36,6.67c-2.32,1.19-5.67,2.12-7.53,4.06-2.29,2.4-2.3,5.1-.13,7.42,2.04,2.17,4.31,1.62,7.47.8,2.83-.73,6.66-1.79,9.31-1.13.82,3.25-.27,7.14-.85,10.41s-1.72,6.23-3.44,9.1-2.84,6.45-5.43,8.54c-2.56,2.06-6.37,2.19-9.59,3.18-4.17,1.28-9.04,1.74-12.41,4.68-1.57,1.37-1.32,3.81-1.24,5.84.12,3.12,1.73,4.55,4.07,5.56,3.08,1.33,6.22,2.77,9.5,3.54s6.7,1.26,10.06,1.46,6.61-.34,9.95-.73c-2.45,3.14-6.08,4.56-9.99,5.73s-7.8,1.95-11.64.75c-3.93-1.23-7.59-3.59-11.73-3.66-4.14-.07-9.24,3.65-6.98,6.96-4.89-.38-7.33.95-8.96,2.44-2.36,2.15-1.5,5.67.5,9.16,1.57,2.73,3.28,6.28,5.95,8.17,3.2,2.27,6.78,1.78,9.39.55-3.63,1.7-6.33,5.86-9.06,8.83-3.17,3.46-6.08,7.11-3.82,11.06,2.54,4.43,9.52,5.3,14.62,3.99,5.11-1.31,9.12-5.29,13.93-7.4,3.26-1.43,7.12-1.36,10.66-1.87s6.27-.62,9.82-.17c-3.11,1.52-5.17,3.28-8.28,4.79-3.11,1.52-5.98,3.51-9.09,5.03s-7.14,1.14-10.25,2.66-5.76,3.97-8.87,5.48-6.6,2.26-9.7,3.77-6.13,3.21-9.24,4.73-6.1,3.28-9.2,4.8c-1.9.93-1.77,3.12-1.34,5.12.5,2.32,1.86,2.66,3.95,3.02,3.19.54,6.21,2.08,9.4,2.62s6.6-.25,9.79.29c3.19.54,6.02,1.33,9.21,1.87-3.52-.39-6.92-.04-10.29.95s-6.29,3.04-9.36,4.86-5.27,4.56-8.01,6.71-6.58,3.23-9.09,5.44c-1.56,1.38-2.88,4.03-2.68,6.05.37,3.65,4.64,4.24,7.57,4.63,2.78.36,5.56,1.45,8.36,1.46s5.21-1.6,7.99-1.94c-5.08,1.7-8.13,7.22-7.98,12.43.09,3.34.72,7.22,3.35,9.4s5.63,2.01,9.01,1.73c-3.57.56-6.15,2.18-9.58,3.27s-7.29,1.39-10.54,2.96c-3.26,1.58-6.09,4.1-9.05,6.14s-5.87,4.31-8.48,6.79c-1.01.96-1.63,2.47-1.61,3.83.05,2.64,2.75,2.9,4.83,3.56,3.61,1.15,7.3,2.33,11.1,3.28,3.79.94,7.6,1.16,11.39,1.55s7.85,2.31,11.6,1.73,6.85-3.47,10.25-5.51c1.62-.97,3.76-1.36,5.68-1.43,2.96-.12,4.98,3.2,7.76,4.16,3.24,1.12,6.45-1,9.19-3.05,2.56-1.91,5.19-4.26,6.78-6.93,1.6-2.69,3.16-5.79,5.34-8.13,2.29-2.47,4.67-4.02,8.09-4.1-1.55,3.2-3.6,5.58-5.82,8.35s-4.91,4.84-7.62,7.17-4.69,5.43-7.72,7.33-6.75,2.29-9.97,3.8-6.22,3.35-9.55,4.51c-3.41,1.18-6.94,1.73-10.43,2.66s-6.65,3.05-10.18,3.82-7.11,1.21-10.65,1.91-6.89,2.26-10.42,2.98c-3.53.72-7.5-.5-11,.33-1.77.42-2.93,3.09-4.41,4.19-1.94,1.45-4.07,2.92-2.74,5.03.42.67,1.35,1.21,2.06,1.6,3.12,1.74,6.53,3.14,9.98,4.16s7.07,1.44,10.66,1.7,7.77-.56,11.32-1.07c-.52,3.52.6,6.92,3.04,9.35,2.24,2.23,4.86,5.03,8.24,5.84s7.23.72,10.37-.28c3.33-1.06,5.44-4.24,8.08-6.36s5.7-3.77,7.85-6.45,3.68-6.57,5.55-9.35c3.68,1.38,7.9,2.04,11.78,1.36s7.74-1.82,10.67-4.39c-1.68,2.88-4.43,4.92-6.6,7.49s-3.66,5.66-6.22,7.84-5.51,3.74-8.37,5.49-5.5,3.92-8.6,5.2c-3.09,1.27-6.42,1.94-9.69,2.71-3.17.74-6.43.88-9.67,1.26s-6.38,1.65-9.63,1.93-6.55-.06-9.77.38c-3.23.44-6.55.57-9.71,1.42-2.44.65-3.1,3.17-2.89,5.58.24,2.77,1.68,4.73,4.05,5.28,4.22.99,8.67,1.38,12.99,1.83s8.3.63,12.64.51c-.05,2.81-2.49,4.16-4.75,6.44-2.62,2.65-3.85,4.96-1.91,7.53.56.75.37,2.64,1.28,2.96,3.78,1.35,8.05,1.31,12.06,1.34,4,.04,8.2,0,12.04-1.14s7.37-3.46,10.67-5.68,6.28-5.06,8.62-8.29c.48-.66,5.42-2.34,7.53-3.14.23-.45.64-.31.92-.76,2.81-4.53,7.02-9.07,11.63-11.35-.01,4.21-.8,9.2-.82,13.41s.39,8.42.39,12.63c0,4.05-.78,8.09-.84,12.16s1.49,8.14,1.39,12.2-1.87,8.07-1.99,12.12-.19,8.12-.32,12.16c-.11,3.4-.81,6.69-1.36,10.1s.35,7.09-.34,10.41c-.63,3-6.38,9.89-.9,9.55,2.86.24,2.53,2.57,5.33,3.17,3.3.66,6.7.43,9.87.63s6.42-.75,9.64-1.35,7.39-.81,10.46-2.4c-2.82-3.41-5.45-7.4-6.64-11.49s-1.26-8.32-1.53-12.63-.53-8.64-.58-12.8c-.04-3.33-1.24-6.64-1.33-9.96s.39-6.67.27-10-.48-6.65-.57-9.98,1.03-6.68.98-10.01c-.05-4.38.16-8.75.16-13.13s-.02-8.44-.02-12.82c1.13.59,1.16.92,2.23,1.63-.05-.72-.34-1.25-.39-1.97.8,1.58,2.8,1.98,4.05,3.25,1.05.78,1.39,2.38,2.42,3.19.44.35.69.93,1.07,1.34,2.92,1.97,6.03,4.11,9.23,5.8s7.33,2.47,9.9,4.63c2.88,2.42,5.02,5.67,5.4,9.51.46,4.59-1.68,9.68,3.27,12.06,1.03.49,1.86,1.62,3.01,1.65,4.81.13,9.68-.6,13.84-3.13,3.65-2.22,6.32-5.96,3.2-8.83,3.87,2.55,9.44-.52,10.65-4.86,1.21-4.33-1.78-9.39-6.46-9.02,3.95-2.79,7.59,2.57,11.46,5.46,2.43,1.82,5.48,1.96,8.57,1.98,3.08.03,6.47.4,8.94-1.37,2.45-1.76,2.81-5.07,3.64-7.89s1.42-5.47.25-8.22c-1.27-2.99-3.03-5.92-5.71-7.89-3.02-2.22-6.26-4.33-9.75-5.48-3.43-1.13-7.27-1.4-10.98-1.92s-7.33-.48-11.02-.82-7.49.24-11.1-.3-6.98-2.73-10.44-3.87c-3.5-1.16-7.45-1.53-10.52-3.49s-5.49-5.05-8-7.69-5.7-5.09-7.48-8.27-2.49-7.91-3.36-11.46c5.03,2.35,7.57,8.48,10.2,13.2,2.63,4.72,6.5,8.93,11.77,10.7,5.28,1.78,13.25-1.14,12.13-6.38,4.29-.34,7.15,2.62,10.78,5.35,3.86,2.9,7.63,4.98,11.86.97.49-.46,1.02-.91,1.38-1.47,1.89-2.96,4.53-4.43,7.49-5.68s5.8-2.9,9.14-3.41,6.43-.9,9.59-1.55c3.26-.67,6.34-1.28,9.06-2.98,3.82-2.38,7.66-8.16,3.37-11.5Z"/>
</svg>