<?xml version="1.0" encoding="UTF-8"?>
<svg id="a" xmlns="http://www.w3.org/2000/svg" version="1.1" viewBox="0 0 120.7 120.7">
  <!-- Generator: Adobe Illustrator 29.5.1, SVG Export Plug-In . SVG Version: 2.1.0 Build 141)  -->
  <defs>
    <style>
      .st0, .st1 {
        fill: #00205b;
      }

      .st1 {
        fill-rule: evenodd;
      }

      .st2 {
        fill: none;
        stroke: #00205b;
        stroke-miterlimit: 10;
        stroke-width: 3px;
      }

      .st3 {
        fill: #fff;
      }
    </style>
  </defs>
  <circle class="st3" cx="60.4" cy="60.4" r="58.9"/>
  <g>
    <path class="st0" d="M30.9,75.9h0c0-1.3-.9-2.3-2.2-2.3s-2.2,1-2.2,2.3h0c0,1.3.9,2.3,2.2,2.3s2.2-1,2.2-2.3h0ZM24.8,75.9h0c0-2.1,1.6-3.8,3.9-3.8s3.9,1.7,3.9,3.8h0c0,2.1-1.6,3.8-3.9,3.8s-3.9-1.7-3.9-3.8h0Z"/>
    <polygon class="st0" points="34.2 72.2 39.8 72.2 39.8 73.7 35.8 73.7 35.8 75.2 39.3 75.2 39.3 76.7 35.8 76.7 35.8 79.5 34.2 79.5 34.2 72.2 34.2 72.2"/>
    <path class="st0" d="M49,76.5l-1-2.4-1,2.4h1.9ZM47.3,72.2h1.5l3.1,7.4h-1.7l-.7-1.6h-3.1l-.7,1.6h-1.6l3.1-7.4h0Z"/>
    <polygon class="st0" points="53.3 72.2 55 72.2 56.9 75.3 58.8 72.2 60.6 72.2 60.6 79.5 59 79.5 59 74.7 56.9 77.8 56.9 77.8 54.8 74.8 54.8 79.5 53.3 79.5 53.3 72.2 53.3 72.2"/>
    <polygon class="st0" points="62.3 72.2 67.9 72.2 67.9 73.6 64 73.6 64 75.1 67.4 75.1 67.4 76.5 64 76.5 64 78.1 67.9 78.1 67.9 79.5 62.3 79.5 62.3 72.2 62.3 72.2"/>
    <path class="st0" d="M72.8,75.7c.8,0,1.2-.4,1.2-1h0c0-.7-.5-1.1-1.3-1.1h-1.6v2.1h1.6ZM69.6,72.2h3.3c.9,0,1.7.3,2.1.7s.6,1,.6,1.7h0c0,1.2-.6,1.9-1.6,2.3l1.8,2.6h-1.9l-1.6-2.3h-1.3v2.3h-1.6v-7.3h0Z"/>
    <polygon class="st0" points="77.4 72.2 79 72.2 79 79.5 77.4 79.5 77.4 72.2 77.4 72.2"/>
    <path class="st0" d="M80.7,75.9h0c0-2.1,1.6-3.8,3.8-3.8s2.2.5,2.9,1.1l-1,1.2c-.6-.5-1.1-.8-1.9-.8-1.2,0-2.1,1-2.1,2.3h0c0,1.3.9,2.3,2.1,2.3s1.3-.3,1.9-.9l1,1c-.8.8-1.6,1.3-3,1.3-2.2,0-3.8-1.7-3.8-3.8h0s0,0,0,0Z"/>
    <path class="st0" d="M93.1,76.5l-1-2.4-1,2.4h1.9ZM91.4,72.2h1.5l3.1,7.4h-1.7l-.7-1.6h-3.1l-.7,1.6h-1.6l3.1-7.4h0Z"/>
    <path class="st0" d="M72.2,56.9l2.4-.7v-3h-15.7v3l2.4.7c1.7.5,1.8.7,1.8,2.1v4.1c-.9.2-2.5.2-3.6,0-5.7-.8-7.2-5-7.2-9.4s.8-4.7,2.7-6.5c1.3-1.3,3.4-2.5,6.5-2.4,1.4,0,2.9.7,3.5,1.1,1.6,1.1,1.9,2.4,2.3,3.9h4v-6.2s-4.1-2.8-11.1-2.8-16.5,2.3-16.5,13.2,5.6,11.9,15.4,12.4c6.7.3,11.3-1.6,11.3-1.6v-5.9c0-1.4,0-1.6,1.8-2.1"/>
    <path class="st0" d="M34,52.4c-.4.4-1.4.9-2.2,1.1-2.2.6-5,.3-5.1.3v-9.3c1.9,0,5.1-.3,7.2,1.2,1,.7,1.6,1.9,1.7,3.4,0,1.1-.4,2.2-1.5,3.2M33.4,41.5c-1.2-.1-4.6-.2-4.6-.2h-13.8v3l2.3.7c1.9.6,1.9.8,1.9,2.2v13.1c0,1.4,0,1.5-1.9,2.1l-2.3.7v3h15.8v-3l-2.3-.7c-1.9-.6-1.9-.7-1.9-2.1v-3.2h3.7c3.4,0,6.2-.3,8.7-1.7,2.4-1.3,3.7-3.8,3.7-6.4,0-4.2-3.3-7-9.3-7.6"/>
    <path class="st0" d="M83.8,57.6c1.6-3,3.8-7.3,4-7.7.2.4,2.2,4.6,3.7,7.7h-7.7ZM103.7,62.5c-1.4-.5-1.7-.8-2.1-1.7l-9.8-19.5h-4.1l-10.9,19.9c-.4.8-.8.9-1.7,1.2l-2.5.8v2.9h12.2v-3l-2.7-.7c-.6-.1-.6-.5-.4-.8,0,0,.3-.7.9-1.7h10.2c.5,1,.7,1.2.9,1.6.3.5-.2.8-.9,1l-2.4.7v2.9h15.6v-2.9s-2.1-.8-2.2-.8"/>
    <polygon class="st0" points="96 41.7 95.2 41.7 95.2 41.3 97.1 41.3 97.1 41.7 96.4 41.7 96.4 43.7 96 43.7 96 41.7 96 41.7"/>
    <polygon class="st0" points="97.6 41.3 98 41.3 98.8 42.5 99.5 41.3 99.9 41.3 99.9 43.7 99.5 43.7 99.5 42 98.8 43.1 98.7 43.1 98 42 98 43.7 97.6 43.7 97.6 41.3 97.6 41.3"/>
    <polygon class="st0" points="51.7 91.8 50.6 92 50.3 90.9 52.1 90.4 53 90.4 53 96.5 51.7 96.5 51.7 91.8 51.7 91.8"/>
    <path class="st0" d="M57.9,92.4h0c0-.6-.4-.9-1.1-.9s-1,.4-1,.9h0c0,.6.4.9,1,.9s1-.4,1-.9M54.6,95.9l.7-1c.4.3.8.5,1.3.5.7,0,1.1-.6,1.2-1.4-.3.2-.7.4-1.2.4-1.3,0-2.2-.7-2.2-1.9h0c0-1.2.9-2.1,2.3-2.1s1.3.2,1.7.7c.4.4.7,1.1.7,2.3h0c0,2-.9,3.3-2.6,3.3s-1.5-.3-2-.7"/>
    <polygon class="st0" points="61.5 91.8 60.4 92 60.1 90.9 61.9 90.4 62.8 90.4 62.8 96.5 61.5 96.5 61.5 91.8 61.5 91.8"/>
    <path class="st0" d="M67.7,94.6h0c0-.5-.4-.9-1.1-.9s-1,.4-1,.9h0c0,.5.4.9,1.1.9s1-.4,1-.9M65,96c-.4-.4-.7-1.1-.7-2.3h0c0-1.9.8-3.3,2.7-3.3s1.4.2,1.9.7l-.7,1c-.4-.3-.7-.5-1.2-.5-.8,0-1.1.6-1.2,1.4.3-.2.7-.4,1.2-.4,1.2,0,2.1.7,2.1,1.9h0c0,1.2-1,2.1-2.3,2.1s-1.3-.2-1.7-.7"/>
    <path class="st0" d="M87,90.3c-.8,0-1.2,0-2.8.2-1.4.3-2.2.6-2.7.9-.3-.4-2.9-3.8-5.3-7h-2.3l7.2,11.6h.1c0,.1,1.1.7,3.8.6,1.7,0,3.9-.5,4.1-.5,1.2-.3,1.9-2.7,2.1-3.7v-.4c0,0-.2-.2-.2-.2,0,0-1.5-1.3-4-1.5h0Z"/>
    <path class="st0" d="M32.4,90.3c.8,0,1.2,0,2.8.2,1.4.3,2.2.6,2.7.9.3-.4,2.9-3.8,5.3-7h2.3l-7.2,11.6h-.1c0,.1-1.1.7-3.8.6-1.7,0-3.9-.5-4.1-.5-1.2-.3-1.9-2.7-2.1-3.7v-.4c0,0,.2-.2.2-.2,0,0,1.5-1.3,4-1.5h0Z"/>
    <path class="st1" d="M63.6,19.4c-.8,0-1.2,1-1,1.9.9-.1,1.8-.3,2.5-.5,0-.3-.2-.7-.4-.9-.2-.3-.6-.6-1.1-.5M55.9,19.5c-.4-.1-.8.1-1.1.3-.3.3-.5.7-.6,1.1.8.2,1.6.4,2.5.5.1-.8-.2-1.7-.8-1.9M59.6,19.4c-.7,0-1.2.3-1.5.6-.3.4-.6.8-.6,1.4,1.4.1,3,.1,4.4,0,0-.6-.3-1.1-.7-1.5-.3-.3-.9-.6-1.6-.6M65.4,24.5c0-.4-.1-.7-.3-.9-.2-.2-.4-.4-.8-.4-.6,0-1,.4-1.2.8-.3.4-.4,1-.4,1.5-.2,0-.5.1-.7.1,0-.7-.3-1.2-.7-1.5-.4-.4-.9-.6-1.6-.6s-1.2.3-1.6.6c-.4.4-.7.9-.7,1.5-.3,0-.5,0-.7-.1,0-1-.4-1.8-1-2.2-.4-.2-.9-.2-1.2,0-.3.2-.5.6-.5,1.1,0,0-1-.9-1.3-1.2h0c0-.1,0-.3,0-.4,0-3.9,3.2-7,7-7s7,3.2,7,7v.3c-.2.3-.5.8-1.3,1.3M64.9,26c-.2.4-.6.7-1.1.8-.3,0-.5,0-.7-.2-.3-.2-.4-.6-.4-1,1-.2,1.9-.5,2.7-1h0c0,.5-.1,1.1-.4,1.5M61.2,27.1c-.4.4-.9.6-1.6.6s-1.2-.3-1.6-.6c-.4-.4-.7-.9-.7-1.5,0,0,0,0,0,0,1.4.2,3.2.2,4.6,0,0,.7-.3,1.2-.7,1.5M55.5,26.7c-.5,0-.9-.4-1.2-.8-.3-.4-.5-.9-.4-1.5h0c.8.4,1.7.7,2.7.9,0,.7-.4,1.3-1.1,1.3M59.6,14.4c-4.7,0-8.4,3.8-8.4,8.4s3.8,8.4,8.4,8.4,8.4-3.8,8.4-8.4-3.8-8.4-8.4-8.4"/>
    <path class="st0" d="M48.3,36.8l-9-16.2s-1.2-.2-2.3.3c-1.1.6-1.5,1.7-1.5,1.7l9.9,15.7c.9-.6,1.9-1.1,2.9-1.5h0Z"/>
    <path class="st0" d="M73.9,38.4l9.9-15.7s-.4-1.1-1.5-1.7c-1.1-.6-2.3-.3-2.3-.3l-9,16.3c1.6.7,2.6,1.3,2.9,1.5h0Z"/>
  </g>
  <circle class="st2" cx="60.4" cy="60.4" r="58.9"/>
</svg>