<?xml version="1.0" encoding="UTF-8"?>
<svg id="a" data-name="Layer 1" xmlns="http://www.w3.org/2000/svg" width="1323.76" height="216.52" viewBox="0 0 1323.76 216.52">
  <defs>
    <style>
      .b {
        fill: #fff;
      }
    </style>
  </defs>
  <g>
    <path class="b" d="M22.52,39.32l45.01,81.97,6.56-.73,10.23-35.23-27.48-49.84,22.52-2.51,13.06,23.78,7.49-26.07,22.52-2.51-15.59,54.65,17.54,32.13,6.56-.73,25.83-89.88,22.52-2.51-31.72,110.46-35.42,3.96-13.62-24.82-7.81,27.21-35.42,3.96L0,41.83l22.52-2.51Z"/>
    <path class="b" d="M215.46,19.1l21.94-1.62,3.09,41.91,73.94-5.45-3.09-41.91,21.94-1.62,7.81,105.97-21.94,1.62-3.27-44.32-73.94,5.45,3.27,44.32-21.94,1.62-7.81-105.97Z"/>
    <path class="b" d="M370.5,8.55l21.97-1.17,5.64,106.11-21.97,1.17-5.64-106.11Z"/>
    <path class="b" d="M474.23,23.64l-46.17,1.57-.67-19.79,114.34-3.9.67,19.79-46.17,1.57,2.94,86.41-21.99.75-2.94-86.41Z"/>
    <path class="b" d="M577.23.82l114.18-.82.14,19.8-92.18.66.16,22,76.34-.54.14,19.8-76.34.55.18,24.86,92.18-.66.14,19.8-114.18.82-.76-106.26Z"/>
    <path class="b" d="M830.8,2.06l81.12,3.2c31.22,1.23,45.88,14.58,44.98,37.45-.89,22.64-16.57,34.79-47.78,33.56l-59.13-2.33-1.39,35.17-21.98-.87,4.19-106.18ZM912.75,56.59c16.49.65,22.87-4.82,23.26-14.71.4-10.11-5.53-16.07-22.02-16.72l-61.99-2.45-1.24,31.44,61.99,2.45Z"/>
    <path class="b" d="M993.29,9.37l21.96,1.32-6.37,106.07-21.96-1.32,6.37-106.07Z"/>
    <path class="b" d="M1052.51,12.79l24.56,1.99,67.14,83.81,6.32-77.85,21.93,1.78-8.59,105.91-24.12-1.96-67.55-84.28-6.35,78.29-21.93-1.78,8.59-105.91Z"/>
    <path class="b" d="M1210.31,26.22l113.45,12.85-2.23,19.67-91.59-10.37-2.48,21.86,75.85,8.59-2.23,19.67-75.85-8.59-2.8,24.7,91.59,10.37-2.23,19.67-113.45-12.84,11.95-105.58Z"/>
  </g>
  <g>
    <path class="b" d="M222.36,198.05c0-11.54,9.44-18.47,21.31-18.47,8.68,0,17.35,2.78,21.08,11.34.18.51.04.96-.49.96h-5.57c-.58,0-.9-.4-.99-.56-3.01-4.86-7.73-6.28-13.98-6.28-8.54,0-15.06,5.06-15.06,13.11s6.83,12.86,15.82,12.86,14.47-3.7,14.47-9.46c0-.46-.18-.86-.63-.86l-17.49.15c-.31,0-.63-.3-.63-.71v-3.85c0-.36.27-.71.63-.71h24.63c.49,0,.81.4.81.91,0,14.68-9.89,20.04-21.94,20.04s-21.98-6.73-21.98-18.47Z"/>
    <path class="b" d="M317.69,198.05c0-11.54,9.31-18.47,21.71-18.47s21.76,6.93,21.76,18.47-9.31,18.47-21.76,18.47-21.71-6.73-21.71-18.47ZM354.86,198.05c0-8.1-6.25-12.86-15.46-12.86s-15.42,4.76-15.42,12.86,6.25,12.96,15.42,12.96,15.46-4.86,15.46-12.96Z"/>
    <path class="b" d="M414.9,215.16l.14-13.36v-10.07l-.18-10.68c0-.35.32-.66.63-.66h4.99c.32,0,.58.3.58.66l-.13,13.62.04,15.03c0,.71.13.86.76.86l13.4-.05,5.44-.25c.27,0,.58.3.58.66l-.04,4.25c0,.35-.27.66-.58.66h-25.04c-.31,0-.63-.3-.58-.66Z"/>
    <path class="b" d="M494.55,215.16l.14-13.36v-10.07l-.18-10.68c0-.3.27-.66.63-.66h17.94l5.98-.1c.32,0,.58.3.58.66l-.04,4.2c0,.35-.27.66-.58.66l-6.65-.15h-11.01c-.63,0-.76.15-.76.76v9.57c0,.61.13.76.72.76l15.6-.2c.31,0,.58.36.58.71l-.04,4.3c0,.35-.27.71-.58.71l-15.55-.35c-.58,0-.72.15-.72.86l.13,12.35c0,.35-.27.71-.58.71h-4.99c-.31,0-.63-.3-.58-.66Z"/>
    <path class="b" d="M631.14,198.05c0-11.54,9.53-18.47,21.71-18.47,8.05,0,17.49,3.09,20.54,13.01.09.35-.04.86-.49.86h-4.99c-.54,0-.76-.35-.94-.71-2.29-5.06-7.1-7.64-14.12-7.64-9.08,0-15.42,5.01-15.42,12.96s6.43,12.96,15.42,12.96c7.01,0,12.14-2.63,14.16-7.59.22-.51.58-.66.99-.66h4.72c.31,0,.67.3.54.86-2.74,9.52-11.73,12.91-20.41,12.91-12.18,0-21.71-6.73-21.71-18.47Z"/>
    <path class="b" d="M724.26,198.05c0-11.54,9.3-18.47,21.71-18.47s21.76,6.93,21.76,18.47-9.3,18.47-21.76,18.47-21.71-6.73-21.71-18.47ZM761.44,198.05c0-8.1-6.25-12.86-15.46-12.86s-15.42,4.76-15.42,12.86,6.25,12.96,15.42,12.96,15.46-4.86,15.46-12.96Z"/>
    <path class="b" d="M821.3,200.33l-.13-19.28c0-.3.27-.66.63-.66h4.99c.31,0,.58.35.58.66l-.05,18.12c0,7.49,3.24,11.89,10.02,11.89s9.84-4.4,9.84-11.89l-.09-18.12c0-.35.27-.66.58-.66h4.99c.31,0,.63.3.63.66l-.09,19.28c-.09,11.79-6.11,16.2-15.87,16.2s-15.96-4.2-16.05-16.2Z"/>
    <path class="b" d="M909.04,215.05l.18-13.26v-10.07l-.18-10.53c0-.46.27-.81.72-.81h13.44c10.61,0,16.23,4.05,16.23,12.6,0,5.97-2.97,9.36-7.55,11.03-.4.1-.54.56-.27.96l6.97,9.72c.36.46.13,1.11-.36,1.11h-5.62c-.63,0-.99-.41-1.17-.71l-6.34-9.16c-.41-.61-.67-.76-1.44-.76h-7.69c-.58,0-.81.2-.81,1.01l.13,8.86c0,.51-.27.76-.54.76h-5.03c-.36,0-.67-.25-.67-.76ZM933.27,192.99c0-4.76-3.28-7.19-8.32-7.29l-8.95-.15c-.67,0-.81.15-.81.91l-.09,13.01c0,.61.13.71.67.71h8.72c5.39,0,8.77-2.43,8.77-7.19Z"/>
    <path class="b" d="M992.41,206.96c-.09-.46.09-.86.58-.86h5.08c.58,0,.76.3.94.66,1.03,3.09,3.46,4.25,8.27,4.25,5.3,0,7.96-1.57,7.96-4.56,0-2.48-1.53-4-8.72-4.91-10.38-1.21-14.52-3.95-14.52-11.03s4.81-10.83,14.97-10.83,14.2,3.69,15.37,9.67c.09.51-.09.96-.54.96h-5.26c-.31,0-.63-.15-.94-.66-.9-3.24-3.33-4.45-8.59-4.45-6.47,0-8.81,2.02-8.81,5.37,0,2.83,1.26,4.5,8.54,5.42,11.01,1.37,14.75,3.85,14.75,10.38,0,7.29-5.84,10.17-14.21,10.17-8.99,0-13.85-3.14-14.88-9.57Z"/>
    <path class="b" d="M1075.92,215.16l.18-13.36v-10.07l-.18-10.63c0-.35.27-.71.58-.71l24.09-.1c.31,0,.58.35.58.66v4.2c0,.35-.27.71-.58.66l-6.38-.2h-11.51c-.58,0-.72.15-.72.81v8.6c0,.71.13.86.72.86l14.88-.1c.32,0,.58.35.58.66l-.04,4.2c0,.36-.27.71-.63.71l-14.79-.35c-.58,0-.72.15-.72.86l.04,8c0,.71.13.86.76.86h11.33l6.65-.3c.31,0,.63.3.63.66l-.04,4.1c0,.35-.27.66-.58.66h-24.23c-.31,0-.63-.3-.63-.66Z"/>
  </g>
</svg>