<?xml version="1.0" encoding="UTF-8"?>
<svg id="a" data-name="Layer 1" xmlns="http://www.w3.org/2000/svg" width="1338.15" height="260.49" viewBox="0 0 1338.15 260.49">
  <defs>
    <style>
      .b {
        fill: #fff;
      }
    </style>
  </defs>
  <g>
    <path class="b" d="M17.91,75.53c-3.35-8.21-6.27-14.66-8.76-19.36-2.49-4.7-5.5-9.02-9.03-12.95l-.12-1.07,40.9-4.46.12,1.07c-1.22,3.37-1.85,6.78-1.91,10.2-.06,3.43.36,6.89,1.24,10.4.89,3.51,2.33,7.78,4.32,12.82l30.68,80.07,1.07-.12,18.19-107.55-5.97-12.1,31.5-3.44,44.17,112.63,1.07-.12,12.89-84.83c.84-5.5,1.36-10,1.55-13.51s-.05-6.91-.73-10.18-1.93-6.26-3.73-8.94l-.12-1.07,33-3.6.12,1.07c-2.82,4.49-4.92,9.18-6.3,14.09-1.37,4.9-2.81,11.72-4.3,20.46l-20.12,121.49-24.35,2.66-43.55-111.84-1.17.13-20.63,118.84-24.67,2.69L17.91,75.53Z"/>
    <path class="b" d="M372.77,9.38c-2.31,3.96-3.8,8.38-4.47,13.23-.67,4.86-.72,11.36-.16,19.5l5.95,85.84c.56,8.07,1.51,14.49,2.84,19.24,1.33,4.75,3.42,8.93,6.25,12.54l.07,1.07-39.76,2.76-.07-1.07c2.24-3.89,3.66-8.26,4.26-13.11.6-4.85.61-11.38.04-19.6l-2.41-34.72-76.84,5.33,2.41,34.72c.57,8.14,1.48,14.6,2.74,19.35,1.26,4.76,3.31,8.9,6.14,12.44l.07,1.07-39.76,2.76-.07-1.07c2.31-3.96,3.8-8.39,4.46-13.28.67-4.89.72-11.37.16-19.45l-5.95-85.84c-.56-8.14-1.51-14.58-2.84-19.29-1.33-4.72-3.42-8.88-6.25-12.49l-.07-1.07,39.76-2.76.07,1.07c-2.31,3.96-3.76,8.34-4.37,13.12s-.62,11.31-.04,19.6l2.31,33.33,76.83-5.33-2.31-33.33c-.58-8.36-1.48-14.86-2.7-19.52-1.22-4.65-3.25-8.75-6.08-12.28l-.07-1.07,39.76-2.76.07,1.07Z"/>
    <path class="b" d="M411.42,158.71c2.33-3.91,3.86-8.32,4.6-13.23.74-4.91.93-11.37.56-19.38l-3.97-85.96c-.37-8.01-1.15-14.43-2.34-19.25-1.19-4.82-3.13-9.07-5.81-12.75l-.05-1.07,39.81-1.84.05,1.07c-2.48,3.84-4.08,8.18-4.83,13.02-.75,4.84-.93,11.37-.55,19.6l3.97,85.96c.38,8.23,1.16,14.72,2.35,19.46,1.19,4.75,3.19,8.92,6.01,12.52l.05,1.07-39.81,1.84-.05-1.07Z"/>
    <path class="b" d="M511.31,154.66c2.98-3.81,4.95-8.12,5.93-12.95s1.35-11.43,1.12-19.8l-2.78-101.9-15.35.42c-17.9.49-29.32,4.63-34.26,12.43l-1.07.03-.79-28.78,128.21-3.5.79,28.78-1.29.04c-2.68-3.79-6.77-6.57-12.26-8.31-5.49-1.75-12.96-2.49-22.41-2.24l-15.35.42,2.78,101.9c.22,8.23.96,14.75,2.2,19.55,1.24,4.8,3.42,9.06,6.53,12.77l.03,1.07-41.98,1.15-.03-1.07Z"/>
    <path class="b" d="M725.67,121.8l.16,31.04-112.47.57v-1.07c2.62-3.74,4.41-8.06,5.35-12.97.94-4.91,1.39-11.59,1.35-20.04l-.44-85.62c-.04-8.02-.58-14.46-1.6-19.33-1.03-4.86-2.84-9.12-5.44-12.76V.56s109.14-.56,109.14-.56l.14,28.14h-1.07c-3.03-3.85-7.05-6.57-12.07-8.15-5.02-1.58-12.33-2.35-21.93-2.3l-40.93.21.25,49.31,31.47-.16c8.45-.04,14.88-.69,19.27-1.92,4.4-1.24,8.02-3.26,10.87-6.07h1.29s.17,33.62.17,33.62h-1.29c-2.74-2.92-6.33-4.99-10.77-6.22-4.45-1.23-10.93-1.82-19.45-1.78l-31.47.16.26,50.81,44.26-.23c8.95-.05,16.02-1.05,21.2-3.01,5.18-1.96,9.3-5.49,12.35-10.59h1.4Z"/>
    <path class="b" d="M886.57,96.58l-1.07,26.62c-.33,8.23-.06,14.8.82,19.71.88,4.91,2.75,9.28,5.6,13.12l-.04,1.07-40.89-1.64.04-1.07c2.8-3.62,4.78-7.85,5.94-12.72,1.16-4.86,1.9-11.3,2.23-19.32l3.46-86.4c.31-7.73.06-14.08-.74-19.06-.8-4.98-2.42-9.34-4.85-13.09l.04-1.07,52.16,2.09c17.53.7,31.48,5.33,41.85,13.88,10.37,8.55,15.27,20.02,14.69,34.4-.58,14.45-6.4,25.62-17.47,33.49-11.07,7.87-25.33,11.46-42.79,10.75l-19-.76ZM889.59,21.13l-2.35,58.5,15.88.64c10.88.44,19.37-1.71,25.47-6.45s9.35-12.01,9.74-21.81c.39-9.73-2.25-17.09-7.93-22.09-5.68-4.99-13.99-7.71-24.94-8.15l-15.88-.64Z"/>
    <path class="b" d="M979.9,160.11c2.72-3.64,4.71-7.86,5.96-12.67,1.25-4.8,2.11-11.21,2.58-19.22l5.06-85.9c.47-8.01.37-14.47-.31-19.39-.68-4.92-2.16-9.35-4.44-13.28l.06-1.07,39.79,2.34-.06,1.07c-2.86,3.56-4.92,7.71-6.17,12.44-1.25,4.73-2.11,11.21-2.6,19.43l-5.06,85.9c-.48,8.22-.38,14.76.3,19.6.68,4.85,2.24,9.21,4.66,13.08l-.06,1.07-39.79-2.34.06-1.07Z"/>
    <path class="b" d="M1047.57,163.84c2.93-3.28,5.08-7.43,6.46-12.46,1.38-5.02,2.41-11.64,3.08-19.85l8.98-109.41-4.77-8.8.05-.64,38.75,3.18,60.21,121.24,1.39.11,6.73-82c.67-8.14.73-14.74.17-19.82s-2.01-9.47-4.36-13.18l.09-1.07,33.51,2.75-.09,1.07c-2.86,3.29-4.97,7.39-6.35,12.3-1.37,4.92-2.39,11.44-3.06,19.58l-9.76,118.83-28.05-2.3-64.93-129.38-1.28-.11-7.33,89.29c-.67,8.21-.74,14.9-.19,20.08.54,5.18,1.99,9.63,4.35,13.34l-.09,1.07-33.62-2.76.09-1.07Z"/>
    <path class="b" d="M1327.68,160.98l-3.51,30.85-111.75-12.72.12-1.07c3.05-3.4,5.34-7.48,6.85-12.25,1.52-4.76,2.75-11.35,3.71-19.74l9.68-85.07c.91-7.97,1.14-14.43.69-19.38-.45-4.95-1.74-9.39-3.89-13.31l.12-1.07,108.44,12.34-3.18,27.96-1.07-.12c-2.55-4.18-6.23-7.36-11.03-9.53-4.8-2.17-11.96-3.79-21.5-4.88l-40.67-4.63-5.58,48.99,31.27,3.56c8.4.96,14.85,1.08,19.37.37s8.35-2.29,11.51-4.74l1.28.15-3.8,33.41-1.28-.15c-2.37-3.22-5.69-5.71-9.96-7.46-4.27-1.75-10.64-3.1-19.11-4.07l-31.27-3.56-5.75,50.49,43.97,5c8.9,1.01,16.03.85,21.41-.48,5.38-1.33,9.88-4.35,13.52-9.06l1.39.16Z"/>
  </g>
  <g>
    <path class="b" d="M229.55,242.01c0-11.54,9.44-18.47,21.31-18.47,8.68,0,17.35,2.78,21.08,11.34.18.51.04.96-.49.96h-5.57c-.58,0-.9-.4-.99-.56-3.01-4.86-7.73-6.28-13.98-6.28-8.54,0-15.06,5.06-15.06,13.11s6.83,12.86,15.82,12.86,14.47-3.7,14.47-9.46c0-.46-.18-.86-.63-.86l-17.49.15c-.31,0-.63-.3-.63-.71v-3.85c0-.36.27-.71.63-.71h24.63c.49,0,.81.4.81.91,0,14.68-9.89,20.04-21.94,20.04s-21.98-6.73-21.98-18.47Z"/>
    <path class="b" d="M324.88,242.01c0-11.54,9.3-18.47,21.71-18.47s21.76,6.93,21.76,18.47-9.31,18.47-21.76,18.47-21.71-6.73-21.71-18.47ZM362.05,242.01c0-8.1-6.25-12.86-15.46-12.86s-15.42,4.76-15.42,12.86,6.25,12.96,15.42,12.96,15.46-4.86,15.46-12.96Z"/>
    <path class="b" d="M422.1,259.12l.14-13.36v-10.07l-.18-10.68c0-.35.32-.66.63-.66h4.99c.32,0,.58.3.58.66l-.13,13.62.04,15.03c0,.71.13.86.76.86l13.4-.05,5.44-.25c.27,0,.58.3.58.66l-.04,4.25c0,.35-.27.66-.58.66h-25.04c-.31,0-.63-.3-.58-.66Z"/>
    <path class="b" d="M501.74,259.12l.14-13.36v-10.07l-.18-10.68c0-.3.27-.66.63-.66h17.94l5.98-.1c.32,0,.58.3.58.66l-.04,4.2c0,.35-.27.66-.58.66l-6.65-.15h-11.01c-.63,0-.76.15-.76.76v9.57c0,.61.13.76.72.76l15.6-.2c.31,0,.58.36.58.71l-.04,4.3c0,.35-.27.71-.58.71l-15.55-.35c-.58,0-.72.15-.72.86l.13,12.35c0,.35-.27.71-.58.71h-4.99c-.31,0-.63-.3-.58-.66Z"/>
    <path class="b" d="M638.33,242.01c0-11.54,9.53-18.47,21.71-18.47,8.05,0,17.49,3.09,20.54,13.01.09.35-.04.86-.49.86h-4.99c-.54,0-.76-.35-.94-.71-2.29-5.06-7.1-7.64-14.12-7.64-9.08,0-15.42,5.01-15.42,12.96s6.43,12.96,15.42,12.96c7.01,0,12.14-2.63,14.16-7.59.22-.51.58-.66.99-.66h4.72c.31,0,.67.3.54.86-2.74,9.52-11.73,12.91-20.41,12.91-12.18,0-21.71-6.73-21.71-18.47Z"/>
    <path class="b" d="M731.46,242.01c0-11.54,9.3-18.47,21.71-18.47s21.76,6.93,21.76,18.47-9.3,18.47-21.76,18.47-21.71-6.73-21.71-18.47ZM768.63,242.01c0-8.1-6.25-12.86-15.46-12.86s-15.42,4.76-15.42,12.86,6.25,12.96,15.42,12.96,15.46-4.86,15.46-12.96Z"/>
    <path class="b" d="M828.49,244.29l-.13-19.28c0-.3.27-.66.63-.66h4.99c.31,0,.58.35.58.66l-.05,18.12c0,7.49,3.24,11.89,10.02,11.89s9.84-4.4,9.84-11.89l-.09-18.12c0-.35.27-.66.58-.66h4.99c.31,0,.63.3.63.66l-.09,19.28c-.09,11.79-6.11,16.2-15.87,16.2s-15.96-4.2-16.05-16.2Z"/>
    <path class="b" d="M916.23,259.02l.18-13.26v-10.07l-.18-10.53c0-.46.27-.81.72-.81h13.44c10.61,0,16.23,4.05,16.23,12.6,0,5.97-2.97,9.36-7.55,11.03-.4.1-.54.56-.27.96l6.97,9.72c.36.46.13,1.11-.36,1.11h-5.62c-.63,0-.99-.41-1.17-.71l-6.34-9.16c-.41-.61-.67-.76-1.44-.76h-7.69c-.58,0-.81.2-.81,1.01l.13,8.86c0,.51-.27.76-.54.76h-5.03c-.36,0-.67-.25-.67-.76ZM940.46,236.95c0-4.76-3.28-7.19-8.32-7.29l-8.95-.15c-.67,0-.81.15-.81.91l-.09,13.01c0,.61.13.71.67.71h8.72c5.39,0,8.77-2.43,8.77-7.19Z"/>
    <path class="b" d="M999.6,250.92c-.09-.46.09-.86.58-.86h5.08c.58,0,.76.3.94.66,1.03,3.09,3.46,4.25,8.27,4.25,5.3,0,7.96-1.57,7.96-4.56,0-2.48-1.53-4-8.72-4.91-10.38-1.21-14.52-3.95-14.52-11.03s4.81-10.83,14.97-10.83,14.2,3.69,15.37,9.67c.09.51-.09.96-.54.96h-5.26c-.31,0-.63-.15-.94-.66-.9-3.24-3.33-4.45-8.59-4.45-6.47,0-8.81,2.02-8.81,5.37,0,2.83,1.26,4.5,8.54,5.42,11.01,1.37,14.75,3.85,14.75,10.38,0,7.29-5.84,10.17-14.21,10.17-8.99,0-13.85-3.14-14.88-9.57Z"/>
    <path class="b" d="M1083.11,259.12l.18-13.36v-10.07l-.18-10.63c0-.35.27-.71.58-.71l24.09-.1c.31,0,.58.35.58.66v4.2c0,.35-.27.71-.58.66l-6.38-.2h-11.51c-.58,0-.72.15-.72.81v8.6c0,.71.13.86.72.86l14.88-.1c.32,0,.58.35.58.66l-.04,4.2c0,.36-.27.71-.63.71l-14.79-.35c-.58,0-.72.15-.72.86l.04,8c0,.71.13.86.76.86h11.33l6.65-.3c.31,0,.63.3.63.66l-.04,4.1c0,.35-.27.66-.58.66h-24.23c-.31,0-.63-.3-.63-.66Z"/>
  </g>
</svg>