<?xml version="1.0" encoding="UTF-8"?>
<svg id="a" data-name="Layer 1" xmlns="http://www.w3.org/2000/svg" width="1361.37" height="166.47" viewBox="0 0 1361.37 166.47">
  <defs>
    <style>
      .b {
        fill: #fff;
      }
    </style>
  </defs>
  <g>
    <path class="b" d="M129.31.51c2.51.34,5.02,1.26,6.97,3.88,4,5.25,5.37,11.65,7.99,17.47,1.94,4.57,3.88,9.02,6.05,13.36,1.26,2.51,2.97,1.94,4-.23,4.45-9.71,9.02-19.3,12.79-29.23.8-2.28,1.37-4.34,4.23-4.45,3.31-.11,6.97-.57,8.91,3.2,4.57,9.14,8.56,18.39,12.22,27.86.57,1.71.8,4.34,2.63,4.34,2.17.11,3.31-2.17,4.11-4.23,2.63-7.31,5.6-14.5,8.56-21.7,1.71-4,3.31-9.48,9.59-9.94,2.17-.11,4.23-.68,5.94,1.03,1.83,1.83,1.14,3.88.34,5.82-4.68,12.33-9.59,24.55-15.07,36.54-2.06,4.57-3.65,9.25-5.94,13.82-2.74,5.37-6.85,6.17-11.31,2.06-4.68-4.23-5.48-10.16-7.77-15.53-2.17-5.48-4.8-10.73-7.31-16.1-.46-1.03-1.14-2.17-2.4-2.17-1.37.11-2.06,1.37-2.51,2.63-3.77,8.79-7.65,17.59-11.08,26.61-1.48,4-3.43,6.74-7.77,7.08-4.45.34-6.85-3.08-7.99-6.39-3.54-11.08-9.82-20.9-13.48-31.98-2.06-5.94-5.25-11.42-6.51-17.7-1.03-4.45.23-6.05,4.8-6.05Z"/>
    <path class="b" d="M320.01,38.77c-7.08,0-14.05-.11-21.01.23-3.08.11-4.23,2.97-4.45,5.71-.23,3.43,0,6.74,0,10.16-.11,5.94-1.83,8.34-6.05,8.11-4.91-.23-7.77-3.65-7.08-9.25,1.03-9.59.11-19.07.23-28.66.11-6.28-.57-12.45,0-18.61.23-3.2,2.74-5.14,6.05-5.48,3.31-.23,6.62,2.51,6.74,5.6.11,4.45,0,8.79.11,13.13,0,5.02,1.94,6.17,7.08,5.94,4.11-.11,8.22.11,12.33.68,5.71.91,11.65.34,17.47-.34,7.65-.91,9.59-3.88,9.71-12.33,0-2.28,0-4.45-.11-6.74-.23-3.54,1.48-5.02,4.91-5.14,5.02-.23,6.62.68,6.74,4.57.11,6.97-.57,13.93.23,20.67,1.14,10.28-.8,20.33-.23,30.49.23,3.2-.69,5.48-4.57,5.6-4.8.23-7.19-1.14-7.65-5.02-.23-2.28-.34-4.45.34-6.74.91-2.97.34-5.94-.69-8.68-1.03-2.51-3.08-4.22-6.28-4.11-4.57.23-9.25.23-13.82.23Z"/>
    <path class="b" d="M429.52,24.84c-1.48,11.42-.23,21.81-.57,32.32,0,3.08-1.37,5.82-5.14,6.17-3.54.34-6.74-1.83-7.54-5.25-.34-1.83-.57-3.65-.34-5.48,1.14-10.73.34-21.58,0-32.32-.11-5.25,1.03-10.28.91-15.53-.11-4.68,4.8-3.54,7.54-4,2.4-.34,4,1.94,4,4.45.34,6.85-.34,13.7,1.14,19.64Z"/>
    <path class="b" d="M535.73,33.29c0,7.42.11,14.85,0,22.27-.11,5.71-2.17,7.42-7.42,7.19-2.51,0-4-.91-4.23-3.54-.11-1.26-.69-2.51-.69-3.65.23-9.48.11-18.96-.57-28.32-.23-3.31.34-6.62-.11-9.94-.46-2.97-1.94-4.68-5.14-4.34-6.62.68-13.36-1.14-19.98,0-2.74.46-5.14-.11-5.37-3.65-.46-4.34,1.14-7.99,4.34-7.77,11.19.91,23.52-.11,34.83-.11,9.94,0,20.78.69,30.72,0,2.4-.23,4.68.34,4.8,3.31.23,3.2.34,6.28-3.65,7.54-1.48.57-2.97.69-4.45.69h-15.64c-5.25,0-7.08,1.6-7.31,6.85-.23,4.57,0,9.02,0,13.47h-.11Z"/>
    <path class="b" d="M690.12.28c3.2,1.6,5.02,3.88,4.57,7.76-.57,4.34-2.17,5.6-6.74,5.48-14.96-.23-30.03-.23-45.11-.23-4,0-5.48,2.06-5.6,6.28,0,3.65,1.03,5.71,5.37,5.82,12.56.57,25.12,1.03,37.8.68,3.88-.11,5.14,1.49,5.02,5.25-.11,5.94-.69,7.19-5.14,7.19-11.88.11-23.75,0-35.63.11-5.37,0-7.19,1.48-7.31,5.94-.23,4.91,3.08,7.65,8.45,6.74,9.14-1.49,18.39-1.03,27.52,0,.8.11,1.83.34,2.51.11,4.91-2.4,9.71-1.14,14.73,0,3.77.8,4.11,2.97,4.11,6.05,0,3.31-1.83,5.14-4.8,5.25-9.71.46-19.53.46-29.23.46-9.94.11-19.87-.57-29.81-.11-3.88.23-5.25-1.48-6.05-5.14-1.26-5.94-.91-11.53,0-17.36.8-5.48-1.26-10.85-.91-16.33.46-5.37,1.37-10.73.46-16.22-.8-4.34,1.6-6.17,6.17-6.39,8.34-.34,16.79.91,25.01-1.37h34.6Z"/>
    <path class="b" d="M867.12,37.51c-6.05,0-10.96-.11-15.87,0-5.25.11-7.42,2.28-7.42,7.42-.11,4.34,0,8.68,0,13.02,0,3.08-1.37,4.8-4.57,4.8-3.31.11-6.97-.23-6.74-4.34.23-8.34-1.37-16.67-.91-25.12.34-4.91,1.03-10.05.11-15.3-.91-4.8.23-9.94.57-14.96.11-1.83,1.6-2.4,3.31-2.4,10.62-.23,21.24-1.14,31.98-.23,6.97.57,13.93,0,20.9.8,6.4.69,12.9,5.94,13.25,12.22.34,5.6,1.83,11.42-1.94,16.79-2.85,4-6.74,5.82-11.53,6.51-7.42.91-14.85.68-21.13.8ZM883.45,25.41c1.48-.57,2.63-1.26,3.43-2.28,1.71-2.17,2.28-4.34,1.03-6.97-1.14-2.28-3.2-3.08-5.48-3.08-10.73-.11-21.47-.11-32.2,0-4.57.11-6.28,2.05-6.4,7.08,0,3.77,2.28,4.8,5.71,5.14,6.28.46,25.35,3.2,33.92.11Z"/>
    <path class="b" d="M978.57,24.84c-1.48,11.42-.23,21.81-.57,32.32,0,3.08-1.37,5.82-5.14,6.17-3.54.34-6.74-1.83-7.54-5.25-.34-1.83-.57-3.65-.34-5.48,1.14-10.73.34-21.58,0-32.32-.11-5.25,1.03-10.28.91-15.53-.11-4.68,4.8-3.54,7.54-4,2.4-.34,4,1.94,4,4.45.34,6.85-.34,13.7,1.14,19.64Z"/>
    <path class="b" d="M1054.28,42.31c0,4.68.11,9.48,0,14.27,0,3.77-1.83,5.71-5.6,5.94-3.77.11-6.28-1.14-6.74-5.25-.69-6.51-.11-13.02-.11-19.53,0-10.39-.34-20.78-.69-31.29-.11-3.65,4.68-6.85,8.45-5.48,2.74,1.14,5.48,2.4,7.54,4.57,7.99,8.56,17.93,15.19,25.92,23.98,2.97,3.31,6.62,6.05,10.16,8.68.91.57,1.6,1.94,2.97,1.14,1.14-.68,1.48-1.94,1.37-3.31-.23-3.08-1.14-6.17-.69-9.14,1.14-6.97-1.71-13.93.57-20.9,1.26-4,3.54-5.14,7.08-4.8,3.77.34,4.68,2.97,4.68,6.28v29.8c0,5.82.46,11.65,0,17.59-.11,2.74.11,5.6-2.74,6.85-2.97,1.37-6.17,1.48-8.79-.57-4.23-3.43-8.68-6.85-12.33-10.85-5.25-6.05-11.76-10.62-17.47-16.22l-8.34-7.77c-1.14-1.03-2.06-3.08-4-2.17-1.71.8-1.14,2.74-1.14,4.22-.11,4.57,0,9.25,0,13.93h-.11Z"/>
    <path class="b" d="M1232.54.28c3.2,1.6,5.02,3.88,4.57,7.76-.57,4.34-2.17,5.6-6.74,5.48-14.96-.23-30.03-.23-45.11-.23-4,0-5.48,2.06-5.6,6.28,0,3.65,1.03,5.71,5.37,5.82,12.56.57,25.12,1.03,37.8.68,3.88-.11,5.14,1.49,5.02,5.25-.11,5.94-.69,7.19-5.14,7.19-11.88.11-23.75,0-35.63.11-5.37,0-7.19,1.48-7.31,5.94-.23,4.91,3.08,7.65,8.45,6.74,9.14-1.49,18.39-1.03,27.52,0,.8.11,1.83.34,2.51.11,4.91-2.4,9.71-1.14,14.73,0,3.77.8,4.11,2.97,4.11,6.05,0,3.31-1.83,5.14-4.8,5.25-9.71.46-19.53.46-29.23.46-9.94.11-19.87-.57-29.81-.11-3.88.23-5.25-1.48-6.05-5.14-1.26-5.94-.91-11.53,0-17.36.8-5.48-1.26-10.85-.91-16.33.46-5.37,1.37-10.73.46-16.22-.8-4.34,1.6-6.17,6.17-6.39,8.34-.34,16.79.91,25.01-1.37h34.6Z"/>
  </g>
  <g>
    <path class="b" d="M83,135.65c-1.26,18.39-9.14,27.18-28.55,29.35-9.48,1.14-19.07,1.03-28.55,0-11.76-1.14-21.58-8.22-24.55-20.33-2.17-8.91-1.94-18.5,2.28-26.95,3.54-7.08,10.05-11.42,17.81-12.9,12.1-2.28,24.44-1.14,36.77-.8,7.54.11,13.48,4.11,18.61,9.36,1.6,1.71,1.6,3.88.69,5.6-1.26,2.17-2.97,4.45-5.94,4.8-2.74.34-5.14-.23-7.54-1.83-12.56-8.22-26.15-8.11-39.85-3.88-7.99,2.51-11.76,9.14-10.85,17.36,1.14,11.08,7.42,16.67,18.73,17.47,9.02.57,17.81,0,26.49-2.51,2.51-.8,4.57-2.06,6.4-3.88,1.03-1.14,2.4-2.4,1.71-4-.69-1.83-2.4-1.71-4-1.71-4.34,0-19.07,0-23.41.11-3.2,0-5.14-1.26-5.6-4.45-.57-4.45,1.03-7.19,4.57-8.11,5.14-1.26,20.56.23,25.69.11,4.23,0,8.22-1.37,12.56-.34,6.4,1.48,6.51,1.03,6.51,7.54Z"/>
    <path class="b" d="M181.89,166.03c-9.25-.57-18.5-.57-27.41-4.57-8.56-3.77-12.1-10.62-13.93-18.61-1.03-4.8-.69-9.94-.11-14.85,1.48-13.13,11.42-22.27,24.67-23.52,5.48-.57,11.08-1.26,16.56-1.48,12.68-.57,25.01,1.14,33.8,11.76,2.85,3.54,5.25,7.54,5.02,12.56-.23,5.25,1.14,10.39.11,15.87-1.71,9.71-7.31,15.99-16.1,19.18-7.19,2.74-14.73,4.23-22.61,3.65ZM153,135.88c1.03,5.25,2.06,11.88,10.28,15.19,6.05,2.28,11.99,2.06,18.04,2.4,6.4.34,12.9.23,18.61-4.11,7.31-5.48,10.85-14.5,7.19-22.61-2.06-4.45-6.62-7.31-11.42-8.79-8.91-2.74-18.04-1.83-27.18-.91-9.71,1.03-15.87,8.68-15.53,18.84Z"/>
    <path class="b" d="M314.13,165.35c-8.91-.46-17.93.91-26.84-.8-2.17-.46-4.34,1.6-6.51-.23-1.83-1.48-3.2-3.43-2.97-5.71.46-4.34.23-8.68.34-13.02.23-4.91.34-9.93.11-14.96-.23-4.57-.34-9.13.11-13.7.23-2.97-.8-5.94.11-9.02,1.26-4,2.51-5.02,7.42-4.8,4.11.11,5.02,2.51,5.02,5.82.11,12.22,0,24.44,0,36.66,0,5.6,1.26,7.54,6.74,7.19,8.45-.57,16.9.91,25.35-.57,5.02-.91,10.28.34,15.42.11,3.65-.23,5.14,2.97,5.6,6.17.57,3.31-.91,5.25-4.23,6.05-6.62,1.6-13.13.46-19.76.8-1.94.11-3.88,0-5.94,0Z"/>
    <path class="b" d="M419.99,103.22c7.65.46,15.19,1.48,22.84.68,5.14-.57,10.05.8,15.07.46,2.51-.11,5.02-.57,7.54-.46,3.65.23,6.28,2.97,6.28,6.17,0,3.88-1.94,5.25-6.28,6.17-9.14,2.06-18.16-.8-27.29-.11-6.05.46-12.22,0-18.39.11-4.45,0-6.51,2.17-6.17,6.05.23,4.45,2.17,6.17,6.51,6.05,11.76-.23,23.41,1.14,35.17.57,3.65-.23,6.85,2.86,6.97,6.05.11,3.31-3.08,6.51-6.97,6.51-8.68-.23-17.36.57-26.15-.46-3.43-.46-7.19,0-10.73.68-2.97.57-4.91,2.51-4.91,5.94-.11,4.34,1.48,8.56.11,12.9-1.03,3.08-1.83,5.6-5.71,5.37-3.65-.11-6.62-2.51-6.74-6.17-.46-17.93.8-35.63.91-53.56,0-1.71,1.6-2.17,2.74-2.97h15.19Z"/>
    <path class="b" d="M659.34,102.77c2.74,1.94,6.17,1.6,9.25,1.94,7.08,1.03,12.1,4.68,16.22,10.05,1.94,2.63.91,6.4-2.4,8.22-3.08,1.6-6.51,2.06-9.25,0-13.36-10.39-28.09-8.34-42.82-4.34-4.23,1.14-7.31,4.11-8.45,8.56-4,14.96,2.4,23.87,17.13,25.81,5.25.69,10.73.57,15.99.46,4.34-.11,9.36-1.14,13.36-4,2.4-1.6,4.68-3.08,7.54-3.77,4.11-1.03,7.19.8,9.14,4.23,2.06,3.31-.69,5.37-2.74,7.54-9.71,10.28-28.78,9.14-41.68,8.79-14.62-.46-32.55-8.34-32.2-25.58.11-3.31.23-6.51,0-9.71-.91-9.82,4.23-16.44,11.19-22.15,2.74-2.28,6.17-3.2,9.36-3.54,4.34-.46,8.34-2.28,12.68-2.51h17.7Z"/>
    <path class="b" d="M784.73,166.03c-9.25-.57-18.5-.57-27.41-4.57-8.56-3.77-12.1-10.62-13.93-18.61-1.03-4.8-.69-9.94-.11-14.85,1.48-13.13,11.42-22.27,24.67-23.52,5.48-.57,11.08-1.26,16.56-1.48,12.68-.57,25.01,1.14,33.8,11.76,2.85,3.54,5.25,7.54,5.02,12.56-.23,5.25,1.14,10.39.11,15.87-1.71,9.71-7.31,15.99-16.1,19.18-7.19,2.74-14.73,4.23-22.61,3.65ZM755.84,135.88c1.03,5.25,2.06,11.88,10.28,15.19,6.05,2.28,11.99,2.06,18.04,2.4,6.4.34,12.9.23,18.61-4.11,7.31-5.48,10.85-14.5,7.19-22.61-2.06-4.45-6.62-7.31-11.42-8.79-8.91-2.74-18.04-1.83-27.18-.91-9.71,1.03-15.87,8.68-15.53,18.84Z"/>
    <path class="b" d="M962.64,124.81c-.46,4.91.11,11.08-.69,17.24-1.48,12.68-13.7,21.47-24.9,22.95-8.45,1.03-16.67.57-25.01.34-9.25-.23-18.73-2.17-24.55-10.39-3.65-5.37-6.74-11.53-5.82-18.61.8-5.71-1.6-11.3-.91-17.01.46-4.23.46-8.57,1.48-12.56.8-3.08,4.11-3.77,6.97-3.31,2.85.46,4.68,1.94,5.14,5.25,1.03,8.79-.23,17.47-.11,26.27.23,9.14,7.42,16.67,16.56,17.36,6.62.46,13.13,1.71,19.98,1.03,10.28-1.14,17.93-8.56,18.73-18.84.8-8.56.23-17.24.57-25.81.34-5.71,4.11-4.22,7.08-4.57,3.54-.46,5.48,1.14,5.48,4.68v15.99Z"/>
    <path class="b" d="M1090.2,122.98c0,1.94.23,3.88,0,5.82-.57,4-2.4,6.97-6.62,8.22-6.28,1.94-12.45,4.45-19.19,3.43-.8-.11-1.37.34-1.71,1.03-.46,1.14.46,1.83,1.03,2.63,4,4.8,9.59,6.4,15.3,8.22,5.02,1.6,10.28,2.17,15.53,2.51,3.88.23,5.25,2.63,4.91,6.28-.23,3.54-2.17,5.25-5.71,5.25-14.39,0-27.64-3.77-39.28-12.33-3.2-2.28-5.14-5.48-6.97-8.91-1.94-3.88-5.02-5.48-9.25-4.8-3.77.69-5.25,3.31-5.71,7.19-.46,4.23-.91,8.34,0,12.56.57,2.86-1.03,4.34-3.2,5.14-4,1.71-9.71-1.37-9.48-5.6.46-8.11-1.03-16.1.11-24.1.46-4-.23-8.22-.23-12.33.23-5.6.23-11.19.91-16.79.34-2.63,2.63-4,5.71-3.77,4.57.46,9.14.8,13.7.57,10.28-.46,20.67.23,30.95-.34,11.76-.69,19.19,7.76,19.19,20.1ZM1053.77,115.78c-5.14,0-10.39-.11-15.64,0-3.77.11-5.25,2.17-5.25,6.51-.11,3.54,1.37,5.6,5.14,5.6,4.34-.11,8.68-.11,13.02.11,7.08.34,14.16,0,21.24-.8,2.17-.34,4.68-1.71,4.91-4.57.34-2.74-1.14-4.68-3.77-5.82-1.6-.69-3.2-1.03-4.91-1.03h-14.73Z"/>
    <path class="b" d="M1198,165.12c-10.73,0-19.53,0-28.09-2.51-4.34-1.26-8.22-3.43-11.08-6.62-2.06-2.28-3.88-5.25-1.14-8.57,2.63-3.08,6.74-3.88,10.28-2.28,2.97,1.37,4.91,4.11,8.11,5.14,10.39,3.2,20.9,3.08,31.4,1.26,1.94-.34,4-.34,5.82-.91,1.71-.46,4-.91,4-3.08.11-2.06-1.71-3.2-3.54-3.65-4.45-1.14-8.91-2.85-13.48-3.08-9.14-.34-18.04-1.94-26.72-4.57-5.37-1.6-11.08-3.54-13.25-9.82-2.4-7.42.57-14.73,7.77-18.39,8.22-4.11,17.13-5.71,26.27-5.14,4.68.34,9.25.11,13.82.57,5.14.46,9.36,2.86,13.93,4.45,3.88,1.26,6.4,4.34,8.22,7.88.91,1.83.34,3.2-.8,4.57-2.06,2.4-4.34,4.23-7.65,3.08-1.71-.57-3.43-1.37-4.91-2.28-10.16-6.97-21.35-6.74-32.77-4.68-2.97.46-7.77.23-7.77,4.68,0,4,4.45,4.68,7.42,5.02,7.77,1.14,15.65,2.06,23.52,2.63,6.4.46,12.9,2.4,18.96,5.82,6.51,3.88,8.11,9.25,6.97,15.99-1.03,6.28-6.28,9.25-11.31,10.62-8.45,2.4-16.79,5.94-23.98,3.88Z"/>
    <path class="b" d="M1356.73,103.11c3.2,1.6,5.02,3.88,4.57,7.76-.57,4.34-2.17,5.6-6.74,5.48-14.96-.23-30.03-.23-45.11-.23-4,0-5.48,2.06-5.6,6.28,0,3.65,1.03,5.71,5.37,5.82,12.56.57,25.12,1.03,37.8.68,3.88-.11,5.14,1.49,5.02,5.25-.11,5.94-.69,7.19-5.14,7.19-11.88.11-23.75,0-35.63.11-5.37,0-7.19,1.48-7.31,5.94-.23,4.91,3.08,7.65,8.45,6.74,9.14-1.49,18.39-1.03,27.52,0,.8.11,1.83.34,2.51.11,4.91-2.4,9.71-1.14,14.73,0,3.77.8,4.11,2.97,4.11,6.05,0,3.31-1.83,5.14-4.8,5.25-9.71.46-19.53.46-29.23.46-9.94.11-19.87-.57-29.81-.11-3.88.23-5.25-1.48-6.05-5.14-1.26-5.94-.91-11.53,0-17.36.8-5.48-1.26-10.85-.91-16.33.46-5.37,1.37-10.73.46-16.22-.8-4.34,1.6-6.17,6.17-6.39,8.34-.34,16.79.91,25.01-1.37h34.6Z"/>
  </g>
</svg>