<?xml version="1.0" encoding="UTF-8"?>
<svg id="a" data-name="Layer 1" xmlns="http://www.w3.org/2000/svg" width="242.47" height="289.65" viewBox="0 0 242.47 289.65">
  <defs>
    <style>
      .b {
        fill: #4b533f;
        fill-rule: evenodd;
      }
    </style>
  </defs>
  <path class="b" d="M0,96.99v192.67h110.74v-64.23c-12.63,12.35-31.47,24.25-57.15,24.25v-21.08c34.59,0,52.88-29.47,57.15-37.34v-17.84c-12.63,12.35-31.47,24.26-57.15,24.26v-21.09c34.59,0,52.88-29.47,57.15-37.34v-17.85c-12.63,12.35-31.47,24.26-57.15,24.26v-21.08c34.59,0,52.88-29.47,57.15-37.34v-25.98h21v25.98c4.27,7.87,22.56,37.34,57.14,37.34v21.08c-25.68,0-44.51-11.9-57.14-24.26v17.85c4.27,7.88,22.56,37.34,57.14,37.34v21.09c-25.68,0-44.51-11.91-57.14-24.26v17.84c4.27,7.88,22.56,37.34,57.14,37.34v21.08c-25.68,0-44.51-11.91-57.14-24.26v64.23h110.73V96.99L121.24,0,0,96.99h0Z"/>
</svg>