<?xml version="1.0" encoding="UTF-8"?>
<svg id="a" xmlns="http://www.w3.org/2000/svg" version="1.1" viewBox="0 0 386.1900024 389.7399902">
  <!-- Generator: Adobe Illustrator 29.5.1, SVG Export Plug-In . SVG Version: 2.1.0 Build 141)  -->
  <defs>
    <style>
      .st0 {
        fill: #b1632e;
      }
    </style>
  </defs>
  <path class="st0" d="M216.5800018,0c7.5599976,2.46,10.4199982,7.6199999,10.0599976,15.5299997-.4600067,10.1000013-.0800018,20.2400007-.1199951,30.3700018-.0299988,7.4199982-4.6300049,12.5999985-11.1300049,12.7000008-6.3800049.0999985-11.4199982-5.1500015-11.5200043-12.4399986-.1499939-11.1199989-.0200043-22.2399998-.0500031-33.3600006C203.7999878,6.0000029,207.7999878,2.3300028,213.5999908.0000029h2.9900055l-.0099945-.0000029Z"/>
  <path class="st0" d="M215.6300049,306.8599854c1.6799927,4.3500061,3.5,8.4400024,4.8600006,12.6700134,5.1499939,16.0899963-.3800049,33.519989-15.2299957,41.3699951-18.7299957,9.8900146-38.0700073,18.8099976-57.7400055,26.6300049-15.2200012,6.0499878-31.7600021-.7600098-40.7700043-14.6499939-3.1500015-4.8599854-5.75-10.0700073-8.9100037-15.6700134-2.6999969,1.1099854-5.5,2.3099976-8.3399963,3.4200134-14.5,5.6700134-28.7999992,11.9500122-43.5600014,16.8500061-27.3600006,9.0700073-53.0800018-17.2000122-44.1500015-43.6700134,6.9400005-20.5499878,14.7900009-40.8099976,22.7999992-60.9700012,23.6900024-59.6100006,47.5599976-119.1399994,71.6100006-178.6100006,6.4899979-16.0500031,19.0500031-24.8000031,36.2599945-26.3000031,22.0500031-1.9199982,42.0099945,5.2600021,60.7400055,15.8000031,46.9100037,26.4000015,83.0299835,63.2200012,105.5600128,112.4900055,6.8099976,14.8899994,10.8399963,30.6100006,8.769989,47.3699951-2.1499939,17.3500061-11.7999878,28.7600098-27.4700012,35.519989-20.2399902,8.730011-40.5400085,17.3500061-60.8000031,26.019989-1.1900024.5100098-2.3399963,1.1099854-3.6399994,1.7399902l.0100098-.0099792ZM99.6500015,147.2899933c-.4000015.7599945-.7200012,1.2599945-.9400024,1.8000031-24.0499954,60.1900024-48.1300011,120.3600159-72.0800018,180.5899963-1.7000008,4.269989-2.9599991,8.8500061-3.5400009,13.4100037-1.0400009,8.2000122,5.7399998,14.6900024,13.8100014,13.0700073,5.9599991-1.2000122,11.8899994-3.0799866,17.5-5.4500122,46.8800011-19.8200073,93.6800041-39.8200073,140.4999962-59.7900085,11.6499939-4.9700012,23.2700043-10,35.25-15.1400146-59.9199982-26.5099945-103.0199966-69.2399902-130.5-128.4799957l.0000076-.0099792ZM257.6000061,258.480011c20.5799866.1499939,28.8899841-7.4499969,27.5400085-23.9900055-.8200073-10.0399933-3.3500061-20.4600067-7.5-29.6300049-19.4299927-43.0299988-51.1499939-75.1399994-91.3800049-99.1100006-13.4700012-8.0200043-27.8099976-14-43.7299957-15.4300003-18.6299973-1.6699982-29.1399994,8.7600021-26.3300018,27.2099991,1.2099991,7.9599991,2.9599991,16.1399994,6.1999969,23.4499969,21.0599976,47.4900055,55.75,82.3000031,101.2899933,106.5899963,11.7799988,6.2799988,24.3000031,10.6100006,33.8999939,10.9099884l.0100098.0000305ZM194.6399994,315.6300049c-25.6600037,10.9899902-50.5800018,21.6600037-75.6999969,32.4100037,1.1399994,2.2900085,1.9800034,4.0799866,2.9100037,5.8099976,1.1800003,2.1900024,2.3399963,4.3999939,3.6999969,6.480011,3.6399994,5.5499878,9.4799957,8.230011,15.4700012,5.6099854,17.6100006-7.6900024,35.0500031-15.7799988,52.3600006-24.1300049,5.1999969-2.5100098,7.4900055-8.8399963,5.9499969-14.0799866-1.1499939-3.9299927-2.9400024-7.6700134-4.6799927-12.1000061h-.0100098Z"/>
  <path class="st0" d="M340.1099854,59.0900002c-1.3699951,2.5400009-2.2600098,5.5300026-4.1799927,7.5399971-8.019989,8.4000015-16.2600098,16.590004-24.5799866,24.6900024-4.8299866,4.6999969-11.5799866,4.6900024-16.0700073.3499985-4.5100098-4.3700027-4.7200012-11.1999969-.0400085-16.0400009,8.1900024-8.4700012,16.5599976-16.7600021,24.980011-25.0100021,3.6499939-3.5699997,8.0799866-4.5499992,12.8099976-2.2900009,4.2600098,2.0400009,6.4700012,5.5499992,7.0899963,10.75l-.0100098.010006Z"/>
  <path class="st0" d="M357.2200012,182.6900024c-5.7999878,0-11.6099854.1300049-17.4100037-.0299988-6.6600037-.1900024-11.230011-4.5399933-11.4700012-10.6100006-.2600098-6.3999939,4.0700073-11.5,10.8699951-11.6800079,12.0899963-.3099976,24.2099915-.3000031,36.2999878.0200043,6.6499939.1799927,10.7600098,4.9799957,10.6799927,11.3000031-.0799866,6.2400055-4.4400024,10.7200012-11.0700073,10.9400024-5.9599915.1999969-11.9400024.0399933-17.9100037.0399933v.0200043h.0100403Z"/>
</svg>