<?xml version="1.0" encoding="UTF-8"?>
<svg id="a" data-name="Layer 1" xmlns="http://www.w3.org/2000/svg" width="1144.37" height="1075.64" viewBox="0 0 1144.37 1075.64">
  <defs>
    <style>
      .b {
        fill: #b2642c;
      }
    </style>
  </defs>
  <path class="b" d="M25.32,404.11h1093.73c4.19,0,8.21-1.64,11.2-4.57,9.3-9.12,14.44-21.18,14.1-33.09-.31-10.8-5.1-20.79-13.5-28.12-.66-.58-1.37-1.1-2.11-1.56L588.1,2.39c-2.53-1.56-5.44-2.39-8.42-2.39h-14.98c-2.97,0-5.89.83-8.42,2.39L15.63,336.76c-.76.47-1.48,1-2.15,1.59C5.1,345.72.31,355.72.01,366.49c-.33,11.87,4.81,23.91,14.09,33.03,2.99,2.94,7.02,4.59,11.21,4.59ZM1127.76,372.98c.19-.84.33-1.69.44-2.53-.1.85-.25,1.69-.44,2.53ZM1127.58,361.63c-.23-.82-.5-1.63-.82-2.43.33.8.6,1.61.82,2.43ZM1120.33,350.36c.75.66,1.45,1.34,2.09,2.04-.64-.7-1.34-1.38-2.09-2.04l-356.59-220.53,356.59,220.53ZM564.7,16h14.98s-14.98,0-14.98,0h0ZM572.19,86.41l390.94,243.19H181.24l390.94-243.19ZM125.23,345.6h893.92s-893.92,0-893.92,0h0ZM25.32,388.11h1093.73c.68-.67,1.33-1.36,1.95-2.07-.62.71-1.27,1.4-1.95,2.07H25.32Z"/>
  <path class="b" d="M1137.27,1012.12c-4.81-8.54-12.37-13.43-20.75-13.43H27.85c-8.37,0-15.94,4.9-20.75,13.43-2.89,5.12-4.83,11.49-5.62,18.42-2.57,22.66,7.58,40.62,25.27,44.69,1.18.27,2.38.41,3.59.41h1083.68c1.21,0,2.41-.14,3.59-.41,17.69-4.07,27.84-22.03,25.27-44.69-.79-6.93-2.73-13.3-5.62-18.42ZM17.16,1035.09c.05-1.05.14-2.1.27-3.13-.13,1.03-.22,2.08-.27,3.13ZM1116.53,1014.69H27.85c-3.27,0-6.1,3.17-8.03,7.83-.57,1.37-1.06,2.87-1.46,4.46.4-1.59.89-3.09,1.46-4.46,1.93-4.66,4.76-7.83,8.03-7.83h1088.68c2.33,0,4.44,1.61,6.16,4.23-1.72-2.62-3.83-4.23-6.16-4.23Z"/>
  <path class="b" d="M164.91,480.38c-19.09,0-34.62,15.53-34.62,34.62v377.67c0,19.09,15.53,34.62,34.62,34.62h41.77c19.09,0,34.62-15.53,34.62-34.62v-377.67c0-19.09-15.53-34.62-34.62-34.62h-41.77ZM146.29,892.67h0c0,3.86,1.17,7.44,3.18,10.41-2.01-2.97-3.18-6.55-3.18-10.41ZM149.86,504.04c3.39-4.64,8.87-7.66,15.05-7.66-6.18,0-11.67,3.02-15.05,7.66ZM225.29,892.67h0c0,3.86-1.17,7.44-3.18,10.41,2.01-2.97,3.18-6.55,3.18-10.41Z"/>
  <path class="b" d="M680.1,480.38c-19.09,0-34.62,15.53-34.62,34.62v377.67c0,19.09,15.53,34.62,34.62,34.62h41.77c19.09,0,34.62-15.53,34.62-34.62v-377.67c0-19.09-15.53-34.62-34.62-34.62h-41.77ZM661.48,892.67h0c0,3.86,1.17,7.44,3.18,10.41-2.01-2.97-3.18-6.55-3.18-10.41ZM665.05,504.04c3.39-4.64,8.87-7.66,15.05-7.66-6.18,0-11.67,3.02-15.05,7.66ZM740.48,892.67h0c0,3.86-1.17,7.44-3.18,10.41,2.01-2.97,3.18-6.55,3.18-10.41Z"/>
  <path class="b" d="M422.51,480.38c-19.09,0-34.62,15.53-34.62,34.62v377.67c0,19.09,15.53,34.62,34.62,34.62h41.77c19.09,0,34.62-15.53,34.62-34.62v-377.67c0-19.09-15.53-34.62-34.62-34.62h-41.77ZM403.89,892.67h0c0,3.86,1.17,7.44,3.18,10.41-2.01-2.97-3.18-6.55-3.18-10.41ZM407.45,504.04c3.39-4.64,8.87-7.66,15.05-7.66-6.18,0-11.67,3.02-15.05,7.66ZM482.89,892.67h0c0,3.86-1.17,7.44-3.18,10.41,2.01-2.97,3.18-6.55,3.18-10.41Z"/>
  <path class="b" d="M937.7,480.38c-19.09,0-34.62,15.53-34.62,34.62v377.67c0,19.09,15.53,34.62,34.62,34.62h41.77c19.09,0,34.62-15.53,34.62-34.62v-377.67c0-19.09-15.53-34.62-34.62-34.62h-41.77ZM919.08,892.67h0c0,3.86,1.17,7.44,3.18,10.41-2.01-2.97-3.18-6.55-3.18-10.41ZM922.64,504.04c3.39-4.64,8.87-7.66,15.05-7.66-6.18,0-11.67,3.02-15.05,7.66ZM998.08,892.67h0c0,3.86-1.17,7.44-3.18,10.41,2.01-2.97,3.18-6.55,3.18-10.41Z"/>
</svg>