<?xml version="1.0" encoding="UTF-8"?>
<svg id="a" data-name="Layer 1" xmlns="http://www.w3.org/2000/svg" width="740.9" height="1130.16" viewBox="0 0 740.9 1130.16">
  <defs>
    <style>
      .b {
        fill: #b2642c;
      }
    </style>
  </defs>
  <path class="b" d="M368.46,20.01c.12,0,.25,0,.38,0,.17,0,.34,0,.51,0-.17,0-.36-.01-.53-.01-.13,0-.24.01-.36.01Z"/>
  <polygon class="b" points="264.18 1107.16 264.18 1107.16 264.18 1107.16 264.18 1107.16"/>
  <path class="b" d="M740.41,936.4l-1.13-2.64c-6.1-14.23-17.14-24.28-33.75-30.72-13.71-5.31-28.98-7.28-42.44-9.02-8.24-1.06-16.01-2.07-22.36-3.61-33.84-8.24-98.36-27.2-150.22-61.61-51.06-33.87-76.95-73.92-76.95-119.03v-45.99c14.35,10.65,29.97,20.46,46.58,29.26,27.71,14.67,58.57,26.78,91.74,35.99,22.18,6.16,62.4,16.5,82.6,16.5,1.46,0,2.87-.05,4.18-.15,11.32-.85,21.27-5.49,28.78-13.41,6.59-6.95,10.86-16.2,12.01-26.04,1.17-9.98-.89-20.15-5.81-28.63-5.59-9.65-14.35-16.6-25.31-20.09-10.92-3.48-23.86-5.6-37.57-7.84-10.97-1.79-22.3-3.65-31.36-6.12-19.24-5.25-68.44-20.62-109.79-49.98-37.2-26.42-56.06-55.54-56.06-86.57v-45.08c32.31,22.15,70.56,39.67,113.89,52.17l.33.1c24.83,7.16,52.47,14.48,69.26,14.48,2.42,0,4.6-.14,6.66-.43,15.59-2.17,28.68-12.12,35.02-26.62,6.48-14.82,4.85-31.56-4.35-44.78-7.71-11.09-23.57-16.11-70.53-26.55-9.44-2.1-18.36-4.08-22.48-5.37-41.46-13.01-73.55-30.33-95.38-51.49-12.18-11.81-21.12-24.91-26.56-38.94-1.84-4.75-3.31-9.7-4.4-14.8,11.11,6.33,23.43,12.63,35.73,18.23,20.16,9.19,58.21,24.61,86.45,24.61,8.21,0,15.47-1.29,21.58-3.83,13.83-5.75,23.27-19.47,24.63-35.81,1.43-17.13-6.02-32.99-19.42-41.4-10.2-6.4-26.72-10.42-44.21-14.68-11.52-2.81-23.42-5.7-30.63-8.68-17.48-7.22-36.29-18.94-50.31-31.34-11.53-10.19-25.27-25.59-25.27-41.05v-17.78c22.12,11.93,49.86,24.07,71.13,24.07,3.91,0,7.63-.4,11.05-1.18,11.09-2.54,20.54-10.08,26.63-21.24,5.56-10.19,7.55-22.04,5.45-32.53-5.07-25.39-33.17-33.67-51.77-39.15-5.11-1.51-9.93-2.93-12.83-4.2-16.04-7.07-36.65-20.33-44-32.72-2.07-3.49-3.31-9.32-4.63-15.49-1.89-8.83-3.84-17.97-9.14-26.38C398.12,7.17,386.41.69,371.61.06c-.94-.04-1.88-.06-2.79-.06-19.94,0-30.27,9.68-35.42,17.8-5.49,8.66-7.04,18.64-8.29,26.67-.7,4.53-1.37,8.8-2.46,11.56-5.06,12.74-27.95,29-47.15,37.36-3.19,1.39-7.94,2.79-12.97,4.28-10.69,3.16-22.81,6.74-32.9,13.65-14.89,10.19-21.64,25.45-18.98,42.98,2.3,15.22,10.02,23.74,16.1,28.21,7.49,5.51,16.88,8.3,27.91,8.3,15.74,0,35.74-5.83,59.44-17.32,3.61-1.75,7.28-3.62,10.97-5.59v23.61c0,9.89-9.12,22.82-25.68,36.41-14.8,12.15-34.19,23.62-51.87,30.68-4.83,1.93-13.4,4.23-22.48,6.66-31.38,8.4-52.63,14.97-61.81,29.17-7.27,11.24-9.34,25.63-5.54,38.5,3.41,11.57,11.09,20.55,21.61,25.28,6.15,2.77,13.31,4.12,21.89,4.12,28.37,0,66.68-15.22,87-24.3,7.66-3.42,21.08-9.71,35.11-17.65-1.07,4.69-2.46,9.26-4.18,13.65-5.47,14.04-14.44,27.17-26.64,39.02-21.93,21.3-53.96,38.65-95.2,51.58-7.27,2.28-19.1,4.57-30.53,6.78-19.27,3.73-37.46,7.25-48.33,12.9-16.65,8.66-25.28,26.57-22,45.63,3.45,20.01,18.93,35.29,38.52,38.01,2.09.29,4.3.43,6.75.43,16.11,0,41.03-6.61,63.12-12.8l.23-.06c1.29-.36,2.49-.7,3.59-1,44.55-12.37,83.66-30.06,116.45-52.63v50.89c0,14.06-5.12,28.25-15.21,42.18-9.62,13.27-23.64,26.3-41.7,38.74-43.3,29.84-92.59,45.04-106.66,48.99-6.89,1.93-18.05,3.95-28.85,5.89-19.42,3.5-37.75,6.81-48.63,12.03-17.45,8.37-27.45,27.19-24.89,46.81,2.4,18.35,15.05,32.31,32.24,35.57,4.29.81,9.19,1.23,14.56,1.23,42.11,0,116.41-25.65,143.84-37.35,27.76-11.84,53.04-26.22,75.3-42.81v54.83c0,20.92-7.24,41.28-21.52,60.52-13.2,17.79-32.43,34.82-57.14,50.62-55.86,35.71-120.72,53.72-146.01,59.81-7,1.68-16.94,3.09-27.47,4.58-18.11,2.56-35.21,4.99-46.92,9.84-14.97,6.21-24.91,20.74-25.92,37.93-1.03,17.52,7.15,33.35,21.36,41.31,6.53,3.66,15.02,5.44,25.96,5.44,16.65,0,36.94-4.04,50.37-6.72l.08-.02c2.06-.41,3.94-.78,5.57-1.1,49.86-9.5,96.17-24.34,137.64-44.1,31.26-14.9,59.46-32.52,84.01-52.49v152.3h-63.35c-11.03,0-20.73,6.89-26.92,12.67-4.62,4.31-12.69,13.12-14.87,23.7-3.43,16.65,1.84,28.11,6.87,34.79,8.97,11.92,24.23,18.79,45.37,20.43,15.29,1.19,31.97,1.76,50.99,1.76,23.19,0,47-.86,70.02-1.69,22.42-.81,45.59-1.64,67.52-1.64,6.08,0,11.96.06,17.48.19l1.79.04.77.02.75-.18,1.75-.41c15.8-3.73,24.36-12.42,28.75-19.06,5.57-8.42,7.96-18.9,6.73-29.5-1.18-10.1-5.48-19.77-12.14-27.23-7.98-8.96-18.51-13.89-29.66-13.89h-63.35v-152.8c23.45,18.94,49.81,35.64,78.52,49.73,38.55,18.93,82.5,33.78,130.62,44.15,3.37.73,7.43,1.73,11.73,2.8,15.28,3.79,34.3,8.51,52.08,8.51,12.54,0,22.83-2.31,31.45-7.05,11.3-6.22,19.02-16.44,22.34-29.55l.43-1.69.18-.72v-12.65l-.48-1.13ZM671.73,687.61c-.34-1.02-.71-2.02-1.13-3,.42.98.79,1.99,1.13,3ZM634.46,725.53c-.13,0-.26,0-.4,0,.37,0,.74,0,1.09,0-.23,0-.46,0-.69,0ZM649.95,680.21c.34.25.69.5,1.01.77.33.27.65.56.96.85.11.1.24.2.35.31-.41-.4-.85-.78-1.31-1.15-.46-.37-.93-.73-1.41-1.07.14.1.27.2.4.31ZM646.93,678.28s-.01,0-.02-.01c-.14-.08-.28-.15-.42-.23.15.08.29.16.44.24ZM645.64,677.62c.23.11.47.22.7.34,0,0,0,0,0,0-.24-.13-.5-.24-.75-.36.02,0,.03.02.05.02ZM645.56,677.58s-.03-.02-.05-.02c-.05-.02-.09-.04-.14-.07.06.03.13.06.19.09ZM648.69,737.22c1.1-.39,2.17-.83,3.22-1.31-1.05.49-2.12.92-3.22,1.31-1.1.39-2.22.73-3.36,1.02,1.14-.29,2.26-.63,3.36-1.02ZM644.24,677c.27.11.54.22.8.33,0,0,0,0,0,0-.29-.13-.58-.25-.88-.37.03.01.05.02.08.03ZM642.26,676.27s.08.03.12.04c.05.02.09.03.14.05.39.13.79.26,1.17.41,0,0,0,0,0,0-.46-.18-.94-.35-1.43-.5-.57-.18-1.14-.36-1.73-.53-.59-.17-1.18-.34-1.79-.51,1.21.34,2.39.68,3.52,1.04ZM640.04,739.23c-.6.07-1.21.13-1.82.18-.58.04-1.18.08-1.81.1.62-.02,1.23-.05,1.81-.1.61-.05,1.22-.1,1.82-.18ZM636.49,674.63c-2.26-.58-4.63-1.12-7.09-1.63,2.46.51,4.83,1.06,7.09,1.63ZM547.38,721.52c-4.06-1.18-8.08-2.41-12.06-3.68,3.98,1.27,8,2.5,12.06,3.68ZM633.22,498.91c.26-.6.51-1.21.75-1.82-.23.61-.48,1.22-.75,1.82-.26.59-.53,1.17-.81,1.74.28-.57.55-1.15.81-1.74ZM612.42,464.07c-.2-.09-.4-.19-.6-.28.01,0,.02.01.03.02.19.09.39.18.57.27ZM611.84,463.8s-.02-.01-.03-.02c-.11-.05-.22-.1-.34-.16.13.06.25.11.37.17ZM611.43,463.61s0,0,0,0c-.21-.09-.43-.19-.65-.28.04.02.07.03.1.05.18.08.36.16.54.24ZM610.85,463.36s-.07-.03-.11-.05c-.08-.03-.15-.07-.23-.1.11.05.22.1.34.15ZM609.85,462.93c.19.08.38.16.57.24,0,0,0,0,0,0-.23-.1-.47-.2-.71-.29.05.02.09.04.14.06ZM609.35,462.72s0,0,0,0c-.19-.08-.39-.15-.58-.23.2.08.39.15.58.23ZM608.6,462.43s-.05-.02-.08-.03c-.1-.04-.2-.08-.3-.12.13.05.25.1.38.15ZM597.87,508.35s0,0,0,0c0,0,0,0,0,0-.14,0-.28,0-.42,0,.14,0,.27,0,.41,0h0ZM597.86,508.35c-.23,0-.46,0-.7,0-.17,0-.34,0-.51,0,0,0,0,0,0,0,.41,0,.82,0,1.21,0ZM543.32,445.82c-.35-.09-.69-.17-1.03-.25-.04,0-.08-.02-.12-.03.38.09.76.19,1.15.28ZM541.7,445.42s0,0,0,0c-.51-.13-1-.25-1.48-.37.48.12.98.25,1.49.38ZM529.44,508.12c1.53.44,3.06.88,4.61,1.32-1.54-.44-3.08-.88-4.61-1.32l-.17-.05.17.05ZM552.13,297.41c.4.22.77.44,1.13.66.03.02.07.04.11.06,0,0,0,0,0,0,.68.43,1.33.89,1.94,1.39-.61-.5-1.26-.97-1.95-1.4-.39-.24-.8-.49-1.24-.73,0,0,0,0,0,0ZM550.77,296.69c.3.15.58.3.87.45.02,0,.04.02.06.03-.3-.16-.6-.32-.92-.48,0,0,0,0,0,0ZM550.77,296.69s0,0,0,0c-.18-.09-.38-.18-.57-.27,0,0-.01,0-.02,0,.2.09.4.19.59.28ZM550.16,296.4s.01,0,.02,0c-.2-.1-.42-.19-.63-.29.2.09.41.19.61.28ZM537.8,342.22c-.22,0-.44,0-.67,0-.17,0-.34,0-.52,0,.4,0,.79,0,1.19,0ZM486.86,263.37c7.63,3.15,19.76,6.11,31.5,8.97,1.06.26,2.12.52,3.18.77-1.05-.26-2.11-.52-3.18-.77-11.73-2.86-23.86-5.81-31.5-8.97-.77-.32-1.55-.65-2.34-.99.79.34,1.56.67,2.34.99ZM437.81,324.77c-3.02-1.52-6-3.05-8.92-4.6,2.91,1.55,5.89,3.08,8.92,4.6ZM507.76,138.95c.18.56.33,1.14.45,1.74.14.72.25,1.46.32,2.21-.07-.75-.18-1.49-.32-2.21-.12-.59-.27-1.17-.45-1.74,0,0,0,0,0,0ZM507.55,138.41s0,.02.01.03c-.11-.3-.22-.59-.33-.88.11.28.22.56.32.84ZM506.98,137.01c-.05-.1-.1-.2-.15-.3,0,0,0-.02-.01-.02.05.11.11.21.16.32ZM506.81,136.67s0,.02.01.02c-.1-.21-.22-.41-.33-.61.1.2.22.39.32.58ZM492.22,170.78c-.31.09-.63.19-.95.27-.67.15-1.38.27-2.1.37.72-.1,1.42-.22,2.1-.37.32-.07.63-.17.95-.27ZM490.38,123.58c-1.56-.68-3.17-1.32-4.82-1.93,1.64.61,3.26,1.25,4.82,1.93ZM486.34,171.68c-.46.02-.94.03-1.42.03-.25,0-.5,0-.76,0,.17,0,.35.02.52.02.56,0,1.11-.01,1.66-.04,0,0,0,0,0,0-.55.02-1.1.04-1.66.04-.17,0-.35-.01-.52-.02.74,0,1.47,0,2.17-.02ZM233.02,116.26c-.43.29-.86.6-1.29.91.43-.32.86-.62,1.29-.91,1.75-1.19,3.57-2.29,5.46-3.29-1.89,1.01-3.71,2.1-5.46,3.29ZM240.3,128.26c.26-.19.54-.37.81-.55.19-.13.37-.26.55-.38-.47.3-.92.61-1.37.93ZM254.66,170.79c-.1,0-.19,0-.28,0h0c.09,0,.18,0,.28,0,.14,0,.28-.01.42-.01-.2,0-.4,0-.6,0-.03,0-.07,0-.1,0,.23,0,.46,0,.7,0-.14,0-.28.01-.42.01ZM266.17,102.84c-.64.19-1.29.38-1.94.57-1.6.47-3.24.96-4.9,1.46,1.66-.5,3.29-.99,4.9-1.46.65-.19,1.3-.38,1.94-.57,1.28-.38,2.53-.76,3.74-1.13-1.21.38-2.46.75-3.74,1.13ZM283.48,111.72c-.71.31-1.46.61-2.22.9.77-.29,1.51-.59,2.22-.9.65-.28,1.3-.57,1.97-.88-.67.3-1.32.6-1.97.88ZM277.9,98.89c-.44.19-.9.38-1.39.57.48-.19.95-.38,1.39-.57,2.51-1.09,5.08-2.31,7.68-3.65-2.6,1.33-5.17,2.56-7.68,3.65ZM287.48,109.9c.69-.33,1.38-.66,2.09-1.01.7-.35,1.41-.71,2.13-1.07-1.44.74-2.84,1.43-4.22,2.08ZM311.48,168.07c-1.43.69-2.84,1.37-4.25,2.02,1.4-.65,2.82-1.32,4.25-2.02.86-.42,1.72-.84,2.58-1.27-.85.42-1.71.85-2.58,1.27ZM256.39,276.57c-.49.2-.98.4-1.45.59-.58.23-1.18.46-1.81.69.63-.23,1.23-.46,1.81-.69.48-.19.96-.39,1.45-.59ZM249.74,264.15c1.6-.64,3.23-1.32,4.88-2.04-1.65.72-3.28,1.4-4.88,2.04-.56.23-1.17.45-1.82.69.65-.23,1.25-.46,1.82-.69ZM201.58,342.31c-.13,0-.26,0-.39,0,.13,0,.26,0,.39,0h0ZM201.57,342.31c-.07,0-.14,0-.21,0-.31,0-.61,0-.91,0,0,0,0,0,0,0,.37,0,.75,0,1.13,0ZM285.74,332.53c-19.88,8.88-57.3,23.78-84.55,23.78-4.82,0-9.1-.46-12.95-1.39,3.85.93,8.14,1.39,12.95,1.39,27.25,0,64.67-14.9,84.55-23.78,1.81-.81,3.65-1.65,5.52-2.52-1.87.87-3.72,1.71-5.52,2.52ZM102.33,488.9c-.27-1.54-.44-3.07-.53-4.59.09,1.52.26,3.05.53,4.59.12.71.26,1.42.42,2.12-.16-.7-.3-1.41-.42-2.12ZM141.97,508.36s-.07,0-.11,0c.03,0,.07,0,.1,0-.14,0-.28,0-.42,0-.32,0-.63,0-.93-.01.44.01.9.01,1.36,0ZM140.61,508.36c.17,0,.36,0,.53,0-.18,0-.37,0-.54,0,0,0,0,0,0,0ZM141.69,522.37c-2.17,0-4.1-.12-5.92-.38,1.81.25,3.75.38,5.92.38.96,0,1.95-.03,2.98-.07-1.03.05-2.02.07-2.98.07ZM167.88,437.29c-3.53.68-7.02,1.36-10.43,2.04,3.41-.68,6.91-1.36,10.43-2.04.73-.14,1.45-.28,2.18-.42-.73.14-1.45.28-2.18.42ZM203.18,509.79c-4.07,1.14-8.24,2.3-12.42,3.42,4.18-1.12,8.35-2.28,12.42-3.42,1.38-.39,2.67-.75,3.83-1.07-1.17.32-2.45.68-3.83,1.07ZM203.27,495.23c-.25.07-.52.15-.79.22-.16.05-.32.09-.49.14-.44.12-.9.25-1.36.38.93-.26,1.82-.51,2.64-.74,5.17-1.44,10.33-2.97,15.46-4.59-5.13,1.62-10.29,3.15-15.46,4.59ZM296.65,377.34c-2.65,2.57-5.44,5.09-8.37,7.55,2.93-2.46,5.72-4.97,8.37-7.55.8-.78,1.59-1.56,2.37-2.35-.78.79-1.56,1.57-2.37,2.35ZM65.08,706.63c-.21-1.6-.32-3.19-.34-4.77.02,1.58.13,3.17.34,4.77.24,1.84.6,3.64,1.07,5.37-.47-1.73-.83-3.52-1.07-5.37ZM79.49,707.63c-.16-.64-.29-1.29-.4-1.94.22,1.31.53,2.59.94,3.83-.2-.62-.39-1.25-.54-1.89ZM107.51,673.92c-.76.18-1.51.37-2.25.55s-1.45.37-2.15.56c1.4-.38,2.87-.75,4.4-1.11ZM106.8,724.2c-.32,0-.64,0-.95,0-.04,0-.07,0-.11,0,0,0,0,0,0,0,.35,0,.7,0,1.06,0ZM97.31,676.78c-.44.15-.86.3-1.28.45s-.81.3-1.2.46c.77-.31,1.6-.61,2.48-.91ZM95.1,723.33s0,0,0,0c0,0,0,0,0,0,0,0,0,0,0,0ZM89.96,680.14c.43-.27.86-.54,1.32-.79.45-.25.92-.49,1.39-.72.33-.16.68-.32,1.04-.47-.36.16-.71.31-1.04.47-.95.46-1.86.96-2.71,1.51ZM105.92,738.21c-5,0-9.52-.38-13.44-1.12,3.92.74,8.44,1.12,13.44,1.12,5.43,0,11.42-.44,17.78-1.23-6.36.79-12.35,1.23-17.78,1.23ZM161,649.02c.74-.19,1.45-.38,2.12-.57.45-.13.93-.26,1.44-.41-.52.15-1,.28-1.44.41-.67.19-1.38.38-2.12.57ZM164.23,662.64c.23-.06.45-.12.68-.18.23-.06.46-.12.68-.18-.45.12-.9.24-1.36.35ZM47.4,968.92s.02,0,.03,0h0s-.02,0-.03,0ZM73.77,900.33c-6.64.94-13.15,1.86-19.27,2.89,6.12-1.03,12.62-1.95,19.27-2.89,2.67-.38,5.3-.75,7.86-1.12-2.56.37-5.19.75-7.86,1.12ZM102.3,975.2c-.83.16-1.73.33-2.68.52.95-.19,1.85-.36,2.68-.52,11.57-2.2,22.94-4.7,34.1-7.48-11.16,2.78-22.54,5.27-34.1,7.48ZM256.08,1104.94c-.43-.15-.84-.32-1.26-.49.42.16.83.33,1.26.49,0,0,0,0,0,0ZM257.49,1105.43c.4.13.8.25,1.2.37,0,0,0,0,0,0-.4-.12-.8-.24-1.2-.37ZM258.69,1105.8s0,0,0,0c.19.06.38.11.56.17-.19-.06-.38-.11-.57-.17ZM261.39,1106.54c-.49-.12-.98-.24-1.46-.37.49.13.98.25,1.47.37,0,0,0,0,0,0ZM261.82,1106.65c.25.06.51.13.77.19,0,0,0,0,0,0-.26-.06-.51-.12-.77-.19ZM264.17,1107.16h0s-.01,0-.02,0c-.52-.1-1.05-.21-1.57-.32h0c.53.12,1.06.22,1.59.33,0,0,0,0,.01,0,.29.06.58.12.87.17-.3-.06-.59-.12-.89-.18ZM265.35,1107.39s0,0,0,0c.57.1,1.14.19,1.71.28-.01,0-.03,0-.04,0-.56-.09-1.11-.17-1.66-.27ZM267.03,1107.67s.03,0,.04,0c.21.03.42.07.62.1-.22-.04-.44-.07-.66-.11ZM270.02,1108.08s-.02,0-.03,0c-.62-.07-1.24-.15-1.85-.23,0,0,0,0,0,0,.64.09,1.28.17,1.92.24-.01,0-.02,0-.03,0ZM273.72,1108.46c-.92-.07-1.85-.16-2.79-.26.93.1,1.86.19,2.79.26,2.03.16,4.07.3,6.11.44-2.04-.13-4.08-.28-6.11-.43ZM323.42,1110.16c-1.08,0-2.16,0-3.24,0,1.12,0,2.25,0,3.37,0h-.14ZM331.07,512.77c0,1.08-.03,2.16-.08,3.24.05-1.08.08-2.16.08-3.24h0ZM331.29,308.64c-1.78,1.11-3.6,2.22-5.45,3.31,1.85-1.1,3.67-2.2,5.45-3.31h0ZM328.78,159.01c.77-.43,1.53-.87,2.29-1.3h0c-.75.43-1.52.86-2.29,1.3ZM331.04,45.39c-.09.61-.19,1.21-.28,1.81.09-.6.19-1.2.28-1.81.23-1.47.46-2.99.73-4.52-.26,1.53-.5,3.04-.73,4.52ZM342.04,534.58c-.07.24-.15.48-.22.73.16-.56.31-1.12.47-1.68-.08.32-.16.64-.25.95ZM345.07,420.32c-1.24,1.15-2.48,2.29-3.74,3.41-1.26,1.12-2.52,2.24-3.8,3.34,2.55-2.2,5.07-4.45,7.54-6.75h0ZM368.46,20.01c.12,0,.24-.01.36-.01.17,0,.35,0,.53.01-.3,0-.6,0-.89,0ZM370.78,20.04s0,0,0,0c.14,0,.26.02.39.03-.13,0-.25-.02-.38-.03ZM511.88,1073.68c-.51-2.17-1.18-4.3-2.01-6.36.83,2.06,1.5,4.19,2.01,6.36ZM419.71,863.12c1.29,1.1,2.58,2.19,3.89,3.27,0,0,0,0,0,0,.77.64,1.56,1.26,2.34,1.89,0,0,.01.01.02.02.86.69,1.72,1.37,2.58,2.06-.85-.68-1.7-1.35-2.55-2.03,0,0-.01-.01-.02-.02h0c-.79-.64-1.59-1.27-2.38-1.92,0,0,0,0,0,0,0,0,0,0,0,0t0,0s0,0,0,0c-1.29-1.06-2.57-2.15-3.85-3.23-.01-.01-.03-.02-.04-.04h0s0,0,0,0ZM418.6,862.19c-.28-.23-.55-.46-.83-.69,0,0,0,0,0,0,.27.23.55.46.82.69ZM417.77,861.49s0,0,0,0c-1.88-1.62-3.75-3.26-5.6-4.92,0,0,0,0,0,0,1.85,1.66,3.72,3.3,5.6,4.92ZM407.56,449.98c1.58,1.17,3.17,2.33,4.78,3.48-1.61-1.15-3.21-2.31-4.78-3.48h0ZM407.56,506.7c0,2.71.13,5.41.4,8.09-.27-2.68-.4-5.38-.4-8.09h0ZM407.56,651.58c2.08,1.67,4.19,3.32,6.33,4.95-2.14-1.63-4.25-3.28-6.33-4.95h0ZM393.56,620.36h0c2,1.99,4.04,3.95,6.1,5.88-2.06-1.93-4.1-3.88-6.1-5.88ZM397.89,843.01s0,0,0,0c-1.27-1.28-2.53-2.57-3.78-3.87-.12-.12-.24-.24-.35-.36,1.37,1.43,2.75,2.84,4.14,4.24ZM399.24,844.35s.03.03.05.05c-.14-.14-.29-.28-.43-.43.13.12.25.25.38.37ZM399.29,844.4c1.02,1.01,2.03,2.02,3.05,3.02-1.01-.98-2.01-1.97-3-2.97-.02-.02-.03-.03-.05-.05ZM402.16,427.83s.01,0,.02.01c-.73-.61-1.47-1.2-2.18-1.82,0,0,0,0,0,0,.71.61,1.45,1.2,2.17,1.81ZM399.99,426.02s0,0,0,0c-2.12-1.83-4.22-3.69-6.29-5.58-.04-.04-.09-.08-.13-.12h0c2.11,1.94,4.26,3.84,6.43,5.7ZM393.56,132.39c.63.42,1.29.86,1.97,1.32-.68-.45-1.34-.89-1.97-1.32h0ZM393.59,280.91h0c-.16,1.42-.29,2.83-.4,4.23.11-1.4.25-2.81.4-4.23ZM422.72,1121.47c-9.96.29-19.93.65-29.76,1,9.83-.35,19.8-.71,29.76-1ZM412.39,875.27c6.84,5.72,13.94,11.25,21.29,16.56-7.35-5.31-14.45-10.83-21.29-16.56ZM460.29,892.99c2.88,1.84,5.78,3.64,8.71,5.4-2.93-1.76-5.83-3.56-8.71-5.4ZM487.19,833.8c-1.86-1.23-3.68-2.47-5.48-3.72,1.79,1.25,3.62,2.49,5.48,3.72,1.64,1.09,3.3,2.17,4.97,3.23-1.67-1.06-3.32-2.14-4.97-3.23ZM627.74,958.52c.15.03.31.07.46.1.53.12,1.05.23,1.6.36-.71-.16-1.38-.31-2.06-.46ZM639.31,896.24c-4.28-1.04-9.04-2.25-14.2-3.64-2.58-.7-5.26-1.44-8.03-2.22,2.77.79,5.45,1.53,8.03,2.22,5.16,1.39,9.93,2.6,14.2,3.64,2.5.61,5.18,1.13,8,1.61-2.82-.48-5.5-1-8-1.61ZM686.46,969.19s-.05,0-.08,0c.29,0,.59,0,.88,0-.27,0-.53,0-.8,0ZM715.06,976.89c-.96.53-1.95,1.03-2.97,1.49,1.02-.46,2.01-.96,2.97-1.49,2.3-1.27,4.43-2.72,6.38-4.36-1.95,1.64-4.08,3.1-6.38,4.36Z"/>
  <path class="b" d="M202.17,495.54c.1-.03.2-.06.31-.09.27-.07.54-.15.79-.22-.35.1-.72.2-1.1.31Z"/>
  <path class="b" d="M425.98,868.31s0,0-.01,0c0,0,0,0,0,0,0,0,.01.01.02.02Z"/>
  <path class="b" d="M642.45,676.33s-.05-.02-.07-.02c-.04-.01-.08-.03-.12-.04.06.02.13.05.19.07Z"/>
</svg>