<?xml version="1.0" encoding="UTF-8"?>
<svg id="Layer_1" xmlns="http://www.w3.org/2000/svg" version="1.1" viewBox="0 0 32 32">
  <!-- Generator: Adobe Illustrator 29.5.1, SVG Export Plug-In . SVG Version: 2.1.0 Build 141)  -->
  <defs>
    <style>
      .st0 {
        fill: #b1632e;
      }
    </style>
  </defs>
  <path class="st0" d="M16,3c-7.1797018,0-13,5.8202982-13,13s5.8202982,13,13,13,13-5.8202991,13-13c-.0075779-7.1765594-5.8234406-12.9924212-13-13ZM16,27c-6.0751324,0-11-4.9248676-11-11s4.9248676-11,11-11,11,4.9248676,11,11c-.0068893,6.0722771-4.9277229,10.9931107-11,11ZM24,16c0,.5522842-.4477158,1-1,1h-7c-.5522852,0-1-.4477158-1-1v-7c0-.5522852.4477148-1,1-1,.5522842,0,1,.4477148,1,1v6h6c.5522842,0,1,.4477148,1,1Z"/>
</svg>