<?xml version="1.0" encoding="UTF-8"?>
<svg id="Layer_1" data-name="Layer 1" xmlns="http://www.w3.org/2000/svg" version="1.1" viewBox="0 0 512 512">
  <defs>
    <style>
      .cls-1 {
        fill: white;
        stroke-width: 0px;
      }
    </style>
  </defs>
  <path class="cls-1" d="M341.3,512c-17.7,0-35.2-4.3-50.8-12.8-39.5,18.6-85.6,16.3-123-6.2-49.1,33.2-115.8,20.2-149-28.9-16.5-24.5-22.2-54.8-15.6-83.7,9.1-39,39.5-69.5,78.4-78.7,18-4.3,36.7-3.9,54.5,1,45.7-54.6,127-61.9,181.6-16.2,4.7,3.9,9.1,8.1,13.1,12.7,37.5-3.7,74.2,12.6,96.7,42.8,10.8-1.5,21.8-.6,32.2,2.5h0c24.6,7.4,43.6,27.1,50.1,51.9,10.8,39.8-12.7,80.8-52.5,91.6-15.1,4.1-31.1,3.3-45.8-2.2-19.4,17-44.2,26.2-69.9,26.2ZM71.6,260.1c16.1-3.8,32.8-4.9,49.3-3.4,64.7-57.1,161.8-57.4,226.8-.5,36.9,1.6,72,16.8,98.4,42.7,8.6.7,17.1,2.2,25.4,4.7,11.4,3.4,22.1,8.6,31.9,15.4,23.1-54-1.9-116.5-55.9-139.7-6.6-2.8-13.4-5-20.4-6.4-17-3.7-34.6-3-51.2,2-45.3-54.4-126.1-61.8-180.5-16.5-11.9,9.9-21.9,21.8-29.5,35.3-46.3-9-91.2,21.2-100.2,67.5,0,.3,0,.5,0,.8h0c2-.6,3.9-1.4,6-1.9ZM30.8,230c18.6-47,63.2-78.7,113.7-80.7,59.3-73.5,167-84.9,240.5-25.6,2,1.6,3.9,3.2,5.8,4.9,15.1-1.5,30.4-.7,45.2,2.5,19.4,4.2,37.8,12.1,54.1,23.5v-.2c.1,0,.4-.2.4-.2,2.7-35.2-23.6-65.9-58.8-68.7-24.7-36.9-71.4-52.2-113.1-36.9C280-3.7,206.3-14.7,154,23.9c-15.2,11.2-27.4,25.9-35.7,42.8-15.1-3.7-30.9-3.7-46,0C20.8,80.6-9.8,133.4,3.9,184.8c4.6,17.3,13.8,32.9,26.9,45.2h0Z"/>
</svg>