<?xml version="1.0" encoding="UTF-8"?>
<svg id="a" data-name="Layer 1" xmlns="http://www.w3.org/2000/svg" width="741.02" height="839.54" viewBox="0 0 741.02 839.54">
  <defs>
    <style>
      .b {
        fill: #fff;
      }
    </style>
  </defs>
  <path class="b" d="M382.05,0c47.79,9.26,76.29,59.45,55.7,104.91,153.97,26.53,277.69,156.31,299.52,310.96,35.19,249.25-182.86,461.17-430.88,418.08-145.33-25.24-264.54-139.34-297.05-283.08L.35,495.1c.81-17.21-1.09-35.37,0-52.46,1.07-16.66,5.18-38.84,8.99-55.76C41.34,244.77,159.71,129.8,303.42,104.91c-21.32-42.08,9.27-98.99,55.7-104.91h22.94ZM388.05,56.3c-22.61-22.63-57.53,12.32-34.92,34.95,22.61,22.63,57.53-12.32,34.92-34.95ZM352.23,148.03c-242.66,14.88-384.49,285.68-252.63,492.84,128.93,202.56,427.24,197.42,548.13-10.23,128.32-220.42-41.51-498.18-295.5-482.61Z"/>
  <path class="b" d="M348.96,198.86c219.83-16.07,367.98,222.1,252.31,411.51-101.12,165.57-339.47,172.98-451.53,14.77-120.77-170.5-8.18-411.11,199.23-426.28ZM346.01,249.19c-101.07,10.51-184.63,93.83-194.95,195.09h28.67c9.96,0,19.2,15.92,18.97,25.41-.22,8.86-9.79,23.77-18.97,23.77h-28.67c10.32,101.33,93.89,184.49,194.95,195.09v-28.69c0-9.97,15.91-19.22,25.39-18.98,8.85.22,23.76,9.8,23.76,18.98v28.69c101.26-10.46,184.41-93.86,194.95-195.09h-28.67c-9.96,0-19.2-15.92-18.97-25.41.22-8.86,9.79-23.77,18.97-23.77h28.67c-10.53-101.16-93.7-184.74-194.95-195.09v28.69c0,9.97-15.91,19.22-25.39,18.98-8.85-.22-23.76-9.8-23.76-18.98v-28.69Z"/>
  <path class="b" d="M471.78,339.67c16.34-1.59,29.04,11.87,27.91,27.93l-75.81,152.14c-45.79,29.56-97.82,49.35-145.81,75.4-19.67,10.24-42.99-8.79-34.88-30.01l74.11-147.15c49.66-28.79,102.59-53.27,154.48-78.33ZM418.09,421.34l-63.92,31.92-31.08,63.15,63.92-31.92,31.08-63.15Z"/>
</svg>