<?xml version="1.0" encoding="UTF-8"?>
<svg id="a" data-name="Layer 1" xmlns="http://www.w3.org/2000/svg" width="1015.71" height="1029.4" viewBox="0 0 1015.71 1029.4">
  <defs>
    <style>
      .b {
        fill: #fff;
      }
    </style>
  </defs>
  <path class="b" d="M0,452.31c17.3-23.9,37.85-19.71,49.48,6.53,12.76,28.77,21.27,65.76,31.59,95.92,3.51-.6,4.62-4.37,5.94-7.14,13.86-29.11,21.12-72.53,36.46-99.37,8.62-15.08,32.69-14.46,40.66.83l36.13,108.06c3.38-.27,3.75-3.5,4.83-5.86,14.85-32.35,21.84-72.6,38-104.98,7.9-10.88,29.07-12.07,36.94-1.09,8.54,11.9.49,27.11-3.47,39.31-14.29,43.95-34.23,86.34-48.27,130.45-11.85,19.35-37.94,21.47-49.98,1.02-14.24-24.2-22.07-69.72-32.93-96.97-6.2-1.1-3.68.89-4.96,3.39-12.34,24.12-23.01,80.12-37.9,97.9-12.89,15.39-38.01,12.36-46.49-5.99L0,466.61v-14.3Z"/>
  <path class="b" d="M531.57,1028.92c-6.48.67-17.3.6-23.84,0-7.43-.68-22.72-4.34-30.46-6.48-18.63-5.15-44.8-18.46-30.21-41.06,11.2-17.35,33,2.22,48.64,5.96,14.19,3.39,48.66,6.51,55.16-9.57,4.18-10.35-1.56-14.57-10.48-18.4-38.84-16.71-99.27-8.54-92.24-72.22,6.35-57.47,106.86-67.19,141.48-34.19,12.15,11.58,8.88,37-11.55,35.53-14.91-1.07-26.82-15.48-50.08-15.45-21.68.03-48.78,17.06-22.69,30.84,29.64,15.64,92.11,9.98,95.48,59.43,2.8,40.98-32.88,61.87-69.22,65.62Z"/>
  <path class="b" d="M526.24,366.99c11.51-1.68,20.34,3.74,26.38,13.05l126.42,240.55c10.91,16.74-2.41,41.47-22.33,41.43-13.62-.03-76.35-40.16-94.1-48.93-13.01-6.43-27.56-17.57-42.3-11.19l-112.09,59.65c-22.36,2.14-39.58-21.18-26.46-40.91,43.45-73.19,76.44-157.92,119.98-230.32,5.78-9.62,12.1-21.52,24.51-23.32Z"/>
  <path class="b" d="M693,100.23c16.96-3.5,40.28,9.32,55.53,17.26,84.24,43.9,168.97,130.48,205.36,218.84,7.82,18.97,17.44,43.94-7.55,55.23-40.5,18.3-51.84-39.48-67.22-66.26-35.06-61.05-91.64-115.29-152.88-149.79-13.16-7.42-41.64-16.31-49.3-26.97-12.31-17.14-5.01-43.96,16.05-48.31Z"/>
  <path class="b" d="M926.67,662.48c21.01-3.5,39.01,14.86,35.84,35.83-1.89,12.53-18.52,43.4-25.31,55.82-40.75,74.56-108.85,142.92-183.9,183.11-20.96,11.23-62.22,35.89-78.39,6.78-21.12-38.03,27.82-48.81,51.33-62.41,57.61-33.33,108.31-78.28,143.86-134.98,11.79-18.8,27.51-61.01,38.46-73.54,4.26-4.87,11.75-9.54,18.1-10.6Z"/>
  <path class="b" d="M394.89,151.29c-8.97,8.89-38.03,19.19-50.85,26.61-57.76,33.43-107.26,79.54-142.41,136.42-10.31,16.68-29.95,65.19-40.74,73.65-25.8,20.22-55.63-3.71-47.74-35.8,14.05-57.1,92.58-148.64,138.39-185.71,21.8-17.64,90.99-64.13,116.69-66.86,29.72-3.15,46.64,31.9,26.66,51.69Z"/>
  <path class="b" d="M137.67,662.51c32.04-4.67,42.34,42.73,55,65.41,31.89,57.12,79.64,106.86,135.04,141.41,15.67,9.78,62.95,30.16,70.38,41.64,16.35,25.26-6.42,51.64-35.91,45.41-29.1-6.15-98.88-54.54-122.55-75.25-40.96-35.83-113.55-123.66-126.47-176.18-4.94-20.05,2.72-39.26,24.52-42.44Z"/>
  <path class="b" d="M572.09,106.82V19.85c0-20.09,41.38-30.99,47.11.56-2.83,46.42,5.75,101.8.56,147.16-2.47,21.59-21.94,32.84-40.34,18.88-26.98-31.2-50.81-67.44-78.16-98.03-1.42-1.58.18-4.56-5.45-3.05v91.73c0,2-7.17,10.19-9.71,11.73-14.43,8.72-30.94,1.09-35.03-14.66,3.17-47.68-6.13-105.51-.6-152,2.14-18.02,23.29-29.57,38.28-16.72l83.34,101.35Z"/>
  <path class="b" d="M995.2,588.12c21.22,3.11,29.22,29.82,7.08,38.05-12.23,4.54-83.88,4.05-100.01,2.42-11.3-1.14-23.5-4.97-25.19-17.71l.18-157.33c2.89-8.95,11.63-14.08,20.43-15.32,19.26-2.73,77.69-2.46,97.3-.02,15.26,1.91,25.26,11.92,18.66,27.79-.85,2.04-8.02,10.13-8.91,10.13h-79.85v35.74h67.94c21.6,0,21.3,38.12,4.77,38.12h-72.7v38.12c21.74,2.27,49.36-3.07,70.32,0Z"/>
</svg>