<?xml version="1.0" encoding="UTF-8"?>
<svg id="a" data-name="Layer 1" xmlns="http://www.w3.org/2000/svg" width="1129.16" height="1129.26" viewBox="0 0 1129.16 1129.26">
  <defs>
    <style>
      .b {
        fill: #b2642c;
      }
    </style>
  </defs>
  <path class="b" d="M1129.12,696.68c-2.12-26.15-19.04-91.43-37.56-115.63-6.85-8.95-17.11-14.08-28.15-14.08-10.46,0-20.33,4.54-27.06,12.46-7.07,8.32-9.91,19.43-7.98,31.29.28,1.74.72,3.35,1.23,4.83-10.8,1.31-21.47,1.96-31.86,1.96-36.75,0-70.78-8.13-101.13-24.16-9.34-4.93-18.04-11.17-27.26-17.78-2.15-1.54-4.32-3.1-6.53-4.66,10.3-18.75,18.23-37.24,24.04-56,1.37.37,2.78.77,4.02,1.13,7.08,2.02,15.11,4.32,23.48,4.32,15.59,0,27.26-8.35,32.86-23.52,5-13.55,1.8-23.47-1.77-29.39-7.69-12.77-23.39-18.54-39.14-21.79,1.6-.35,3.28-.67,4.95-.99,7.42-1.43,15.83-3.04,23.08-7.48,6.91-4.23,15.16-12.61,15.22-28.47.05-13.26-5.19-21.32-9.6-25.74-6.91-6.93-16.73-10.45-29.19-10.45-15.43,0-32.17,5.46-42.68,10.57-23.22,11.28-41.23,31.71-51.4,58.06-19.49,2.68-35.01,5.82-49.47,9.95-6.21,1.78-15.12,5.68-24.56,9.8-6.36,2.78-15.78,6.9-19.27,7.88-4.94-.59-20.09-5.5-28.39-8.19-7.9-2.56-14.72-4.77-19.23-5.82-33.97-7.93-69.28-11.95-104.97-11.95-18.35,0-37.01,1.06-55.8,3.17,14.75-14.07,30.04-24.51,48.92-33.85,40.27-19.93,84.43-30.04,131.26-30.04,7.35,0,14.82.26,22.22.77,3.64.25,9.15,1.34,14.99,2.5,9.82,1.94,20.94,4.14,31.3,4.14,13.33,0,23.35-3.86,29.76-11.48,6.51-7.72,8.64-18.44,6.33-31.84-2.23-12.94-13.04-22.28-32.15-27.77-12.42-3.57-26.4-5.03-34.75-5.91-.9-.09-1.74-.18-2.51-.27-11.42-1.24-23.26-1.87-35.17-1.87-23.39,0-47.61,2.34-73.34,7.11l30.85-45.33c31.68-29.82,64.83-51.48,98.57-64.39,3.64-1.39,10.97-3.47,18.73-5.66,27.04-7.64,39.53-11.66,45.64-18.07,9.94-10.43,12.61-25.21,6.97-38.59-5.69-13.47-18.68-22.27-33.11-22.41h-.28c-11.87,0-39.95,9.32-61.82,17.29.65-1.31,1.3-2.62,1.96-3.94,3.99-8.05,8.12-16.37,11.86-24.81,1.41-3.18,3.31-7.29,5.5-12.04,11-23.83,20.29-44.52,22.56-56.41,2.04-10.72-.65-21.23-7.59-29.62-7.01-8.48-17.62-13.53-28.38-13.53-11.81,0-22.56,6.01-29.5,16.49-7.31,11.03-14.12,29.17-20.72,46.71-3.73,9.91-7.24,19.28-10.4,26.13-1.53,3.32-3.14,6.6-4.81,9.9-2.01-17.77-4.99-31.21-9.8-39.27-6.23-10.46-17.55-16.7-30.27-16.7-8.86,0-17.39,3.01-24.02,8.48-7.59,6.26-12.01,15.24-12.46,25.28-.4,8.94,2.03,20.63,4.6,33,1.84,8.85,3.74,18.01,4.13,24.37.97,15.86.31,32.98-1.91,50.6-.75-6.31-1.7-13.31-2.87-20.97-.23-1.51-.45-3.15-.69-4.88-1.17-8.54-2.62-19.17-6.78-28.29-7.63-16.75-20.56-20.78-30.06-21.21-.84-.04-1.68-.06-2.49-.06-14.46,0-22.56,6.16-26.8,11.33-12.16,14.8-7.57,37.99-3.88,56.62,1.14,5.77,2.22,11.23,2.47,14.89,2.95,43.55-2.94,86.91-17.01,125.39-9.01,24.64-21.11,47-36.15,66.87,3.42-14.94,6.29-29.19,8.48-43.66,4.52-29.91,5.69-58.54,3.69-90.12-.5-7.96-2.53-24.93-5.3-40.71-5.08-28.96-9.57-37.64-12.92-41.96-6.64-8.57-16.14-13.28-26.76-13.28-9.15,0-18.36,3.69-25.26,10.11-7.49,6.97-11.62,16.37-11.65,26.45-.03,11.33,2.71,24.73,5.61,38.92,2.35,11.51,4.78,23.41,5.32,32.89,2.02,35.66-3.84,83.39-15.67,127.69-13.19,49.4-32.28,89.54-53.74,113.02-3.09,3.38-7.25,6.76-11.88,10.12,24.84-61.31,38.14-135.11,34.06-190.41-.56-7.58-2.35-18.64-7.69-28.3-6.38-11.54-16.25-17.89-27.8-17.89-6.79,0-13.88,2.26-21.08,6.72-9.25,5.72-14.74,14.29-16.33,25.45-1.14,8.07-.04,16.19.94,23.37.56,4.13,1.09,8.04,1.07,11.07-.53,77.1-28.2,160.33-74.03,222.63-14.54,19.77-26.71,35.13-46.49,47.71,9-16.31,17.01-33.21,23.95-50.55,13.33-33.31,22.48-67.65,27.19-102.05,3.07-22.47,7.59-62.67,3.28-79.33-4.19-16.18-17.98-27.06-34.31-27.06-9.07,0-17.73,3.47-24.38,9.77-6.98,6.62-11.37,15.94-12.67,26.97-1.44,12.21-1.9,23.66-2.33,34.73-.64,16.31-1.25,31.71-4.84,49.17-6.44,31.32-22.82,73.8-42.77,110.86-22.94,42.64-48.17,74.37-71.04,89.36-1.95,1.28-5.05,2.37-8.34,3.53-8.38,2.95-19.86,7-26.18,19.37-5.83,11.4-5.36,24.64,1.24,35.42,6.58,10.75,17.95,17.17,30.43,17.17,1.13,0,2.28-.05,3.42-.16,12.26-1.16,29.77-8.92,46.71-16.43,8.42-3.73,16.37-7.26,21.96-9.17,40.52-13.84,82.04-20.85,123.41-20.85,36.42,0,73.29,5.45,109.57,16.19,6.18,1.83,14.46,5.35,22.48,8.76,11.25,4.78,21.87,9.3,30.35,10.96,3.01.59,6.03.89,8.95.89,17.02,0,31.13-10.22,35.1-25.44,2.08-7.98,1.07-16.61-2.86-24.31-3.92-7.68-10.66-14.35-19.51-19.31-26.16-14.65-72.82-26.74-107.41-32.93,27.51-6.02,55.38-9.06,83.05-9.06,35.94,0,71.92,5.13,106.93,15.24,3.57,1.03,9.57,3.32,15.93,5.75,18.84,7.19,32.94,12.29,42.85,12.29,1.67,0,3.27-.14,4.74-.43,3.32-.64,6.46-1.71,9.34-3.16-2.34,10.9-4.05,22.02-5.12,33.33-2.73,28.89-1.36,59.87,4.08,92.07,4.96,29.38,13.49,60.8,25.34,93.37,20.07,55.17,51.07,111.21,85.05,153.75,21.12,26.44,43.4,47.84,66.21,63.6,26.5,18.3,53.87,29.08,81.36,32.03,2.98.32,6.22.48,9.91.48s7.65-.16,11.35-.32c3.57-.15,6.93-.3,10.17-.3,2.09,0,3.9.06,5.55.19.36.03.71.04,1.07.04,1.02,0,2.05-.11,3.05-.34,62.2-13.88,116.41-52.96,161.14-116.16,33.62-47.5,61.7-108.28,83.46-180.63.13-.42.23-.85.32-1.29l15.22-76.15c.18-.9.27-1.82.27-2.74v-53.74c0-.38-.02-.76-.05-1.13ZM1078.98,587.85c-.37-.4-.75-.79-1.14-1.15.39.36.77.75,1.14,1.15ZM1080.44,589.56c-.37-.48-.75-.93-1.15-1.37.39.44.78.89,1.15,1.37ZM857.8,1070.78c.47-.05.93-.09,1.4-.15-.47.06-.93.1-1.4.15ZM859.02,1114.64c-.83,0-1.67,0-2.51.03.84-.02,1.68-.02,2.51-.03ZM141.9,701.7c-1.45.34-2.9.7-4.35,1.06,1.45-.36,2.9-.72,4.35-1.06ZM139.05,648.42s.04,0,.06,0c-.02,0-.04,0-.06,0ZM239.92,646.25h0c17-5.6,33.71-12.17,51.13-16.61.02,0,.04-.01.06-.02-.02,0-.04.01-.06.02-17.42,4.44-34.13,11.01-51.13,16.61ZM231.21,691.22c-2.61,0-5.21.03-7.81.08,2.6-.05,5.21-.08,7.81-.08ZM240.89,691.36c-.78-.02-1.56-.05-2.34-.06.78.01,1.56.05,2.34.06ZM286.02,695.13c-1.11-.16-2.22-.31-3.33-.46,1.11.15,2.22.3,3.33.46ZM278.63,694.16c-1.1-.14-2.2-.27-3.3-.4,1.1.13,2.2.26,3.3.4ZM271.23,693.32c-1.09-.11-2.18-.23-3.27-.33,1.09.1,2.18.22,3.27.33ZM263.81,692.62c-1.07-.09-2.13-.18-3.2-.27,1.07.08,2.13.18,3.2.27ZM256.35,692.06c-1.03-.07-2.06-.14-3.09-.2,1.03.06,2.06.13,3.09.2ZM248.77,691.64c-.96-.04-1.91-.1-2.87-.13.96.04,1.91.09,2.87.13ZM300.74,697.51c-1.1-.2-2.2-.39-3.31-.58,1.1.19,2.2.38,3.31.58ZM293.38,696.25c-1.11-.18-2.22-.35-3.33-.52,1.11.17,2.22.34,3.33.52ZM297.44,628.06c.69-.17,1.39-.32,2.08-.48-.69.16-1.39.32-2.08.48ZM354.65,348s0,.09,0,.13c0-.04,0-.09,0-.13ZM311.13,546.94c-2.3,1.8-4.48,3.64-6.48,5.53,2-1.89,4.18-3.73,6.48-5.53ZM303.31,553.76h0s0,0,0,0c0,0,0,0,0,0ZM302.36,553.93c-.09.01-.18.01-.27.02.09,0,.17,0,.27-.02ZM301.55,553.97c-.08,0-.15-.01-.22-.02.07,0,.15.02.22.02ZM300.9,553.87c-.06-.02-.12-.03-.18-.06.06.02.12.04.18.06ZM300.35,553.6s-.05-.03-.08-.05c.02.02.05.03.08.05ZM303.39,542.95c.03-.05.06-.11.09-.17-.03.05-.06.11-.09.17ZM305.07,539.77c.44-.81.89-1.64,1.36-2.47-.47.83-.92,1.66-1.36,2.47ZM315.23,521.62c.38-.72.73-1.42,1.07-2.11-.34.69-.7,1.39-1.07,2.11ZM312.25,527.09c.66-1.17,1.29-2.32,1.91-3.45-.61,1.13-1.25,2.28-1.91,3.45ZM299.93,551.54c-.02.09-.02.17-.03.25.01-.08.02-.16.03-.25ZM299.86,552.32c0,.08,0,.16,0,.23,0-.07,0-.15,0-.23ZM300,553.13s-.03-.1-.04-.15c.02.05.02.1.04.15ZM312.87,624.7c-.87.17-1.75.34-2.62.52.87-.18,1.75-.35,2.62-.52ZM306.3,626.06c-.82.18-1.64.35-2.47.53.82-.18,1.64-.35,2.47-.53ZM325.83,622.35c-.91.15-1.82.3-2.73.45.91-.16,1.82-.3,2.73-.45ZM319.37,623.47c-.9.16-1.8.32-2.7.49.9-.17,1.8-.33,2.7-.49ZM332.29,621.33c-.92.14-1.83.27-2.75.41.92-.14,1.83-.28,2.75-.41ZM347.44,573.16c-.04.23-.06.44-.06.63,0-.19.02-.4.06-.63ZM429.13,262.51c0-.09-.01-.19-.02-.28,0,.09.01.19.02.28.32,5.67.45,11.65.4,17.88.05-6.23-.08-12.21-.4-17.88ZM426.91,321.29c-.41,3.59-.86,7.22-1.36,10.88.5-3.66.95-7.29,1.36-10.88ZM424.62,338.64c-1.41,9.42-3.12,19-5.13,28.6,2-9.61,3.71-19.18,5.13-28.6ZM425.49,237.27c.21,1.07.41,2.14.61,3.2-.2-1.06-.4-2.13-.61-3.2ZM427.94,251.34c.35,2.44.65,4.84.87,7.16-.22-2.32-.52-4.72-.87-7.16ZM428.6,172.79c.4-.27.81-.52,1.23-.76-.42.24-.83.5-1.23.76ZM469.71,229.81c.02.11.03.22.05.34-.02-.11-.03-.22-.05-.34ZM470.58,236.5c.07.52.13,1.04.19,1.55-.06-.51-.12-1.03-.19-1.55ZM455.73,175.49c.37.41.74.84,1.09,1.29-.35-.45-.72-.88-1.09-1.29ZM448.34,428.66c.02-.19.04-.39.08-.58-.04.2-.06.39-.08.58ZM448.91,426.3c.35-.99.76-1.96,1.02-2.73-.25.77-.67,1.74-1.02,2.73ZM450.22,171.15c.44.23.87.48,1.3.75-.43-.27-.86-.51-1.3-.75ZM451.56,171.93c.41.26.82.55,1.21.85-.4-.3-.8-.59-1.21-.85ZM448.61,170.39c.43.18.85.38,1.27.59-.42-.21-.85-.41-1.27-.59ZM447.17,169.87c.46.15.92.31,1.37.49-.45-.18-.91-.34-1.37-.49ZM502.24,461.74c-1.12.16-2.24.32-3.36.49,1.12-.17,2.24-.33,3.36-.49ZM496.32,462.61c-1.17.18-2.34.37-3.51.55,1.17-.19,2.34-.38,3.51-.55ZM491.62,450.11c1.45-1.63,2.91-3.22,4.38-4.78-1.47,1.56-2.93,3.16-4.38,4.78ZM484.51,464.55c-1.97.35-3.94.7-5.9,1.07,1.97-.37,3.93-.73,5.9-1.07ZM490.41,463.54c-1.3.21-2.6.44-3.9.66,1.3-.22,2.6-.45,3.9-.66ZM882.52,499.79c-.49-.04-.97-.07-1.43-.07.46,0,.94.03,1.43.07ZM880.92,499.72c-.42,0-.82.02-1.21.06.39-.04.79-.06,1.21-.06ZM879.58,499.8c-.39.05-.77.11-1.13.2.36-.09.74-.15,1.13-.2ZM878.36,500.03c-.36.1-.71.21-1.04.36.33-.15.68-.26,1.04-.36ZM877.27,500.41c-.34.15-.66.33-.95.55.29-.21.61-.39.95-.55ZM885.21,440.97c.61-.52,1.21-1.02,1.8-1.49-.58.47-1.19.97-1.8,1.49ZM886.41,456.6c-.68-.09-1.36-.18-2.02-.27.66.09,1.33.18,2.02.27ZM879.77,393.25c.05-.02.11-.04.16-.07-.05.02-.11.04-.16.07ZM881.84,392.45c.07-.03.14-.05.21-.08-.07.03-.14.05-.21.08ZM884.01,391.66c.08-.03.16-.06.25-.09-.08.03-.16.06-.25.09ZM886.26,390.9c.09-.03.18-.06.27-.09-.09.03-.18.06-.27.09ZM875.95,394.88s.03-.02.05-.02c-.02,0-.03.02-.05.02ZM877.8,394.06s.08-.03.11-.05c-.04.02-.08.03-.11.05ZM1041.78,603.82c0,.66.05,1.34.1,2.02-.05-.69-.09-1.36-.1-2.02ZM1041.78,603.76c0-.64.02-1.27.06-1.89-.04.62-.06,1.25-.06,1.89ZM1041.87,601.4c.05-.63.11-1.25.21-1.85-.09.6-.16,1.22-.21,1.85ZM1042.1,599.44c.09-.57.2-1.13.33-1.68-.13.55-.24,1.1-.33,1.68ZM1042.19,608.48c.24,1.47.73,2.84,1.32,4.17-.6-1.32-1.08-2.69-1.32-4.17-.12-.72-.2-1.42-.27-2.12.07.7.15,1.4.27,2.12ZM1048.06,622.21c.41,1.45.62,2.98.45,4.65-1.94.35-3.88.67-5.82.98,1.94-.31,3.88-.63,5.82-.98.17-1.67-.03-3.2-.44-4.65ZM1044.59,614.82c.18.33.36.66.54,1-.18-.33-.36-.66-.54-1ZM1047.31,620.12c.19.46.37.92.53,1.39-.16-.47-.34-.93-.53-1.39ZM1050.32,670.4c-1.95.29-3.9.58-5.85.85,1.95-.27,3.9-.55,5.85-.85ZM992.62,857.97c4.5,3.48,9.04,8.4,13.56,13.51.7.79,1.39,1.58,2.09,2.37.7.79,1.39,1.58,2.09,2.37.53.6,1.06,1.2,1.59,1.8-.53-.6-1.06-1.19-1.59-1.8-.7-.79-1.39-1.58-2.09-2.37-.7-.79-1.39-1.58-2.09-2.37-4.53-5.12-9.06-10.03-13.56-13.51h0ZM1063.53,788.11c-.96,6.85-2.24,13.63-3.77,20.35-1.76,7.72-3.88,15.35-6.21,22.92,2.33-7.58,4.44-15.21,6.21-22.92,1.54-6.72,2.82-13.5,3.77-20.35h0ZM1012.72,857.82l25.85-25.47c-4.21,13.11-9.06,26.08-13.89,38.87-1.87-2.03-3.77-4.2-5.65-6.34-2.07-2.36-4.17-4.75-6.31-7.06ZM1031.26,893.44c5.36-14.39,11-28.8,16.12-43.38-5.12,14.58-10.75,28.99-16.12,43.38-.27.07-.52.12-.76.16.24-.04.48-.09.76-.16ZM1030.34,893.62c-.22.03-.44.05-.63.05.19,0,.41-.02.63-.05ZM1029.7,893.67c-.21,0-.39-.02-.57-.05.18.03.36.05.57.05ZM1029.03,893.6c-.17-.04-.32-.08-.47-.14.15.06.3.11.47.14ZM1028.48,893.42c-.13-.06-.26-.13-.38-.21.12.08.25.15.38.21ZM1028.06,893.19c-.13-.09-.25-.18-.37-.29.12.1.24.2.37.29ZM1027.6,892.84c-.12-.1-.23-.21-.35-.32.12.11.23.22.35.32ZM1026.96,892.24s-.09-.09-.14-.13c.05.05.09.09.14.13ZM1026.44,891.76s-.06-.05-.09-.07c.03.02.06.05.09.07ZM1051.67,837.33c-.94,2.92-1.92,5.83-2.91,8.73,1-2.9,1.97-5.82,2.91-8.73ZM998.31,924.22c.9.9,1.75,1.79,2.54,2.67-.8-.88-1.65-1.77-2.54-2.67ZM1001.57,950.78c-.15.24-.29.48-.44.72.15-.24.29-.48.44-.72ZM1006.44,939.69c.17-.91.26-1.79.24-2.64.02.85-.07,1.73-.24,2.64-.13.7-.32,1.42-.55,2.15.23-.73.42-1.45.55-2.15ZM996.2,922.15c-.72-.69-1.44-1.37-2.2-2.07.75.7,1.48,1.39,2.2,2.07ZM692.42,950.39c-2.53-4.3-4.99-8.61-7.4-12.9l46.27-48.3h0s-46.27,48.3-46.27,48.3c2.4,4.29,4.87,8.6,7.4,12.9ZM723.8,550.78c15.88-11.32,33.2-20.42,51.47-27.03,11.78-4.26,23.79-7.43,35.9-9.47-9.99,24.48-26.42,46.44-48.26,64.33-26.44,21.66-59.8,36.06-93.94,40.56-2.07.27-4.24.44-6.5.57,14.31-26.79,35.2-50.34,61.32-68.96ZM639.91,635.46c.63-.12,1.26-.22,1.9-.32,1.91-.29,3.83-.5,5.77-.66,1.29-.1,2.59-.19,3.89-.26-1.3.07-2.6.15-3.89.26-1.94.16-3.86.37-5.77.66-.64.1-1.27.2-1.9.32h0ZM651.47,678.4c-1.31.07-2.62.12-3.94.17,1.31-.05,2.62-.11,3.94-.17ZM658.13,677.97c-1.3.1-2.61.19-3.91.27,1.3-.08,2.61-.17,3.91-.27ZM671.78,676.61c-1.45.18-2.9.36-4.35.51,1.45-.16,2.9-.33,4.35-.51ZM664.85,677.38c-1.33.13-2.67.26-4,.38,1.34-.11,2.67-.24,4-.38ZM663.28,633.72c1.2-.07,2.4-.15,3.59-.25-1.19.1-2.39.18-3.59.25ZM667.19,633.44c1.14-.1,2.27-.22,3.4-.36-1.12.14-2.26.26-3.4.36ZM719.45,666.92c-1.3.36-2.6.72-3.9,1.07,1.3-.35,2.6-.71,3.9-1.07ZM712.91,668.68c-1.26.33-2.53.65-3.79.96,1.27-.31,2.53-.63,3.79-.96ZM706.43,670.3c-1.27.3-2.54.6-3.81.88,1.27-.29,2.54-.58,3.81-.88ZM699.96,671.78c-1.31.29-2.62.56-3.94.83,1.31-.27,2.63-.54,3.94-.83ZM693.48,673.13c-1.44.28-2.88.55-4.32.81,1.44-.26,2.88-.53,4.32-.81ZM686.99,674.34c-2.16.38-4.32.74-6.49,1.07,2.17-.33,4.33-.69,6.49-1.07ZM680.21,675.45c-2.07.32-4.15.61-6.23.88,2.08-.27,4.15-.57,6.23-.88ZM681.85,631.28c1.82-.35,3.64-.72,5.45-1.11-1.81.4-3.63.77-5.45,1.11ZM705.97,625.13c1.47-.47,2.94-.96,4.41-1.47-1.46.51-2.93,1-4.41,1.47ZM734.56,662.37c-2.09.68-4.18,1.34-6.28,1.98,2.1-.64,4.19-1.3,6.28-1.98ZM726.21,664.97c-1.42.43-2.84.85-4.27,1.26,1.43-.41,2.85-.83,4.27-1.26ZM721.28,619.53c1.67-.69,3.33-1.41,4.98-2.14-1.65.73-3.31,1.45-4.98,2.14ZM732.35,614.57c1.05-.51,2.1-1.03,3.15-1.56-1.05.53-2.1,1.05-3.15,1.56ZM734.59,662.36h0l40.81,40.85-40.81-40.85ZM796.29,743.91l-64.6,63.07-95.49-95.05,1.55-19.15c29.78-.04,61-4.93,92.93-14.53l65.61,65.66ZM762.52,857.97l56.61,56.59-56.61-56.59h0ZM782.34,858l63.29-62.96,64.65,63.43-62.98,64.46-64.96-64.94ZM738.69,611.37c1.95-1.03,3.88-2.09,5.79-3.18-1.91,1.09-3.84,2.15-5.79,3.18ZM747.98,606.15c.78-.47,1.56-.94,2.33-1.41-.77.48-1.55.95-2.33,1.41ZM759.91,598.43c2.4-1.67,4.75-3.4,7.07-5.18-2.32,1.78-4.67,3.5-7.07,5.18ZM899.22,660.97c-.39.41-.83.83-1.23,1.4-1.83,2.62-4.02,5.26-6.46,7.91,2.44-2.65,4.63-5.28,6.46-7.91.4-.57.84-.99,1.23-1.4ZM888.67,673.28s-.03.03-.04.04c.01-.01.03-.03.04-.04ZM862.63,678.24c-5.31,4.68-10.71,9.45-15.68,14.32l-50.45-50.43,20.74-16.21c17.72,13.87,38.05,27.96,61.09,37.89-4.69,4.71-10.25,9.62-15.7,14.42ZM855.94,703.36c-1.06,1.05-2.09,2.11-3.08,3.16-1.98,2.11-3.81,4.21-5.44,6.31h0c1.63-2.1,3.46-4.2,5.44-6.31.99-1.05,2.02-2.11,3.08-3.16ZM775.42,640.85h0s41.92-32.77,41.92-32.77l-41.92,32.77ZM776.7,585.28c.21-.18.41-.36.62-.54-.2.18-.41.36-.62.54ZM781.98,580.48c.09-.08.17-.16.26-.25-.09.08-.17.16-.26.25ZM816.19,499.38c2.31-.31,4.62-.58,6.93-.81-2.32.23-4.63.5-6.93.81ZM813.51,541.01c.8-1.36,1.59-2.73,2.35-4.12-.76,1.39-1.55,2.76-2.35,4.12ZM633.75,558.07c2.92-3.79,5.97-7.56,9.15-11.3-3.18,3.74-6.23,7.5-9.15,11.3ZM644.83,678.67c-1.36.04-2.72.06-4.08.08,1.36-.02,2.72-.04,4.08-.08ZM637.38,678.78c-1.22,0-2.44-.03-3.66-.04,1.49.02,2.98.04,4.47.03-.27,0-.54,0-.81,0ZM623.15,699.59l1.71-21.1h0l-1.71,21.1ZM624.87,678.49c2.22.11,4.45.18,6.66.23-2.22-.05-4.44-.12-6.66-.23ZM731.59,826.64l84.61-82.61h0l-84.61,82.61-.17-.17.17.17ZM629.17,788.11c4.39,23.21,10.67,46.13,18.8,68.34,4.46,12.17,9.49,24.11,15.06,35.78-5.57-11.67-10.61-23.61-15.06-35.78-8.14-22.21-14.41-45.13-18.8-68.34h0ZM699.96,858.27l-47.12-46.71,47.12,46.7-35.33,37.28h0l35.33-37.28ZM654.88,833.3l25.5,25.27-11.65,12.29c-5.21-12.21-9.83-24.74-13.85-37.57ZM731.51,909.19l64.85,64.83-38.38,38.09c-23.04-20.09-40.9-47-55.63-72.48l29.16-30.44ZM816.17,974.03l.03.03h0l-.03-.03ZM846.86,1025.47c4.39,4.2,9.11,8.35,13.75,12.43,5.56,4.88,11.22,9.86,15.92,14.59-10.19,3.28-20.31,4.94-30.24,4.94-9.16,0-18.23-1.42-27.12-4.23l27.69-27.73ZM860.35,1018.92c1,.91,2.01,1.83,3.03,2.74-1.02-.92-2.04-1.83-3.03-2.74ZM866.99,1024.85c2.3,2.03,4.63,4.07,6.93,6.11-2.3-2.04-4.63-4.07-6.93-6.11ZM875.64,1032.49c2.85,2.54,5.65,5.09,8.27,7.62-2.62-2.53-5.41-5.07-8.27-7.62ZM847.42,942.85h0l82.64-84.58-83.7-82.13,83.7,82.12-82.64,84.58ZM960.95,909.48c4.14,3.94,8.7,7.87,13.18,11.74,6.55,5.65,14.51,12.52,18.17,17.17-1.23,3.14-4.84,8.51-6.52,11.01-1.04,1.55-2.02,3.01-2.89,4.4-2.26,3.63-12.41,17.97-24.58,33.58-10.13,12.99-16.76,20.57-20.92,24.94l-38.98-40.03,62.54-62.83ZM984.28,911.49c-2.24-1.93-4.5-3.87-6.69-5.8,2.2,1.93,4.45,3.87,6.69,5.8,1.12.97,2.24,1.93,3.34,2.89-1.1-.96-2.22-1.93-3.34-2.89ZM966.99,895.78c-2.21-2.28-4.12-4.49-5.58-6.6h0c1.47,2.1,3.38,4.31,5.58,6.6,2.21,2.28,4.71,4.64,7.36,7.03-2.65-2.39-5.15-4.74-7.36-7.03ZM878.76,743.74l34.82-35.38-34.82,35.38h0ZM898.58,743.57l55.52-56.4c12.08,1.38,24.16,2.05,36.73,2.05,19.83,0,40.18-1.67,63.15-5.21.16.84.33,1.7.5,2.57,1.31,6.69,3.89,19.79,3.76,25.68l-95.05,94.69-64.61-63.39ZM948.98,672.41c2.21.3,4.41.57,6.61.82-2.2-.25-4.4-.52-6.61-.82ZM957.45,673.44c1.77.19,3.53.36,5.29.52-1.76-.16-3.52-.33-5.29-.52ZM964.17,674.09c2.17.18,4.34.35,6.51.48-2.16-.14-4.33-.3-6.51-.48ZM972.14,674.66c1.75.1,3.49.19,5.24.26-1.74-.07-3.49-.16-5.24-.26ZM979.17,674.99c2.17.08,4.33.14,6.5.18-2.16-.03-4.33-.1-6.5-.18ZM985.77,675.17c2.16.03,4.32.04,6.48.03-.48,0-.95.01-1.43.01-1.68,0-3.36-.01-5.05-.04ZM1070.89,698.49c.28,1.8.54,3.58.74,5.29-.2-1.71-.46-3.49-.74-5.29ZM1070.81,697.97c-1.81-11.27-4.8-23.61-5.27-30.08-2.18.39-4.36.76-6.53,1.12,2.17-.36,4.35-.73,6.53-1.12.47,6.47,3.46,18.81,5.27,30.08ZM1065.03,581.04c.43.03.85.08,1.28.14-.43-.06-.85-.1-1.28-.14ZM1066.67,581.23c.5.08,1,.17,1.5.29-.5-.11-1-.21-1.5-.29ZM1068.44,581.59c.43.1.85.22,1.28.36-.42-.13-.85-.25-1.28-.36ZM1070.08,582.06c.49.16.98.34,1.46.55-.48-.2-.97-.38-1.46-.55ZM1051.08,670.28c2.14-.33,4.29-.67,6.44-1.02-2.15.35-4.3.7-6.44,1.02ZM993.73,675.19c2.15-.02,4.29-.05,6.43-.11-2.14.06-4.29.09-6.43.11ZM1000.24,675.08c2.13-.06,4.25-.15,6.37-.24-2.12.1-4.25.18-6.37.24ZM1008.1,674.76c2.11-.11,4.21-.23,6.32-.37-2.11.14-4.21.26-6.32.37ZM1015.27,674.33c1.91-.13,3.83-.28,5.75-.45-1.92.16-3.83.31-5.75.45ZM1022.41,673.77c2.1-.19,4.19-.39,6.29-.6-2.1.22-4.2.42-6.29.6ZM1029.93,673.04c1.87-.2,3.74-.41,5.62-.64-1.87.22-3.75.44-5.62.64ZM1036.72,672.26c2.11-.26,4.22-.53,6.33-.82-2.11.29-4.22.56-6.33.82ZM997.26,631.51c.12,0,.25,0,.37,0-.12,0-.25,0-.37,0ZM951.81,627.27c.26.05.53.1.79.15-.26-.05-.53-.1-.79-.15ZM956.91,628.19c.39.07.79.13,1.18.19-.39-.06-.79-.13-1.18-.19ZM961.64,628.93c.34.05.67.1,1.01.15-.34-.05-.67-.1-1.01-.15ZM967,629.65c.35.04.69.08,1.04.12-.35-.04-.69-.08-1.04-.12ZM971.63,630.18c.38.04.76.08,1.13.12-.38-.04-.76-.08-1.13-.12ZM977.16,630.69c.26.02.53.04.8.06-.27-.02-.53-.04-.8-.06ZM981.73,631.02c.39.02.79.05,1.18.07-.39-.02-.79-.05-1.18-.07ZM987.37,631.31c.12,0,.23,0,.35.01-.12,0-.23,0-.35-.01ZM991.9,631.45c.4,0,.8.02,1.2.02-.4,0-.8-.02-1.2-.02ZM903.62,612.3c.36.16.72.32,1.08.47-.36-.16-.72-.31-1.08-.47ZM908.14,614.23c.29.12.59.25.88.37-.3-.12-.59-.25-.88-.37ZM913.18,616.26c.34.13.68.26,1.02.39-.34-.13-.68-.26-1.02-.39ZM917.6,617.91c.36.13.71.26,1.07.39-.36-.13-.71-.26-1.07-.39ZM922.86,619.74c.29.1.59.19.88.29-.29-.1-.59-.19-.88-.29ZM927.24,621.15c.4.12.79.25,1.19.37-.4-.12-.79-.24-1.19-.37ZM932.66,622.76c.19.05.39.11.58.16-.19-.05-.39-.1-.58-.16ZM937.02,623.94c.41.11.83.21,1.24.32-.41-.11-.83-.21-1.24-.32ZM942.27,625.24c.11.03.23.06.34.08-.11-.03-.23-.06-.34-.08ZM946.92,626.28c.41.09.82.17,1.24.26-.41-.09-.82-.17-1.24-.26ZM827.09,453.92h0c1.24-4.05,2.7-8.01,4.37-11.86-1.67,3.85-3.13,7.82-4.37,11.86ZM786.12,505.59c3.47-.98,6.97-1.87,10.49-2.68-3.52.8-7.02,1.7-10.49,2.68ZM766.87,511.95c3.63-1.38,7.3-2.68,11-3.87-3.7,1.19-7.37,2.49-11,3.87ZM757.63,515.71c1.38-.6,2.76-1.18,4.15-1.74-1.39.57-2.77,1.15-4.15,1.74ZM742.1,523.13c-2.29,1.2-4.56,2.45-6.81,3.73,2.25-1.28,4.52-2.52,6.81-3.73ZM750.89,472.6c1.6-.7,3.19-1.39,4.75-2.06-1.56.67-3.15,1.36-4.75,2.06ZM723.49,482.83c.13,0,.26.01.38.01-.12,0-.26-.01-.38-.01ZM712.56,480.66c.27.07.53.14.79.21-.26-.07-.53-.14-.79-.21ZM714.23,481.1c.26.07.52.13.77.2-.25-.06-.51-.13-.77-.2ZM715.84,481.51c.25.06.5.12.74.18-.24-.06-.49-.12-.74-.18ZM717.36,481.87c.23.05.47.11.7.16-.23-.05-.46-.1-.7-.16ZM718.79,482.18c.22.04.44.09.65.13-.21-.04-.43-.09-.65-.13ZM720.13,482.43c.2.04.4.07.59.1-.19-.03-.39-.07-.59-.1ZM721.37,482.63c.18.03.36.05.53.07-.17-.02-.35-.05-.53-.07ZM722.49,482.77c.15.01.31.03.46.04-.14-.01-.3-.03-.46-.04ZM707.13,479.11c.3.09.6.18.9.27-.3-.09-.6-.18-.9-.27ZM708.99,479.66c.29.08.58.17.86.25-.28-.08-.57-.16-.86-.25ZM710.81,480.18c.28.08.55.16.83.23-.27-.08-.55-.15-.83-.23ZM701.39,477.35c.29.09.58.18.87.27-.29-.09-.58-.18-.87-.27ZM703.33,477.96c.3.09.6.18.89.27-.3-.09-.59-.18-.89-.27ZM705.24,478.54c.3.09.61.18.91.27-.3-.09-.6-.18-.91-.27ZM686.91,472.7c.27.09.54.18.82.26-.28-.09-.55-.18-.82-.26ZM688.89,473.34c.26.08.51.17.77.25-.26-.08-.51-.17-.77-.25ZM691.61,474.22c.17.06.35.11.52.17-.17-.06-.35-.11-.52-.17ZM693.46,474.82c.29.1.59.19.89.29-.3-.1-.59-.19-.89-.29ZM695.42,475.45c.3.1.59.19.89.29-.3-.1-.59-.19-.89-.29ZM697.45,476.11c.28.09.55.18.83.27-.28-.09-.55-.18-.83-.27ZM699.4,476.73c.3.09.6.19.9.28-.3-.09-.6-.19-.9-.28ZM681.55,471c.27.08.54.17.81.26-.28-.09-.54-.17-.81-.26ZM683.23,471.53c.3.09.59.19.89.28-.3-.1-.59-.19-.89-.28ZM684.99,472.09c.3.1.6.19.91.29-.31-.1-.61-.19-.91-.29ZM668.75,521.97c.57-.52,1.11-1.04,1.63-1.54-.52.51-1.06,1.03-1.63,1.54ZM670.4,520.4c3.25-3.21,5.31-6.1,3.9-7.45,0,0,0,0,0,0,0,0,0,0,0,0,1.42,1.35-.65,4.24-3.9,7.45ZM656.68,509.02c.83.17,1.65.34,2.48.51-.83-.17-1.65-.34-2.48-.51ZM664.52,510.68c.77.17,1.54.34,2.3.51-.77-.17-1.53-.34-2.3-.51ZM674.12,468.81c.25.07.5.13.76.2-.26-.07-.51-.14-.76-.2ZM672.72,468.45c.31.07.62.15.96.24-.34-.09-.66-.16-.96-.24ZM575.35,500.35c-.84,0-1.68-.02-2.53-.02.84,0,1.68.01,2.53.02ZM576.51,456.88c.92.01,1.85.03,2.77.05-.92-.02-1.85-.04-2.77-.05ZM582.74,457c.94.02,1.88.06,2.83.09-.94-.03-1.88-.06-2.83-.09ZM588.98,457.2c.95.04,1.9.08,2.85.12-.95-.04-1.9-.09-2.85-.12ZM595.21,457.49c.96.05,1.91.11,2.87.16-.96-.06-1.91-.11-2.87-.16ZM601.45,457.87c.96.06,1.93.13,2.89.2-.96-.07-1.93-.14-2.89-.2ZM607.67,458.32c.97.08,1.94.16,2.91.24-.97-.08-1.94-.17-2.91-.24ZM613.9,458.87c.97.09,1.94.19,2.91.28-.97-.1-1.94-.19-2.91-.28ZM620.13,459.5c.97.11,1.94.21,2.9.32-.97-.11-1.94-.22-2.9-.32ZM626.36,460.23c.97.12,1.93.24,2.9.36-.97-.13-1.93-.24-2.9-.36ZM632.59,461.04c.96.13,1.92.26,2.87.4-.96-.14-1.91-.27-2.87-.4ZM638.85,461.94c.94.14,1.88.28,2.82.43-.94-.15-1.88-.29-2.82-.43ZM645.11,462.94c.92.15,1.83.3,2.75.46-.92-.16-1.83-.31-2.75-.46ZM651.41,464.04c.88.16,1.77.32,2.65.48-.88-.17-1.77-.32-2.65-.48ZM657.77,465.24c.82.16,1.65.32,2.47.49-.82-.17-1.65-.32-2.47-.49ZM664.39,466.6c.68.14,1.35.28,2.03.43-.68-.15-1.35-.28-2.03-.43ZM650.78,507.87c-.56-.11-1.12-.22-1.68-.32.56.1,1.12.21,1.68.32ZM641.62,506.23c-.68-.11-1.36-.22-2.03-.33.68.11,1.36.21,2.03.33ZM634,505.04c-.86-.13-1.73-.25-2.59-.38.86.12,1.73.25,2.59.38ZM626.03,503.93c-.77-.1-1.54-.2-2.31-.3.77.1,1.54.2,2.31.3ZM616.22,502.75c-.4-.04-.8-.08-1.21-.12.4.04.8.08,1.21.12ZM608.61,502.01c-.84-.08-1.68-.14-2.52-.21.84.07,1.68.14,2.52.21ZM600.79,501.39c-.85-.06-1.69-.12-2.54-.18.85.05,1.69.12,2.54.18ZM591.91,500.85c-.42-.02-.85-.05-1.27-.07.42.02.85.05,1.27.07ZM583.09,500.5c-.73-.02-1.47-.03-2.2-.05.73.02,1.47.03,2.2.05ZM387.49,574.23c-.61.02-1.21.04-1.82.06.61-.02,1.22-.04,1.82-.06ZM379.98,574.5s-.09,0-.13,0c.04,0,.09,0,.13,0ZM377.26,574.6c-.93.04-1.87.07-2.81.11.94-.04,1.87-.07,2.81-.11ZM372.31,574.79c-1.45.06-2.91.11-4.38.16,1.47-.05,2.93-.11,4.38-.16ZM365.7,575.03c-1.44.05-2.88.09-4.34.14,1.45-.04,2.9-.09,4.34-.14ZM359.29,575.23c-2.1.06-4.21.11-6.36.15,2.15-.04,4.26-.09,6.36-.15ZM347.44,573.16h0c1.79-1.18,3.55-2.36,5.29-3.53-1.74,1.17-3.49,2.35-5.29,3.53ZM352.16,575.41s-.1,0-.15.01c.05,0,.1,0,.15-.01ZM351.25,575.49c-.22.02-.44.04-.66.06.22-.02.44-.04.66-.06ZM350.47,575.56c-.23.02-.46.02-.68.03.22,0,.45-.01.68-.03ZM349.62,575.59c-.11,0-.21,0-.32-.01.1,0,.21.01.32.01ZM349.12,575.56c-.11-.01-.22-.03-.32-.05.11.02.21.04.32.05ZM348.66,575.49c-.14-.03-.28-.08-.4-.13.12.06.26.1.4.13ZM348.2,575.32c-.1-.05-.19-.1-.27-.17.08.07.17.12.27.17ZM347.83,575.06c-.06-.06-.12-.12-.17-.2.05.07.11.14.17.2ZM347.58,574.73c-.04-.08-.08-.16-.1-.25.03.09.06.18.1.25ZM347.43,574.31c-.02-.11-.03-.22-.04-.35,0,.12.02.24.04.35ZM351.68,618.93c-.92.09-1.85.19-2.77.29.92-.1,1.85-.19,2.77-.29ZM390.46,616.97c-.89,0-1.77.01-2.66.02.89,0,1.77-.02,2.66-.02ZM384,617.03c-.9.02-1.81.04-2.71.06.9-.02,1.81-.05,2.71-.06ZM377.53,617.2c-.91.03-1.83.07-2.74.11.91-.04,1.83-.08,2.74-.11ZM371.07,617.47c-.92.05-1.85.1-2.77.15.92-.05,1.85-.11,2.77-.15ZM364.6,617.85c-.92.06-1.85.13-2.77.2.92-.07,1.85-.14,2.77-.2ZM358.14,618.34c-.93.08-1.85.16-2.78.24.93-.08,1.85-.16,2.78-.24ZM433.38,575.04c1.71.15,3.43.32,5.18.51,1.2.13,2.5.29,3.88.47-1.38-.18-2.68-.34-3.88-.47-1.75-.19-3.47-.35-5.18-.51ZM438.15,619.81c-1.29-.16-2.58-.3-3.87-.45,1.29.14,2.58.29,3.87.45ZM431.36,619.05c-1.29-.13-2.58-.26-3.87-.38,1.29.12,2.58.24,3.87.38ZM424.55,618.41c-1.29-.11-2.59-.21-3.88-.31,1.29.1,2.59.2,3.88.31ZM417.75,617.89c-1.3-.09-2.6-.17-3.9-.24,1.3.08,2.6.15,3.9.24ZM410.93,617.48c-1.3-.07-2.6-.12-3.91-.17,1.3.05,2.6.11,3.91.17ZM404.12,617.2c-1.31-.04-2.63-.07-3.94-.1,1.31.03,2.63.06,3.94.1ZM397.3,617.03c-1.33-.02-2.67-.03-4-.04,1.33,0,2.67.01,4,.04ZM391.69,574.1c.7-.02,1.39-.04,2.09-.06-.7.02-1.39.04-2.09.06ZM397.99,573.96c.61-.01,1.23-.02,1.85-.03-.62,0-1.23.02-1.85.03ZM405.83,573.88s.05,0,.08,0c1.53,0,3.07.01,4.61.03-1.57-.02-3.13-.03-4.69-.03ZM411.84,573.93c1.19.02,2.39.05,3.6.08-1.2-.03-2.4-.06-3.6-.08ZM416.87,574.05c1.55.05,3.11.11,4.68.18-1.57-.07-3.13-.13-4.68-.18ZM421.75,574.24c1.63.08,3.28.18,4.94.28-1.66-.11-3.31-.21-4.94-.28ZM428.1,574.62c1.25.09,2.52.19,3.79.29-1.27-.11-2.53-.2-3.79-.29ZM574.98,599.63c-11.03-8.17-33.41-16.52-66.52-24.81-27.96-7-55.05-11.74-68.4-13.19-11-1.19-21.86-1.75-34.16-1.75-4.76,0-9.4.08-14.04.21,7.66-4.82,15.6-9.31,24.38-13.26,47.89-21.57,99.93-32.51,154.69-32.51,25.37,0,50.97,2.4,76.4,7.14-1.06.87-1.82,1.53-2.5,2.25-23.91,25.06-42.74,52.56-55.96,81.74-1.04,2.3-2.05,4.62-3.03,6.95-2.54-4.93-6.21-9.33-10.85-12.77ZM454.35,577.79c-.86-.14-1.71-.28-2.54-.41.83.13,1.67.27,2.54.41ZM447.18,576.67c-1.38-.2-2.7-.39-3.95-.55,1.25.17,2.57.35,3.95.55ZM401.32,538.5c.15-.08.3-.16.45-.24-.15.08-.3.16-.45.24ZM406.36,535.99c1.36-.65,2.73-1.3,4.13-1.93,0,0,0,0,.01,0,0,0,0,0-.01,0-1.4.63-2.77,1.27-4.13,1.93ZM417.48,531.01c.47-.2.94-.4,1.41-.6-.47.2-.94.4-1.41.6ZM425.71,527.62c.41-.16.83-.32,1.24-.49-.41.16-.83.32-1.24.49ZM433.52,524.61c.24-.09.48-.18.72-.27-.24.09-.48.18-.72.27ZM441.27,521.82c.48-.17.97-.34,1.46-.5-.49.17-.97.33-1.46.5ZM449.77,518.97c.29-.09.57-.18.86-.27-.29.09-.57.18-.86.27ZM457.35,516.63c.36-.11.72-.22,1.08-.32-.36.11-.72.22-1.08.32ZM465.55,514.29c.46-.13.92-.25,1.38-.37-.46.12-.92.25-1.38.37ZM474.27,512c.05-.01.11-.03.16-.04-.05.01-.11.03-.16.04ZM481.71,510.23c.42-.1.84-.19,1.27-.29-.42.09-.84.19-1.27.29ZM490.23,508.39c.4-.08.8-.16,1.21-.24-.4.08-.8.16-1.21.24ZM498.69,506.76c.1-.02.2-.04.3-.06-.1.02-.2.04-.3.06ZM506.46,505.43c.46-.07.91-.15,1.37-.22-.46.07-.91.15-1.37.22ZM515.2,504.12c.31-.04.63-.08.95-.13-.32.04-.63.08-.95.13ZM523.18,503.1c.3-.04.6-.07.9-.11-.3.03-.6.07-.9.11ZM531.48,502.22c.47-.05.95-.09,1.42-.13-.47.04-.95.09-1.42.13ZM540.38,501.45c.16-.01.33-.02.49-.03-.16.01-.33.02-.49.03ZM548.06,500.96c.43-.02.86-.05,1.29-.07-.43.02-.86.05-1.29.07ZM556.68,500.57c.47-.02.95-.03,1.42-.04-.47.01-.95.03-1.42.04ZM565.47,500.36c.08,0,.15,0,.23,0-.08,0-.15,0-.23,0ZM628.4,565.24c-29.39,40.73-44.53,84.48-48.84,130.05,4.31-45.57,19.45-89.32,48.84-130.05ZM705.68,971.69c-3.94-5.95-7.72-12-11.35-18.08,3.63,6.08,7.41,12.13,11.35,18.08ZM742.01,1016.45c3.58,3.45,7.27,6.75,11.1,9.87,1.91,1.56,3.86,3.08,5.84,4.56l19.13-18.99-19.13,18.99c-1.98-1.47-3.93-2.99-5.84-4.56-3.83-3.13-7.53-6.43-11.1-9.87-1.77-1.71-3.51-3.45-5.22-5.23,1.71,1.78,3.45,3.52,5.22,5.23ZM733.95,1008.22c-2.35-2.54-4.65-5.13-6.89-7.78,2.25,2.65,4.54,5.25,6.89,7.78ZM723.84,996.56c-2.81-3.46-5.54-6.99-8.2-10.6,2.66,3.6,5.39,7.14,8.2,10.6ZM714.45,984.33c-2.52-3.46-4.97-6.98-7.36-10.54,2.39,3.56,4.84,7.08,7.36,10.54ZM744.73,1078.28c-3.16-2.43-6.28-4.96-9.36-7.57,3.08,2.61,6.2,5.14,9.36,7.57ZM757.19,1087.22c-2.01-1.34-4.01-2.72-5.99-4.14,1.98,1.42,3.98,2.8,5.99,4.14ZM794.01,1106.38c-2.15-.81-4.28-1.67-6.4-2.57,2.12.9,4.26,1.76,6.4,2.57ZM783.99,1102.22c-1.99-.9-3.97-1.85-5.94-2.83,1.97.98,3.95,1.93,5.94,2.83ZM774.37,1097.49c-1.66-.88-3.31-1.78-4.95-2.72,1.64.93,3.29,1.84,4.95,2.72ZM820.27,1068.09c-.7-.18-1.39-.38-2.09-.58.7.2,1.39.4,2.09.58ZM817.05,1067.19c-.71-.21-1.41-.44-2.12-.66.71.22,1.41.45,2.12.66ZM813.83,1066.19c-.74-.24-1.48-.51-2.22-.77.74.26,1.48.52,2.22.77ZM810.62,1065.08c-.75-.27-1.51-.57-2.26-.86.75.29,1.5.59,2.26.86ZM807.42,1063.86c-.77-.31-1.54-.64-2.31-.96.77.33,1.54.65,2.31.96ZM804.23,1062.53c-.81-.35-1.62-.73-2.43-1.1.81.37,1.62.75,2.43,1.1ZM801.05,1061.09c-.87-.41-1.75-.84-2.62-1.28.87.44,1.74.87,2.62,1.28ZM797.87,1059.54c-1.04-.53-2.08-1.08-3.12-1.64,1.04.57,2.08,1.11,3.12,1.64ZM846.21,1071.42c-.55,0-1.1-.02-1.65-.03.55,0,1.1.03,1.65.03ZM842.96,1071.37c-.56-.02-1.13-.05-1.69-.08.56.03,1.13.06,1.69.08ZM839.7,1071.21c-.58-.04-1.16-.09-1.73-.14.58.05,1.16.1,1.73.14ZM836.46,1070.96c-.6-.06-1.2-.13-1.79-.2.6.07,1.2.14,1.79.2ZM833.21,1070.59c-.62-.08-1.25-.18-1.87-.27.62.09,1.25.19,1.87.27ZM829.97,1070.12c-.65-.11-1.31-.23-1.96-.35.65.12,1.31.24,1.96.35ZM826.73,1069.55c-.67-.13-1.34-.28-2.01-.42.67.14,1.34.29,2.01.42ZM823.5,1068.87c-.68-.15-1.36-.33-2.04-.5.68.17,1.36.34,2.04.5ZM846.59,1115.02c-.4.02-.8.03-1.2.05.4-.02.8-.03,1.2-.05ZM875.41,1067.43c-.36.1-.71.18-1.07.28.36-.09.71-.18,1.07-.28ZM872.17,1068.26c-.38.09-.75.17-1.13.26.38-.09.75-.17,1.13-.26ZM868.93,1069c-.41.09-.81.16-1.22.24.41-.08.81-.16,1.22-.24ZM865.69,1069.64c-.43.08-.86.14-1.28.22.43-.07.86-.14,1.28-.22ZM862.44,1070.19c-.45.07-.9.12-1.35.19.45-.06.9-.12,1.35-.19ZM855.95,1070.98c-.49.04-.97.07-1.46.11.49-.04.97-.07,1.46-.11ZM852.7,1071.23c-.51.03-1.02.05-1.52.07.51-.02,1.02-.04,1.52-.07ZM849.46,1071.38c-.52.02-1.03.02-1.55.02.52,0,1.03,0,1.55-.02ZM881.88,1065.47c-.3.1-.61.19-.91.29.3-.1.61-.19.91-.29ZM878.65,1066.5c-.33.1-.65.19-.98.28.33-.1.65-.18.98-.28ZM885.11,1064.35c-.32.11-.63.22-.95.33.32-.11.63-.22.95-.33ZM894.75,1060.43c-.26.12-.53.23-.79.34.26-.12.53-.23.79-.34ZM891.54,1061.83c-.32.13-.63.26-.95.39.32-.13.63-.25.95-.39ZM888.33,1063.14c-.31.12-.62.23-.93.35.31-.12.62-.23.93-.35ZM898.09,1058.37c.21-1.08.08-1.8-.23-2.37-.26-.48-.63-.86-1.04-1.28-.24-.25-.5-.52-.74-.83.24.31.5.57.74.83.41.42.78.8,1.04,1.28.31.57.44,1.29.23,2.37ZM935.89,1030.87s0,0,0,0h0ZM936.23,1030.89c.07,0,.14-.01.21-.02-.07,0-.15.02-.21.02ZM937.43,1030.58c-.09.04-.18.08-.27.11.09-.03.18-.07.27-.11ZM936.91,1030.77c-.08.02-.16.05-.24.06.08-.02.16-.04.24-.06ZM959.22,1008.65c-.38.47-.77.93-1.15,1.38.38-.46.77-.92,1.15-1.38ZM958.02,1010.08c-.37.45-.74.89-1.11,1.33.37-.44.74-.88,1.11-1.33ZM956.85,1011.49c-.36.43-.72.85-1.08,1.28.36-.42.72-.85,1.08-1.28ZM955.68,1012.86c-.35.41-.7.82-1.04,1.22.35-.4.69-.81,1.04-1.22ZM954.52,1014.22c-.33.39-.67.77-1,1.15.33-.38.66-.76,1-1.15ZM953.38,1015.53c-.32.37-.65.74-.97,1.1.32-.36.64-.73.97-1.1ZM952.26,1016.81c-.31.35-.62.7-.92,1.04.31-.34.61-.69.92-1.04ZM951.15,1018.06c-.3.33-.59.66-.88.98.29-.32.58-.65.88-.98ZM950.07,1019.26c-.28.31-.56.61-.83.91.28-.3.55-.6.83-.91ZM949,1020.42c-.27.29-.53.57-.79.85.26-.28.52-.56.79-.85ZM947.96,1021.54c-.25.27-.5.53-.75.79.25-.26.5-.52.75-.79ZM946.95,1022.6c-.24.25-.47.49-.71.73.23-.24.47-.48.71-.73ZM945.95,1023.62c-.22.22-.44.44-.66.66.22-.22.44-.44.66-.66ZM945,1024.58c-.21.2-.41.4-.61.6.2-.2.41-.4.61-.6ZM944.07,1025.48c-.19.18-.38.37-.57.54.19-.18.38-.36.57-.54ZM943.18,1026.32c-.18.17-.36.33-.54.49.18-.16.36-.33.54-.49ZM942.32,1027.1c-.17.15-.34.3-.5.44.16-.14.33-.29.5-.44ZM941.49,1027.81c-.16.13-.31.26-.46.39.15-.12.31-.25.46-.39ZM940.71,1028.46c-.14.11-.28.23-.42.33.14-.11.28-.22.42-.33ZM939.96,1029.04c-.13.1-.26.2-.39.29.13-.09.26-.19.39-.29ZM939.26,1029.54c-.12.08-.24.16-.36.24.12-.08.24-.16.36-.24ZM938.6,1029.97c-.11.07-.22.13-.33.2.11-.06.22-.13.33-.2ZM937.99,1030.31c-.1.05-.2.11-.3.15.1-.05.2-.1.3-.15ZM985.17,974.99c-7.12,9.79-16.89,22.7-25.94,33.65,9.05-10.95,18.83-23.85,25.94-33.65ZM986.08,973.73c-.28.38-.56.77-.84,1.16.29-.39.57-.78.84-1.16ZM992.1,965.24c-.11.16-.23.34-.35.51.12-.17.24-.34.35-.51ZM991.48,966.13c-.12.17-.24.35-.37.53.12-.18.25-.36.37-.53ZM990.82,967.08c-.15.22-.31.44-.47.67.16-.23.32-.45.47-.67ZM990.13,968.06c-.17.24-.35.49-.52.74.18-.25.35-.5.52-.74ZM989.39,969.12c-.19.27-.4.56-.6.84.2-.28.4-.57.6-.84ZM988.62,970.2c-.21.3-.43.61-.65.91.22-.31.44-.62.65-.91ZM987.8,971.34c-.24.33-.48.66-.72,1,.24-.34.48-.67.72-1ZM986.96,972.52c-.26.36-.53.74-.8,1.11.27-.38.54-.75.8-1.11ZM994.09,962.28c-.04.06-.09.13-.13.2.04-.07.09-.14.13-.2ZM993.66,962.93c-.03.05-.07.11-.11.16.03-.05.07-.11.11-.16ZM993.19,963.64c-.09.13-.18.26-.27.4.09-.13.18-.27.27-.4ZM992.67,964.41c-.11.16-.22.33-.34.49.11-.17.23-.33.34-.49ZM963.26,826.64h0s61.58-61.34,61.58-61.34l-61.58,61.34ZM1071.76,582.7c.42.18.84.38,1.25.59-.41-.21-.83-.41-1.25-.59ZM1063.41,580.98c.44,0,.87.02,1.31.04-.5-.03-1.01-.04-1.51-.04.07,0,.14,0,.2,0ZM1077.75,586.61c-.42-.39-.85-.75-1.29-1.09.44.35.87.7,1.29,1.09ZM1076.13,585.26c-.4-.3-.8-.59-1.21-.86.41.27.81.56,1.21.86ZM1074.76,584.29c-.46-.29-.92-.56-1.39-.81.47.25.93.52,1.39.81ZM1048.89,586.57c-.38.34-.74.71-1.1,1.08.35-.37.72-.74,1.1-1.08ZM1062.87,580.99c-.43.01-.86.03-1.3.07.43-.04.86-.06,1.3-.07ZM1061.28,581.09c-.5.05-.99.12-1.49.2.49-.08.99-.15,1.49-.2ZM1059.45,581.35c-.43.08-.85.17-1.27.28.42-.1.84-.2,1.27-.28ZM1057.91,581.69c-.48.13-.96.27-1.44.43.47-.16.95-.31,1.44-.43ZM1056.14,582.24c-.41.15-.82.3-1.22.48.4-.17.81-.33,1.22-.48ZM1054.67,582.82c-.46.2-.91.42-1.35.66.44-.23.9-.45,1.35-.66ZM1053,583.65c-.39.21-.77.43-1.14.67.37-.24.76-.46,1.14-.67ZM1051.64,584.46c-.42.27-.84.57-1.24.87.4-.3.82-.6,1.24-.87ZM1050.1,585.56c-.35.28-.7.56-1.04.87.34-.3.69-.59,1.04-.87ZM1042.53,597.33c.14-.57.3-1.13.48-1.67-.18.54-.34,1.1-.48,1.67ZM1043.06,595.52c.17-.5.36-.99.56-1.46-.2.48-.39.96-.56,1.46ZM1043.78,593.68c.22-.51.46-1,.72-1.48-.26.48-.49.97-.72,1.48ZM1044.59,592.04c.24-.43.49-.85.75-1.26-.26.41-.52.83-.75,1.26ZM1045.56,590.44c.29-.44.6-.87.92-1.28-.32.41-.63.84-.92,1.28ZM1046.62,589c.29-.37.6-.72.91-1.06-.31.34-.62.69-.91,1.06ZM1040.88,628.12c-1.36.21-2.71.41-4.07.6,1.36-.19,2.71-.39,4.07-.6ZM998.28,631.51c1.72,0,3.45-.02,5.17-.06-1.72.04-3.45.06-5.17.06ZM1005.35,631.4c1.33-.04,2.65-.08,3.98-.14-1.33.06-2.65.1-3.98.14ZM1011.39,631.16c1.35-.07,2.71-.15,4.06-.24-1.35.09-2.71.17-4.06.24ZM1017.25,630.8c1.93-.14,3.86-.29,5.79-.47-1.93.18-3.86.33-5.79.47ZM1023.45,630.29c1.8-.17,3.61-.36,5.41-.56-1.8.2-3.61.39-5.41.56ZM1030.74,629.51c1.34-.16,2.68-.33,4.02-.51-1.34.18-2.68.35-4.02.51ZM899.48,610.42c-.19-.09-.38-.18-.56-.27.19.09.38.18.56.27ZM895.29,608.4c-.37-.18-.73-.36-1.1-.55.37.18.73.37,1.1.55ZM844.23,575.21h0c10.79-18.08,19.81-36.69,26.62-56.41-6.81,19.72-15.83,38.33-26.62,56.41ZM886.14,500.34c.6.12,1.22.26,1.84.41-.63-.15-1.24-.29-1.84-.41ZM882.67,499.8c.5.05,1.02.11,1.56.19-.53-.08-1.06-.15-1.56-.19ZM884.35,500.01c.55.09,1.12.19,1.7.31-.58-.12-1.15-.22-1.7-.31ZM890,501.26c.66.18,1.34.36,2.03.55-.69-.19-1.36-.38-2.03-.55ZM888.02,500.76c.64.15,1.3.32,1.97.5-.67-.18-1.32-.34-1.97-.5ZM914.24,506.36c.07,0,.14,0,.21,0-.03,0-.06,0-.09,0-.04,0-.08,0-.13,0ZM892.11,501.84c.72.2,1.45.41,2.18.62-.74-.21-1.47-.42-2.18-.62ZM896.17,503c.09.03.19.05.28.08-.09-.03-.19-.05-.28-.08ZM898.42,503.63c.09.02.17.05.26.07-.09-.02-.17-.05-.26-.07ZM900.66,504.22c.09.02.19.05.28.07-.09-.02-.18-.05-.28-.07ZM902.92,504.79c.09.02.18.04.27.06-.09-.02-.18-.04-.27-.06ZM905.2,505.29c.09.02.18.04.28.06-.09-.02-.18-.04-.28-.06ZM907.47,505.72c.09.02.18.03.27.05-.09-.01-.18-.03-.27-.05ZM909.74,506.06c.08.01.17.02.25.03-.08-.01-.17-.02-.25-.03ZM912,506.28c.08,0,.15.01.23.02-.08,0-.15-.01-.23-.02ZM928.13,501.5c.08-.08.16-.16.24-.23-.08.08-.16.16-.24.23ZM915.8,506.33c.1,0,.2-.01.31-.02-.1,0-.2.01-.31.02ZM917.2,506.22c.11-.01.22-.02.33-.03-.11.01-.22.02-.33.03ZM918.84,506c.07-.01.15-.03.22-.04-.07.01-.15.03-.22.04ZM920.16,505.72c.11-.03.22-.05.33-.08-.11.03-.22.05-.33.08ZM921.75,505.27s.05-.02.08-.03c-.03,0-.05.02-.08.03ZM922.99,504.81c.1-.04.21-.09.31-.13-.1.05-.21.09-.31.13ZM924.41,504.14s.06-.03.09-.05c-.03.02-.06.03-.09.05ZM925.66,503.42c.1-.06.19-.12.28-.19-.09.06-.19.13-.28.19ZM926.89,502.55c.06-.05.12-.09.19-.14-.06.05-.12.09-.19.14ZM934.09,491.99s0,0,0,0c0,0,0,0,0,0,1.11-2.99,1.65-5.72,1.71-8.21-.06,2.49-.61,5.22-1.71,8.21ZM929.21,500.4c.07-.08.15-.16.22-.24-.07.08-.15.16-.22.24ZM930.38,498.99c.06-.08.12-.17.18-.26-.06.08-.12.17-.18.26ZM931.32,497.65c.07-.12.15-.23.22-.35-.07.12-.15.23-.22.35ZM932.38,495.84c.04-.07.07-.15.11-.22-.04.07-.07.15-.11.22ZM933.17,494.22c.07-.15.13-.3.2-.45-.07.15-.13.3-.2.45ZM908.43,460.52c-1.91-.48-3.86-.91-5.81-1.31,1.95.39,3.89.83,5.81,1.31ZM925.88,467.35c-.27-.17-.54-.34-.82-.5.28.16.55.33.82.5ZM923.81,466.15c-.29-.16-.59-.31-.89-.47.3.15.59.31.89.47ZM921.04,464.76c-.07-.03-.15-.07-.22-.1.07.03.15.07.22.1ZM916.77,463.03c-.87-.31-1.75-.61-2.65-.9.9.29,1.78.59,2.65.9ZM887.12,456.7c.63.09,1.27.17,1.92.27-.65-.09-1.29-.18-1.92-.27ZM891.01,457.24c2.05.3,4.15.62,6.28.98-2.13-.36-4.23-.69-6.28-.98ZM899.71,458.66c.59.11,1.19.22,1.78.34-.59-.12-1.19-.23-1.78-.34ZM892.53,435.49c-.33.17-.78.45-1.33.83.55-.37,1-.66,1.33-.83,14.57-7.62,42.94-2.17,43.04-26.82h0c-.09,24.65-28.47,19.2-43.04,26.82ZM888.41,438.37c.63-.49,1.22-.93,1.76-1.33-.54.39-1.13.84-1.76,1.33ZM888.59,390.18c.1-.03.19-.06.29-.09-.1.03-.19.06-.29.09ZM890.97,389.5c.1-.03.21-.06.31-.08-.1.03-.21.06-.31.08ZM931.1,394.03c.11.14.22.27.33.41-.11-.14-.22-.27-.33-.41ZM931.76,394.88c.1.14.21.29.31.43-.1-.15-.2-.29-.31-.43ZM932.37,395.79c.09.15.19.3.28.45-.09-.15-.19-.3-.28-.45ZM932.93,396.74c.09.16.17.32.26.48-.08-.16-.17-.32-.26-.48ZM933.44,397.76c.08.17.16.33.23.5-.07-.17-.15-.33-.23-.5ZM933.9,398.82c.07.17.14.35.2.53-.06-.18-.14-.35-.2-.53ZM934.31,399.95c.06.18.12.36.18.55-.06-.19-.12-.36-.18-.55ZM934.67,401.14c.05.19.1.37.15.56-.05-.19-.1-.38-.15-.56ZM934.96,402.4c.04.19.08.38.12.58-.04-.2-.08-.38-.12-.58ZM935.2,403.72c.03.19.06.38.09.58-.03-.2-.06-.39-.09-.58ZM935.39,405.14c.02.18.04.36.06.55-.02-.19-.04-.37-.06-.55ZM935.51,406.66c0,.16.02.32.03.49,0-.17-.02-.32-.03-.49ZM930.76,393.62c-.12-.13-.23-.26-.35-.39.12.13.24.25.35.39ZM930.03,392.85c-.12-.12-.25-.24-.37-.36.13.12.25.24.37.36ZM911.17,386.54c-.13,0-.27,0-.4,0,0,0,0,0,.01,0,.13,0,.26,0,.39,0ZM929.27,392.13c-.13-.11-.26-.23-.39-.34.13.11.26.22.39.34ZM928.47,391.46c-.14-.11-.28-.21-.42-.32.14.1.28.21.42.32ZM927.62,390.84c-.14-.1-.29-.2-.43-.29.15.1.29.19.43.29ZM926.74,390.26c-.15-.09-.3-.18-.45-.27.15.09.3.18.45.27ZM925.83,389.74c-.16-.08-.31-.17-.47-.25.16.08.31.16.47.25ZM924.87,389.25c-.16-.08-.32-.15-.48-.23.16.07.32.15.48.23ZM923.89,388.81c-.16-.07-.33-.14-.5-.2.17.07.33.13.5.2ZM922.87,388.41c-.17-.06-.34-.12-.51-.18.17.06.34.12.51.18ZM921.83,388.05c-.17-.06-.35-.11-.52-.16.18.05.35.11.52.16ZM920.75,387.74c-.18-.05-.35-.1-.53-.14.18.05.36.09.53.14ZM919.65,387.46c-.18-.04-.36-.08-.54-.12.18.04.36.08.54.12ZM918.52,387.22c-.18-.03-.36-.07-.54-.1.18.03.36.07.54.1ZM917.36,387.02c-.18-.03-.36-.06-.55-.08.18.03.36.06.55.08ZM916.19,386.85c-.18-.02-.36-.05-.54-.07.18.02.36.04.54.07ZM914.98,386.72c-.18-.02-.36-.04-.54-.05.18.01.36.03.54.05ZM913.75,386.63c-.17-.01-.34-.02-.52-.03.17,0,.34.02.52.03ZM912.49,386.56c-.16,0-.32-.01-.49-.02.16,0,.32.01.49.02ZM893.4,388.87c.11-.03.21-.05.32-.08-.11.03-.21.05-.32.08ZM895.86,388.3c.1-.02.21-.04.31-.07-.1.02-.21.04-.31.07ZM898.36,387.79c.1-.02.19-.04.29-.05-.1.02-.19.04-.29.05ZM900.86,387.36c.09-.01.18-.03.27-.04-.09.01-.18.03-.27.04ZM903.36,387.01c.08,0,.16-.02.24-.03-.08,0-.16.02-.24.03ZM905.86,386.75c.06,0,.13,0,.19-.02-.06,0-.13,0-.19.02ZM908.33,386.59s.09,0,.14,0c-.05,0-.09,0-.14,0ZM771.08,464.57c12.17-3.48,24.54-5.99,37.02-7.98-12.48,1.99-24.85,4.5-37.01,7.98-2.66.76-6.21,2.12-10.18,3.75,3.97-1.64,7.52-2.99,10.18-3.75ZM676.19,469.38c-.25-.07-.48-.14-.72-.2.24.07.47.13.72.2ZM680.7,470.73c-.29-.09-.56-.17-.84-.26.28.09.55.17.84.26ZM679.12,470.24c-.28-.09-.55-.17-.83-.25.27.08.54.16.83.25ZM677.61,469.79c-.27-.08-.52-.15-.78-.23.26.08.51.15.78.23ZM572.97,456.86c-.91,0-1.82-.01-2.74-.01.19,0,.39,0,.58,0,.72,0,1.43.01,2.15.01ZM504.88,461.38c1.09-.15,2.18-.3,3.27-.44-1.09.14-2.18.29-3.27.44ZM510.87,460.6c1.07-.13,2.13-.26,3.2-.39-1.07.13-2.13.26-3.2.39ZM516.82,459.9c1.06-.12,2.12-.24,3.18-.35-1.06.11-2.12.23-3.18.35ZM522.77,459.27c1.05-.1,2.1-.21,3.15-.31-1.05.1-2.1.2-3.15.31ZM528.72,458.71c1.05-.09,2.09-.18,3.14-.27-1.05.09-2.09.17-3.14.27ZM534.65,458.23c1.05-.08,2.1-.16,3.15-.23-1.05.07-2.1.15-3.15.23ZM540.58,457.81c1.06-.07,2.11-.13,3.17-.19-1.06.06-2.11.12-3.17.19ZM546.51,457.47c1.06-.05,2.12-.1,3.18-.15-1.06.05-2.12.1-3.18.15ZM552.45,457.21c1.07-.04,2.13-.08,3.2-.11-1.07.03-2.13.07-3.2.11ZM558.37,457.01c1.08-.03,2.16-.05,3.25-.07-1.08.02-2.16.04-3.25.07ZM564.3,456.89c1.1-.02,2.21-.02,3.31-.03-1.1,0-2.21.01-3.31.03ZM519.06,423.94c-2.44,1.95-4.84,3.95-7.18,6.01-1.57,1.37-3.11,2.77-4.64,4.19,1.53-1.42,3.08-2.82,4.64-4.19,2.35-2.06,4.74-4.06,7.18-6.01,1.63-1.3,3.28-2.57,4.96-3.83-1.68,1.25-3.33,2.53-4.96,3.83ZM527.3,417.72c1.47-1.05,2.95-2.08,4.46-3.1,1.23-.83,2.47-1.64,3.73-2.45-1.26.81-2.51,1.63-3.73,2.45-1.51,1.02-2.99,2.06-4.46,3.1ZM540.95,128.09c.13-.12.28-.23.42-.35-.14.12-.28.23-.42.35ZM541.78,127.4c.15-.11.3-.22.45-.33-.15.11-.31.21-.45.33ZM538.77,176.88c.02.12.05.24.07.36-.02-.12-.05-.24-.07-.36ZM539.01,178.13c.03.16.06.31.09.47-.03-.16-.06-.31-.09-.47ZM539.26,179.4c.03.17.07.34.1.51-.03-.17-.07-.34-.1-.51ZM539.51,180.71c.03.16.06.32.09.48-.03-.16-.06-.32-.09-.48ZM539.74,181.96c.03.17.06.33.09.5-.03-.16-.06-.33-.09-.5ZM539.96,183.19c.03.17.06.34.09.5-.03-.17-.06-.34-.09-.5ZM540.17,184.42c.03.16.05.32.08.47-.03-.16-.05-.32-.08-.47ZM540.36,185.58c.03.17.05.33.08.5-.03-.16-.05-.33-.08-.5ZM540.54,186.76c.02.15.05.3.07.45-.02-.15-.04-.3-.07-.45ZM540.7,187.94c.02.13.04.26.05.39-.02-.13-.03-.26-.05-.39ZM540.84,189.1c.01.1.03.21.04.31-.01-.1-.02-.2-.04-.31ZM540.96,190.25c0,.07.01.14.02.2,0-.07-.01-.14-.02-.2ZM539.99,249.7c-.03.3-.06.6-.1.89.03-.3.07-.6.1-.89ZM539.01,257.87c-.21,1.55-.42,3.1-.65,4.65-.24,1.6-.49,3.2-.75,4.8.26-1.6.51-3.2.75-4.8.23-1.55.44-3.1.65-4.65ZM534.6,148.03c0,.2,0,.4.01.6,0-.2,0-.4-.01-.6ZM534.64,149.38c0,.2.02.4.02.61,0-.2-.02-.41-.02-.61ZM534.7,150.74c.01.21.02.41.04.62-.01-.21-.03-.41-.04-.62ZM534.79,152.12c.02.21.03.41.05.62-.02-.21-.03-.41-.05-.62ZM534.9,153.51c.02.21.04.41.06.62-.02-.21-.04-.41-.06-.62ZM535.04,154.91c.02.2.04.41.07.62-.02-.21-.04-.41-.07-.62ZM535.2,156.32c.02.2.05.41.07.61-.03-.2-.05-.41-.07-.61ZM535.37,157.74c.03.2.05.41.08.61-.03-.2-.05-.41-.08-.61ZM535.56,159.16c.03.21.06.41.09.62-.03-.21-.06-.41-.09-.62ZM535.77,160.59c.03.2.06.4.09.61-.03-.2-.06-.4-.09-.61ZM535.99,162.02c.03.2.06.4.1.6-.03-.2-.07-.4-.1-.6ZM536.23,163.45c.03.19.07.39.1.58-.03-.19-.07-.39-.1-.58ZM536.47,164.88c.03.19.07.39.1.58-.03-.19-.07-.39-.1-.58ZM536.72,166.31c.03.19.07.37.1.55-.03-.18-.07-.37-.1-.55ZM536.99,167.74c.03.17.07.35.1.52-.03-.17-.07-.35-.1-.52ZM537.25,169.15c.03.17.07.34.1.51-.03-.17-.07-.34-.1-.51ZM537.53,170.57c.03.14.06.28.08.43-.03-.14-.06-.28-.08-.43ZM537.81,172.02c.01.07.03.14.04.21-.01-.07-.03-.14-.04-.21ZM542.67,126.76c.16-.11.33-.2.49-.3-.17.1-.33.2-.49.3ZM543.63,126.18c.18-.1.36-.19.55-.29-.18.09-.37.19-.55.29ZM544.65,125.64c.2-.1.41-.18.62-.27-.21.09-.42.18-.62.27ZM545.74,125.17c.25-.1.51-.19.78-.28-.26.09-.52.18-.78.28ZM546.9,124.75c.4-.13.81-.25,1.23-.36-.42.11-.83.23-1.23.36ZM548.48,124.32c.31-.08.62-.15.95-.21-.32.06-.64.14-.95.21ZM549.96,124.01c.28-.05.55-.1.84-.14-.29.04-.56.09-.84.14ZM551.41,123.8c.28-.03.56-.07.84-.1-.29.03-.56.06-.84.1ZM582.9,272.15h0c-.11-2.65-.13-5.29-.08-7.93-.04,2.64-.02,5.28.08,7.93ZM586.31,387.29c-.13.05-.25.1-.38.14.13-.05.25-.1.38-.14ZM562.11,397.49c.47-.22.94-.44,1.41-.66-.47.22-.94.43-1.41.66ZM566.54,395.43c.55-.25,1.11-.5,1.67-.75-.56.25-1.11.5-1.67.75ZM571.03,393.44c.58-.25,1.15-.5,1.73-.75-.58.25-1.15.49-1.73.75ZM575.59,391.5c.56-.23,1.12-.47,1.68-.69-.56.23-1.12.46-1.68.69ZM580.34,389.58c.48-.19.96-.38,1.45-.57-.48.19-.96.38-1.45.57ZM590.91,385.63c.4-.14.81-.28,1.21-.42-.4.14-.81.28-1.21.42ZM595.5,384.05c.53-.18,1.07-.35,1.6-.53-.53.17-1.07.35-1.6.53ZM600.14,382.55c.56-.18,1.13-.35,1.69-.53-.57.17-1.13.35-1.69.53ZM604.86,381.1c.55-.16,1.1-.33,1.65-.49-.55.16-1.1.32-1.65.49ZM609.74,379.69c.48-.14.96-.27,1.45-.41-.48.13-.96.27-1.45.41ZM615.29,378.19c.19-.05.37-.1.56-.15-.19.05-.37.1-.56.15ZM620.63,376.85c.3-.07.61-.14.92-.21-.31.07-.61.14-.92.21ZM625.35,375.76c.5-.11,1-.22,1.5-.33-.5.11-1,.22-1.5.33ZM630.11,374.73c.55-.11,1.1-.23,1.65-.34-.55.11-1.1.22-1.65.34ZM634.93,373.77c.55-.11,1.1-.21,1.66-.31-.55.1-1.1.21-1.66.31ZM639.88,372.87c.5-.09.99-.18,1.49-.26-.5.08-.99.17-1.49.26ZM645.32,371.97c.28-.04.55-.09.83-.13-.28.04-.55.09-.83.13ZM651.03,371.12c.24-.03.48-.06.71-.09-.24.03-.48.06-.71.09ZM655.84,370.5c.5-.06,1.01-.12,1.51-.18-.5.06-1.01.12-1.51.18ZM660.66,369.95c.57-.06,1.15-.12,1.72-.18-.57.06-1.15.12-1.72.18ZM665.54,369.47c.59-.05,1.17-.11,1.76-.16-.59.05-1.17.1-1.76.16ZM670.51,369.06c.55-.04,1.11-.09,1.66-.12-.56.04-1.11.08-1.66.12ZM675.78,368.7c.42-.02.84-.05,1.25-.08-.42.02-.84.05-1.25.08ZM681.92,368.39c.23,0,.45-.01.68-.02-.23,0-.45.01-.68.02ZM686.77,368.23c.55-.01,1.1-.02,1.65-.03-.55.01-1.1.02-1.65.03ZM691.63,368.15c.63,0,1.26,0,1.89-.01-.63,0-1.26,0-1.89.01ZM712.84,368.59c1.84.1,3.69.21,5.53.33.69.05,1.41.12,2.16.2-.75-.08-1.47-.15-2.16-.2-1.84-.13-3.69-.24-5.53-.33ZM696.25,368.13c1.09,0,2.18.01,3.27.03-1.09-.01-2.18-.03-3.27-.03ZM701.78,368.19c1.14.02,2.28.05,3.42.09-1.14-.03-2.28-.07-3.42-.09ZM707.31,368.35c1.26.05,2.52.1,3.78.16-1.26-.06-2.52-.12-3.78-.16ZM698.83,324.42c.78,0,1.56.02,2.34.04-.78-.01-1.56-.03-2.34-.04ZM703.11,324.5c.8.02,1.59.05,2.39.07-.8-.03-1.59-.05-2.39-.07ZM707.4,324.63c.82.03,1.63.07,2.45.11-.82-.04-1.64-.08-2.45-.11ZM711.69,324.82c.84.04,1.68.09,2.52.14-.84-.05-1.68-.1-2.52-.14ZM715.98,325.07c.88.06,1.76.12,2.64.19-.88-.07-1.76-.13-2.64-.19ZM730.89,370.83c.87.17,1.75.34,2.65.52-.9-.18-1.78-.35-2.65-.52ZM720.56,369.13c.74.08,1.51.18,2.3.3-.79-.11-1.56-.21-2.3-.3ZM722.93,369.44c.78.11,1.59.24,2.41.38-.83-.14-1.63-.26-2.41-.38ZM725.44,369.83c.82.14,1.65.28,2.51.44-.86-.16-1.69-.3-2.51-.44ZM728.11,370.3c.84.16,1.71.32,2.58.49-.88-.17-1.74-.33-2.58-.49ZM734.25,371.49c.4.08.81.16,1.21.24-.41-.08-.81-.16-1.21-.24ZM736.36,371.9c.08.02.15.03.23.05-.08-.02-.15-.03-.23-.05ZM739.38,372.49c.09.02.18.03.26.05-.09-.02-.18-.03-.26-.05ZM742.43,373.07c.09.02.17.03.26.05-.09-.02-.17-.03-.26-.05ZM745.49,373.62c.1.02.19.03.29.05-.1-.02-.19-.03-.29-.05ZM748.56,374.13c.1.02.2.03.31.05-.1-.02-.2-.03-.31-.05ZM751.64,374.59c.1.01.21.03.31.04-.1-.01-.21-.03-.31-.04ZM754.69,374.97c.11.01.21.02.32.03-.11-.01-.21-.02-.32-.03ZM757.7,375.27c.11,0,.22.02.32.03-.11,0-.22-.02-.32-.03ZM760.66,375.46c.11,0,.22,0,.33.01-.11,0-.22,0-.33-.01ZM763.55,375.53c.2,0,.4,0,.59,0-.15,0-.29,0-.44,0-.05,0-.1,0-.15,0ZM764.83,375.52c.23,0,.46-.01.7-.02-.23,0-.46.02-.7.02ZM766.2,375.47c.23-.01.46-.02.68-.04-.23.01-.45.03-.68.04ZM767.54,375.39c.22-.02.44-.04.66-.06-.22.02-.44.04-.66.06ZM768.86,375.27c.21-.02.43-.05.64-.08-.21.03-.42.05-.64.08ZM770.15,375.11c.21-.03.41-.06.61-.1-.2.03-.41.07-.61.1ZM771.4,374.91c.2-.04.39-.08.59-.12-.19.04-.39.08-.59.12ZM772.62,374.66c.19-.04.37-.09.56-.13-.19.05-.37.09-.56.13ZM773.81,374.36c.18-.05.36-.1.53-.16-.18.05-.35.11-.53.16ZM774.95,374.02c.17-.06.34-.12.51-.18-.17.06-.34.12-.51.18ZM776.06,373.63c.16-.06.32-.13.48-.19-.16.07-.32.13-.48.19ZM777.12,373.19c.15-.07.3-.14.45-.22-.15.07-.3.15-.45.22ZM778.14,372.69c.14-.08.28-.16.42-.24-.14.08-.28.16-.42.24ZM779.11,372.14c.14-.08.27-.17.4-.26-.13.09-.26.18-.4.26ZM780.04,371.53c.13-.09.25-.19.37-.28-.12.09-.25.19-.37.28ZM780.91,370.86c.12-.1.23-.2.35-.31-.12.1-.23.21-.35.31ZM781.73,370.13c.11-.11.22-.22.32-.33-.11.11-.21.22-.32.33ZM782.49,369.33c.1-.12.2-.24.3-.36-.1.12-.2.24-.3.36ZM783.2,368.47c.1-.13.18-.26.28-.39-.09.13-.18.26-.28.39ZM783.85,367.55c.09-.14.17-.28.25-.42-.08.14-.17.29-.25.42ZM784.43,366.56c.08-.15.15-.3.23-.45-.08.15-.15.31-.23.45ZM784.96,365.49c.07-.16.13-.33.2-.49-.07.16-.13.33-.2.49ZM785.42,364.36c.06-.17.12-.36.18-.53-.06.18-.11.36-.18.53ZM785.81,363.15c.05-.19.1-.39.15-.58-.05.19-.09.39-.15.58ZM786.13,361.86c.04-.2.08-.42.12-.63-.04.21-.07.43-.12.63ZM786.39,360.5c.03-.22.06-.46.09-.69-.03.23-.05.47-.09.69ZM786.57,359.05c.02-.25.04-.51.05-.76-.02.25-.03.51-.05.76ZM786.67,357.53c.01-.27.01-.56.02-.84,0,.28,0,.56-.02.84ZM786.7,355.91c0-.3-.02-.62-.03-.93.01.31.03.63.03.93ZM786.3,350.56c-.09-.64-.19-1.3-.3-1.97-.28-1.61-.86-3.1-1.7-4.48.84,1.38,1.42,2.87,1.7,4.48.12.67.22,1.33.3,1.97ZM786.65,354.22c-.02-.36-.05-.73-.08-1.09.03.37.06.74.08,1.09ZM786.51,352.43c-.04-.43-.1-.88-.15-1.33.06.45.11.9.15,1.33ZM783.69,343.22c-.46-.65-.96-1.29-1.54-1.89.58.6,1.08,1.24,1.54,1.89ZM773.39,335.42c-1.57-.73-3.22-1.41-4.95-2.03,1.73.62,3.38,1.3,4.95,2.03ZM777.21,337.47c-.63-.39-1.29-.76-1.97-1.12.68.36,1.34.73,1.97,1.12ZM735.27,326.87c-2.42-.26-4.6-.48-6.41-.68-1.43-.16-2.86-.3-4.3-.43,1.43.13,2.86.28,4.3.43,1.81.2,3.98.42,6.41.68ZM757.3,330.27c-7.6-1.68-15.39-2.67-21.62-3.36,6.22.69,14.02,1.68,21.62,3.36ZM720.28,325.38c.98.08,1.96.17,2.94.25-.98-.09-1.96-.18-2.94-.25ZM695.21,324.4c.55,0,1.1,0,1.64.01-.71,0-1.42,0-2.12,0,.16,0,.32,0,.48,0ZM596.18,337.37c.46-.11.91-.22,1.37-.33-.46.11-.91.22-1.37.33ZM603.3,335.68c.09-.02.18-.04.27-.06-.09.02-.18.04-.27.06ZM609.09,334.38c.46-.1.91-.2,1.37-.3-.46.1-.91.2-1.37.3ZM616.21,332.88c.18-.04.35-.07.53-.1-.18.04-.35.07-.53.1ZM622.06,331.73c.46-.09.91-.17,1.37-.26-.46.09-.91.17-1.37.26ZM629.18,330.43c.24-.04.48-.08.73-.12-.24.04-.48.08-.73.12ZM635.11,329.44c.45-.07.89-.14,1.34-.21-.45.07-.89.14-1.34.21ZM642.21,328.35c.29-.04.58-.08.87-.12-.29.04-.58.08-.87.12ZM648.21,327.54c.44-.06.87-.11,1.31-.17-.44.05-.87.11-1.31.17ZM655.29,326.68c.34-.04.67-.07,1.01-.11-.34.04-.67.07-1.01.11ZM661.36,326.06c.43-.04.85-.08,1.28-.12-.43.04-.85.08-1.28.12ZM668.4,325.45c.38-.03.75-.05,1.13-.08-.38.03-.75.05-1.13.08ZM674.56,325.03c.4-.02.81-.05,1.21-.07-.41.02-.81.05-1.21.07ZM681.55,324.68c.41-.02.82-.03,1.23-.04-.41.02-.82.03-1.23.04ZM687.8,324.49c.38,0,.77-.02,1.15-.03-.38,0-.77.02-1.15.03ZM590.45,338.8h0l51.56-75.75-51.56,75.75ZM613.32,62.07c.38-.29.77-.58,1.17-.84-.4.27-.79.55-1.17.84ZM611.94,63.23c.36-.33.74-.65,1.12-.95-.38.3-.76.62-1.12.95ZM610.26,109.98c.16.76.31,1.51.47,2.27-.15-.75-.31-1.51-.47-2.27ZM609.7,65.64c.3-.38.62-.75.94-1.11-.33.36-.64.73-.94,1.11ZM608.62,67.13c.28-.42.57-.83.88-1.23-.3.4-.6.81-.88,1.23ZM607.3,95.33c-.04-.21-.08-.41-.11-.62.04.21.08.41.11.62ZM605.36,77.63c.03-.61.08-1.2.15-1.78-.07.58-.13,1.17-.15,1.78ZM605.55,75.51c.08-.56.17-1.1.29-1.64-.11.53-.21,1.08-.29,1.64ZM605.91,73.56c.12-.53.26-1.05.42-1.56-.16.51-.3,1.03-.42,1.56ZM606.35,71.94c.16-.52.35-1.02.55-1.51-.2.49-.39.99-.55,1.51ZM607.03,70.13c.2-.47.42-.93.65-1.38-.23.45-.45.91-.65,1.38ZM607.82,68.49c.23-.43.48-.85.74-1.26-.26.41-.51.83-.74,1.26ZM656.88,147.72c0-.06,0-.13,0-.19,0,.06,0,.13,0,.19ZM656.89,147.28c0-.07,0-.13.01-.2,0,.07,0,.13-.01.2ZM656.93,146.81c0-.07.01-.14.02-.21,0,.07-.01.14-.02.21ZM656.98,146.27c.01-.11.02-.21.03-.32-.01.11-.02.21-.03.32ZM657.04,145.7c0-.09.02-.18.02-.27,0,.09-.01.18-.02.27ZM657.08,145.21c0-.1.01-.2.01-.3,0,.1,0,.2-.01.3ZM657.05,148.85s-.03-.09-.04-.14c.01.05.03.09.04.14ZM656.95,148.51c-.01-.05-.02-.11-.03-.16,0,.05.02.11.03.16ZM656.89,148.14c0-.06,0-.12-.01-.18,0,.06,0,.12.01.18ZM657.15,149.03s.04.07.06.1c-.02-.03-.04-.07-.06-.1ZM657.38,149.33s.03.03.04.04c-.02-.01-.03-.03-.04-.04ZM658.57,149.67c.2,0,.41-.02.65-.06-.24.04-.46.06-.65.06ZM746.29,194.72c-14.72,5.64-28.81,12.62-42.27,20.66-6.73,4.02-13.3,8.3-19.71,12.82-4.27,3.01-8.48,6.12-12.61,9.32-4.13,3.2-8.2,6.49-12.19,9.86,3.99-3.37,8.06-6.66,12.19-9.86,4.13-3.2,8.34-6.31,12.61-9.32,6.41-4.51,12.98-8.8,19.71-12.82,13.46-8.04,27.55-15.02,42.27-20.66,1.17-.45,2.59-.93,4.2-1.45-1.61.52-3.03,1-4.2,1.45ZM720.06,19c.42-.36.85-.71,1.28-1.03-.44.32-.86.67-1.28,1.03ZM721.49,17.86c.48-.35.96-.66,1.46-.96-.49.3-.98.61-1.46.96ZM723.33,16.67c.44-.25.88-.49,1.32-.7-.45.21-.89.45-1.32.7ZM724.87,15.87c.5-.24,1.01-.44,1.53-.63-.51.19-1.02.4-1.53.63ZM726.79,15.1c.45-.15.9-.29,1.35-.41-.45.12-.9.26-1.35.41ZM728.39,14.61c.52-.13,1.05-.24,1.57-.33-.53.09-1.05.19-1.57.33ZM700.12,166.82s0,0,0,0c.58-1.53,1.19-3.05,1.81-4.57-.62,1.52-1.22,3.04-1.81,4.57,0,0,0,0,0,0ZM724.58,156.8c-1.99.91-4.23,1.94-6.53,2.99,2.31-1.05,4.54-2.08,6.53-2.99ZM718,159.8c-.41.18-.81.37-1.22.55.41-.18.81-.37,1.22-.55ZM716.72,160.39c-.4.18-.8.36-1.19.54.4-.18.8-.36,1.19-.54ZM715.38,160.99c-.37.17-.74.34-1.12.5.37-.17.74-.33,1.12-.5ZM714.05,161.59c-.36.16-.71.32-1.06.47.35-.16.71-.32,1.06-.47ZM712.81,162.14c-.36.16-.73.32-1.09.48.36-.16.72-.32,1.09-.48ZM711.62,162.67c-1.97.87-3.84,1.67-5.49,2.34,1.64-.67,3.52-1.47,5.49-2.34ZM705.99,165.07c-.22.09-.44.18-.65.26.21-.09.43-.17.65-.26ZM704.98,165.48c-.18.07-.35.14-.53.21.18-.07.35-.13.53-.21ZM704.04,165.84c-.16.06-.3.11-.45.17.15-.05.29-.11.45-.17ZM703.18,166.16c-.14.05-.26.09-.39.13.13-.04.25-.09.39-.13ZM702.41,166.42c-.12.04-.23.07-.34.11.11-.03.22-.07.34-.11ZM701.73,166.63c-.1.03-.19.05-.28.08.09-.02.18-.05.28-.08ZM701.17,166.78c-.08.02-.15.03-.23.05.07-.01.15-.03.23-.05ZM700.71,166.87c-.06,0-.12.01-.17.02.05,0,.11,0,.17-.02ZM700.35,166.89s-.05,0-.07,0c.02,0,.04,0,.07,0ZM736.42,152c.1-.04.2-.07.3-.11-.1.04-.2.07-.3.11ZM739.95,150.75s.09-.03.14-.05c-.05.02-.09.03-.14.05ZM741.46,150.22c.15-.05.3-.11.46-.16-.15.05-.3.11-.46.16ZM743.28,149.58c.18-.06.35-.12.53-.19-.18.06-.35.12-.53.19ZM744.96,149c.28-.1.55-.19.84-.29-.28.1-.56.19-.84.29ZM746.81,148.37c.33-.11.66-.23,1-.34-.34.11-.67.23-1,.34ZM748.93,147.65c.32-.11.63-.21.95-.32-.32.11-.63.21-.95.32ZM751.01,146.95c.33-.11.66-.22.99-.33-.33.11-.66.22-.99.33ZM789.39,137.06c12.44.13,21.31,10.19,22.09,21.06-.77-10.87-9.65-20.94-22.09-21.06-.2,0-.42,0-.64.02.16,0,.34-.02.5-.02.05,0,.09,0,.14,0ZM753.13,146.24c.34-.11.67-.22,1.01-.33-.34.11-.67.22-1.01.33ZM755.33,145.52c.32-.11.65-.21.97-.32-.33.11-.65.21-.97.32ZM757.39,144.86c.37-.12.74-.24,1.12-.36-.37.12-.75.24-1.12.36ZM759.53,144.17c.38-.12.76-.24,1.15-.36-.38.12-.76.24-1.15.36ZM761.75,143.47c.37-.12.75-.23,1.12-.35-.37.11-.75.23-1.12.35ZM763.9,142.81c.38-.12.77-.23,1.15-.35-.38.11-.76.23-1.15.35ZM766.06,142.16c.38-.11.76-.23,1.13-.34-.38.11-.75.22-1.13.34ZM768.18,141.53c.38-.11.76-.22,1.14-.33-.38.11-.76.22-1.14.33ZM770.29,140.93c.37-.11.74-.21,1.11-.31-.37.1-.74.21-1.11.31ZM772.39,140.35c.35-.1.71-.19,1.05-.29-.35.09-.7.19-1.05.29ZM774.4,139.8c.34-.09.69-.18,1.03-.27-.34.09-.68.18-1.03.27ZM776.35,139.3c.33-.08.67-.17.99-.25-.33.08-.66.17-.99.25ZM778.24,138.84c.32-.08.63-.15.94-.22-.31.07-.63.15-.94.22ZM780.05,138.42c.3-.07.61-.14.9-.2-.29.06-.6.13-.9.2ZM781.75,138.06c.29-.06.59-.12.87-.18-.28.05-.58.12-.87.18ZM783.37,137.74c.28-.05.56-.1.83-.15-.27.05-.55.1-.83.15ZM784.89,137.48c.26-.04.52-.08.77-.12-.25.03-.51.08-.77.12ZM786.31,137.28c.23-.03.47-.06.7-.08-.22.02-.46.06-.7.08ZM787.6,137.15c.21-.02.43-.04.63-.05-.2.01-.42.03-.63.05ZM727.57,155.44c-.19.09-.39.17-.59.26.2-.09.4-.18.59-.26ZM731.14,153.91c-.11.04-.22.08-.35.14.13-.05.24-.1.35-.14ZM730.57,154.14c-.11.05-.22.09-.35.14.13-.05.24-.1.35-.14ZM729.97,154.39c-.14.06-.27.11-.42.18.15-.06.28-.12.42-.18ZM729.24,154.7c-.15.06-.29.13-.44.19.16-.07.3-.13.44-.19ZM728.44,155.06c-.17.07-.34.15-.51.23.18-.08.35-.15.51-.23ZM724.83,156.68c.27-.12.54-.25.8-.36-.26.12-.53.24-.8.36ZM725.93,156.18c.24-.11.47-.22.71-.32-.23.1-.46.21-.71.32ZM742.48,16.02c.48.22.96.46,1.43.71-.47-.25-.94-.49-1.43-.71ZM744.23,16.9c.42.23.83.48,1.24.74-.4-.26-.82-.5-1.24-.74ZM748.25,61.81c.4-.98.8-1.95,1.19-2.91-.38.95-.78,1.93-1.19,2.91ZM751.02,22.57c.34.42.66.85.98,1.29-.31-.44-.63-.88-.98-1.29ZM752.21,24.17c.28.42.56.85.82,1.29-.26-.44-.53-.87-.82-1.29ZM753.1,25.57c.27.47.52.96.76,1.45-.24-.49-.49-.98-.76-1.45ZM754.02,27.37c.22.47.42.95.6,1.44-.18-.49-.39-.97-.6-1.44ZM754.66,28.91c.19.52.35,1.05.51,1.58-.15-.54-.32-1.07-.51-1.58ZM755.27,30.88c.14.52.26,1.05.35,1.58-.1-.54-.22-1.06-.35-1.58ZM755.87,38.23c.05-.6.09-1.2.1-1.8,0,.59-.04,1.19-.1,1.8ZM755.56,40.53c.12-.62.2-1.23.27-1.84-.07.61-.15,1.22-.27,1.84ZM755.64,32.55c.1.56.17,1.13.22,1.7-.05-.57-.12-1.14-.22-1.7ZM755.9,34.67c.04.57.07,1.14.07,1.72,0-.58-.02-1.15-.07-1.72ZM750.92,22.45c-.32-.38-.65-.75-.99-1.11.34.36.67.73.99,1.11ZM749.67,21.07c-.38-.39-.76-.76-1.16-1.12.4.36.79.73,1.16,1.12ZM745.64,17.75c.45.29.88.6,1.31.92-.43-.32-.86-.63-1.31-.92ZM747.25,18.9c.38.3.76.61,1.13.93-.37-.32-.74-.63-1.13-.93ZM742.27,15.93c-.43-.19-.87-.37-1.31-.53.44.16.88.34,1.31.53ZM740.62,15.27c-.5-.18-1-.34-1.51-.48.51.14,1.01.3,1.51.48ZM738.86,14.73c-.45-.12-.9-.22-1.35-.31.45.09.9.19,1.35.31ZM737.15,14.35c-.52-.09-1.04-.17-1.56-.23.52.06,1.04.13,1.56.23ZM735.31,14.1c-.45-.04-.91-.07-1.37-.08.46.01.91.04,1.37.08ZM733.58,14.01c-.53,0-1.06,0-1.58.04.45-.03.89-.05,1.34-.05.08,0,.16,0,.24,0ZM730.35,14.23c.45-.07.9-.12,1.36-.16-.45.04-.9.09-1.36.16ZM719.71,19.32c-.46.41-.91.84-1.35,1.31.44-.47.89-.9,1.35-1.31ZM715.51,24.22c.39-.59.8-1.15,1.22-1.69-.42.54-.83,1.09-1.22,1.69-10.33,15.6-21.15,51.61-30.08,70.97-.28.61-.57,1.21-.85,1.81.28-.6.57-1.2.85-1.81,8.92-19.37,19.74-55.37,30.08-70.97ZM718.28,20.71c-.42.45-.82.92-1.22,1.41.4-.49.8-.97,1.22-1.41ZM658.27,149.66c-.06,0-.12,0-.17-.01.05,0,.11,0,.17.01ZM657.72,149.54s.07.02.1.03c-.03-.01-.07-.02-.1-.03ZM653.37,95.81c1.61,12.14,2.53,25.51,3.11,36.07.27,4.87.46,9.14.62,12.42,0,.15,0,.3,0,.45,0-.15,0-.3,0-.45-.16-3.27-.35-7.55-.62-12.42-.58-10.55-1.49-23.93-3.11-36.07-.37-2.8-.78-5.54-1.23-8.16.45,2.62.86,5.36,1.23,8.16ZM650.53,79.63c.41,1.73.79,3.54,1.15,5.44-.36-1.9-.74-3.71-1.15-5.44ZM643.8,64.01c-.26-.29-.52-.56-.79-.83.27.27.53.54.79.83ZM646.09,67.11c-.29-.48-.59-.94-.91-1.38.32.44.62.9.91,1.38ZM644.87,65.32c-.23-.31-.47-.6-.71-.89.24.29.48.59.71.89ZM641.5,61.83c.41.32.8.67,1.18,1.03-.38-.36-.78-.71-1.18-1.03ZM628.73,57.27c-.41-.02-.83-.02-1.24-.02.12,0,.24,0,.36,0,.3,0,.59.01.89.02ZM641.37,61.73c-.37-.29-.74-.56-1.13-.82.38.26.76.53,1.13.82ZM639.83,60.65c-.31-.2-.62-.39-.93-.56.32.18.62.37.93.56ZM638.46,59.83c-.34-.18-.68-.35-1.03-.51.35.16.69.33,1.03.51ZM637.07,59.15c-.47-.21-.94-.4-1.43-.57.48.17.96.37,1.43.57ZM635.39,58.5c-.4-.14-.8-.27-1.21-.38.41.11.81.24,1.21.38ZM633.69,57.99c-.35-.09-.69-.17-1.04-.24.35.07.7.15,1.04.24ZM632.15,57.64c-.39-.07-.77-.13-1.16-.18.39.05.78.11,1.16.18ZM630.62,57.41c-.51-.06-1.02-.1-1.53-.13.51.03,1.02.07,1.53.13ZM614.72,61.08c.38-.25.77-.49,1.17-.71-.4.22-.78.46-1.17.71ZM616.05,60.27c.43-.24.86-.46,1.3-.67-.44.21-.88.43-1.3.67ZM617.65,59.47c.44-.2.88-.39,1.34-.57-.45.17-.9.37-1.34.57ZM619.22,58.81c.43-.16.86-.31,1.3-.45-.44.14-.87.29-1.3.45ZM620.71,58.3c.47-.14.95-.27,1.42-.38-.48.11-.95.24-1.42.38ZM622.45,57.85c.48-.11.96-.2,1.44-.28-.48.08-.96.17-1.44.28ZM624.11,57.54c.46-.07.92-.13,1.39-.17-.46.04-.93.1-1.39.17ZM625.7,57.34c.49-.04.98-.07,1.47-.08-.49.01-.98.04-1.47.08ZM611.82,63.33c-.34.31-.67.64-.98.98.32-.34.65-.67.98-.98ZM604.26,228.24c-.43,1.75-.88,3.48-1.35,5.2.47-1.72.92-3.45,1.35-5.2ZM601.31,238.91c-.47,1.52-.97,3.03-1.5,4.52.53-1.49,1.02-3,1.5-4.52ZM581.48,166.11c.36,2.37.74,4.92,1.11,7.57s.75,5.4,1.11,8.2c-.36-2.79-.73-5.55-1.11-8.2-.38-2.65-.75-5.19-1.11-7.57-.46-3.06-.88-6.43-1.4-9.89.51,3.47.93,6.84,1.4,9.89ZM562.47,124.49c-1.61-.49-3.38-.79-5.31-.88h0,0c1.94.09,3.7.39,5.31.88ZM555.37,123.57c-.3,0-.59,0-.88.02.27,0,.53-.02.81-.02.02,0,.05,0,.07,0ZM552.91,123.66c.29-.02.57-.04.87-.06-.3.01-.58.04-.87.06ZM540.56,128.46c-.13.12-.26.24-.38.37.12-.13.25-.24.38-.37ZM534.6,146.7c0,.2,0,.39,0,.59,0-.2,0-.4,0-.59ZM539.81,129.23c-.12.13-.23.25-.35.39.11-.13.23-.26.35-.39ZM539.12,130.04c-.11.14-.22.27-.32.41.1-.14.21-.27.32-.41ZM538.49,130.9c-.1.14-.2.28-.29.43.09-.14.19-.28.29-.43ZM537.91,131.81c-.09.15-.18.29-.26.44.08-.15.17-.3.26-.44ZM537.39,132.75c-.08.15-.16.3-.23.46.07-.16.16-.31.23-.46ZM536.92,133.73c-.07.16-.14.31-.21.47.07-.16.14-.32.21-.47ZM536.49,134.76c-.06.16-.13.32-.18.49.06-.16.12-.33.18-.49ZM536.12,135.82c-.05.17-.11.33-.16.5.05-.17.11-.34.16-.5ZM535.79,136.91c-.05.17-.1.35-.14.52.04-.18.09-.35.14-.52ZM535.5,138.04c-.04.18-.08.35-.12.53.04-.18.08-.35.12-.53ZM535.26,139.19c-.03.18-.07.36-.1.54.03-.18.07-.36.1-.54ZM535.06,140.38c-.03.18-.06.37-.08.56.03-.19.05-.37.08-.56ZM534.89,141.59c-.02.19-.04.38-.06.57.02-.19.04-.38.06-.57ZM534.77,142.83c-.02.19-.03.39-.05.58.01-.19.03-.39.05-.58ZM534.68,144.1c-.01.2-.02.39-.03.59,0-.2.02-.39.03-.59ZM534.62,145.39c0,.2-.01.4-.02.59,0-.2,0-.4.02-.59ZM531.8,295.04c.69-2.67,1.34-5.35,1.96-8.04-.62,2.69-1.27,5.37-1.96,8.04-13.45,52.05-40.57,99.78-82.23,136.2,0,0,0,0,0,0,41.66-36.42,68.78-84.15,82.23-136.2ZM455.45,175.18c-.37-.39-.74-.77-1.13-1.13.39.35.76.73,1.13,1.13ZM453.09,173.01c.41.32.81.65,1.21,1.01-.39-.36-.8-.69-1.21-1.01ZM442.24,168.96c-.47-.03-.95-.03-1.42-.02.1,0,.21,0,.31,0,.37,0,.74.01,1.11.03ZM446.83,169.76c-.43-.13-.87-.25-1.31-.35.44.1.88.22,1.31.35ZM445.43,169.39c-.47-.1-.94-.18-1.41-.25.47.07.94.15,1.41.25ZM443.67,169.09c-.44-.06-.88-.1-1.32-.13.44.03.88.07,1.32.13ZM429.91,171.98c.4-.23.8-.44,1.21-.64-.41.2-.81.41-1.21.64ZM431.45,171.18c.43-.21.87-.4,1.31-.58-.44.18-.88.38-1.31.58ZM432.86,170.56c.42-.17.84-.32,1.27-.46-.43.14-.85.29-1.27.46ZM434.47,169.98c.46-.14.91-.28,1.38-.4-.46.12-.92.25-1.38.4ZM435.95,169.56c.44-.11.87-.2,1.31-.28-.44.08-.88.17-1.31.28ZM437.61,169.22c.47-.08.94-.15,1.41-.19-.47.05-.94.11-1.41.19ZM439.14,169.02c.44-.04.88-.07,1.32-.08-.44.01-.88.04-1.32.08ZM428.29,172.99c-.38.26-.76.53-1.12.81.37-.28.74-.55,1.12-.81ZM427.1,173.85c-.38.3-.76.61-1.12.93.37-.32.74-.63,1.12-.93ZM425.7,175.02c-.35.31-.69.63-1.02.97.33-.33.67-.65,1.02-.97ZM424.63,176.04c-.34.35-.67.71-.99,1.08.32-.37.65-.73.99-1.08ZM418.29,189.89c-.04.54-.07,1.08-.07,1.63-.01,5.32.74,11.52,1.87,18.18.75,4.44,1.66,9.08,2.62,13.79-.96-4.71-1.87-9.35-2.62-13.79-1.12-6.66-1.88-12.86-1.87-18.18,0-.55.03-1.09.07-1.63ZM423.4,177.4c-.3.36-.6.73-.88,1.12.28-.38.58-.75.88-1.12ZM422.48,178.57c-.29.4-.56.81-.83,1.22.26-.42.54-.83.83-1.22ZM421.45,180.11c-.25.41-.5.83-.72,1.26.23-.43.47-.85.72-1.26ZM420.71,181.41c-.23.44-.44.89-.64,1.35.2-.46.41-.91.64-1.35ZM419.92,183.11c-.19.46-.37.92-.54,1.4.16-.48.34-.94.54-1.4ZM419.37,184.54c-.16.48-.3.97-.43,1.47.13-.5.27-.99.43-1.47ZM418.84,186.38c-.12.5-.23,1.01-.32,1.52.09-.52.2-1.02.32-1.52ZM418.52,187.92c-.09.52-.15,1.05-.2,1.58.05-.53.11-1.06.2-1.58ZM419.1,369.11c-.49,2.3-.99,4.59-1.51,6.89.52-2.3,1.03-4.59,1.51-6.89ZM416.08,382.47c-.88,3.67-1.81,7.33-2.77,10.98.96-3.65,1.89-7.31,2.77-10.98ZM405.72,419.19c2.51-7.69,4.83-15.51,6.96-23.4-2.13,7.89-4.45,15.71-6.96,23.4ZM401.98,430.14c-.86,2.42-1.74,4.83-2.65,7.21-1.86,4.91-3.8,9.72-5.82,14.44,2.02-4.71,3.96-9.53,5.82-14.44.9-2.38,1.78-4.79,2.65-7.21ZM404.79,422.01c-.62,1.86-1.26,3.72-1.9,5.56.65-1.85,1.28-3.7,1.9-5.56ZM347.5,521.35c3.17-2.55,6.08-5.16,8.58-7.9,13.91-15.21,26.02-35.65,36.18-58.78-10.16,23.13-22.28,43.56-36.18,58.78-2.5,2.73-5.4,5.35-8.58,7.9-1.06.85-2.14,1.69-3.26,2.52,1.11-.83,2.2-1.68,3.26-2.52ZM345.21,619.62c-.92.11-1.84.22-2.76.33.92-.11,1.84-.22,2.76-.33ZM342.56,525.12c-.8.59-1.62,1.17-2.44,1.75.82-.58,1.64-1.16,2.44-1.75ZM338.76,620.42c-.92.12-1.85.24-2.77.37.92-.13,1.85-.25,2.77-.37ZM353.29,318.89c-.09-.58-.19-1.15-.29-1.73.1.57.2,1.15.29,1.73ZM353.96,324.75c-.04-.58-.09-1.15-.15-1.73.06.58.11,1.16.15,1.73ZM353.76,322.47c-.04-.41-.09-.83-.14-1.24.05.41.1.83.14,1.24ZM353.54,320.65c-.06-.44-.12-.88-.19-1.33.07.44.13.88.19,1.33ZM352.92,316.76c-.08-.45-.17-.89-.27-1.33.09.44.18.89.27,1.33ZM352.53,314.86c-.09-.41-.18-.81-.28-1.21.1.4.19.81.28,1.21ZM352.13,313.12c-.14-.54-.28-1.09-.43-1.62.15.54.29,1.08.43,1.62ZM351.68,311.44c-.16-.55-.32-1.1-.5-1.65.17.54.34,1.09.5,1.65ZM351.03,309.32c-.13-.39-.26-.78-.4-1.16.14.38.27.77.4,1.16ZM350.45,307.64c-.15-.4-.3-.8-.46-1.2.16.39.31.79.46,1.2ZM349.84,306.07c-.21-.51-.43-1.02-.66-1.51.23.49.45,1,.66,1.51ZM349.04,304.27c-.19-.4-.38-.78-.57-1.17.2.38.39.77.57,1.17ZM348.23,302.65c-.18-.34-.37-.67-.56-1,.19.33.37.66.56,1ZM347.44,301.24c-.25-.42-.51-.84-.78-1.24.27.4.53.82.78,1.24ZM346.61,299.94c-.29-.42-.58-.83-.88-1.23.3.4.6.81.88,1.23ZM345.47,298.37c-.22-.29-.45-.56-.69-.84.23.27.46.55.69.84ZM344.47,297.18c-.25-.27-.5-.54-.76-.8.26.26.51.52.76.8ZM343.46,296.13c-.34-.33-.7-.65-1.06-.95.36.3.71.62,1.06.95ZM333.86,291.59c-.49-.04-.98-.07-1.49-.06.02,0,.04,0,.06,0,.48,0,.96.03,1.42.07ZM342.19,295.01c-.3-.24-.6-.47-.91-.68.31.22.61.45.91.68ZM340.91,294.08c-.28-.18-.56-.36-.84-.52.28.16.56.34.84.52ZM339.7,293.34c-.36-.2-.73-.38-1.11-.55.38.17.75.35,1.11.55ZM338.45,292.74c-.42-.18-.86-.34-1.3-.48.44.14.88.3,1.3.48ZM336.76,292.14c-.33-.1-.66-.18-.99-.25.34.07.67.16.99.25ZM335.31,291.79c-.35-.06-.7-.12-1.06-.16.36.04.71.09,1.06.16ZM318.72,296.14c.7-.43,1.38-.83,2.06-1.19-.67.37-1.36.76-2.06,1.19-2.35,1.46-4.18,3.14-5.62,4.99,1.43-1.85,3.26-3.53,5.62-4.99ZM331.94,291.54c-.39.01-.78.03-1.19.07.4-.04.8-.06,1.19-.07ZM330.13,291.69c-.35.05-.71.1-1.07.16.36-.07.72-.12,1.07-.16ZM328.36,292c-.35.08-.7.16-1.06.26.36-.1.71-.18,1.06-.26ZM326.55,292.48c-.36.11-.73.23-1.1.36.37-.13.73-.25,1.1-.36ZM324.69,293.13c-.39.15-.78.32-1.17.49.39-.17.79-.34,1.17-.49ZM322.76,293.95c-.44.21-.89.43-1.33.67.45-.23.9-.46,1.33-.67ZM184.4,626.04c17.9-11.45,30.14-24.96,42.89-41.64-12.76,16.69-25,30.19-42.89,41.64-2.19,1.4-4.46,2.77-6.82,4.11-.07.04-.16.09-.24.14.08-.05.17-.1.24-.14,2.37-1.34,4.64-2.71,6.82-4.11ZM229.93,580.92c-.26.34-.52.69-.78,1.03.26-.34.52-.69.78-1.03ZM220.87,691.38c-1.76.05-3.53.09-5.29.17,1.76-.07,3.53-.12,5.29-.17ZM212.49,691.7c-1.57.08-3.15.15-4.72.25,1.57-.1,3.15-.17,4.72-.25ZM204.46,692.18c-1.5.1-3,.21-4.5.33,1.5-.12,3-.23,4.5-.33ZM196.53,692.81c-1.46.13-2.92.27-4.38.41,1.46-.15,2.92-.28,4.38-.41ZM188.67,693.6c-1.44.16-2.88.32-4.32.5,1.44-.18,2.88-.34,4.32-.5ZM180.83,694.56c-1.43.19-2.85.38-4.27.58,1.42-.2,2.85-.4,4.27-.58ZM173.01,695.67c-1.42.22-2.83.44-4.25.67,1.42-.23,2.83-.46,4.25-.67ZM165.21,696.94c-1.42.25-2.83.5-4.25.76,1.42-.26,2.83-.52,4.25-.76ZM157.43,698.37c-1.42.28-2.84.56-4.26.86,1.42-.29,2.84-.58,4.26-.86ZM149.66,699.96c-1.43.31-2.86.63-4.29.95,1.43-.32,2.86-.65,4.29-.95ZM139.34,648.41c.07,0,.12,0,.2-.02-.08.01-.13.01-.2.02ZM139.85,648.32c.09-.02.17-.03.26-.06-.1.03-.18.04-.26.06ZM140.52,648.14c.11-.03.2-.06.32-.1-.11.04-.21.06-.32.1ZM141.32,647.88c.12-.04.24-.08.37-.13-.13.05-.24.08-.37.13ZM142.27,647.53c.13-.05.26-.1.4-.15-.14.06-.27.1-.4.15ZM143.35,647.1c.32-.13.65-.27.99-.41-.34.14-.67.28-.99.41ZM144.93,646.44c.21-.09.43-.19.65-.28-.22.1-.44.19-.65.28ZM146.21,645.88c.24-.11.5-.22.75-.34-.25.11-.51.23-.75.34ZM147.57,645.27c.27-.12.55-.25.83-.38-.28.13-.56.26-.83.38ZM149,644.62c.29-.13.59-.27.89-.41-.3.14-.6.28-.89.41ZM150.48,643.93c.3-.14.61-.29.91-.43-.31.15-.61.29-.91.43ZM152.03,643.19c.3-.15.61-.29.92-.44-.31.15-.62.3-.92.44ZM153.61,642.43c.31-.15.63-.31.95-.46-.32.15-.63.31-.95.46ZM155.23,641.65c.32-.15.63-.31.95-.47-.32.16-.63.31-.95.47ZM156.86,640.85c.32-.16.64-.32.97-.48-.32.16-.65.32-.97.48ZM158.48,640.04c.34-.17.67-.33,1.01-.5-.34.17-.67.34-1.01.5ZM160.11,639.23c.34-.17.68-.34,1.01-.51-.34.17-.67.34-1.01.51ZM161.74,638.41c.33-.17.66-.33.99-.5-.33.17-.66.33-.99.5ZM163.35,637.6c.33-.17.65-.33.97-.5-.32.16-.65.33-.97.5ZM164.92,636.8c.33-.17.65-.33.97-.5-.32.16-.64.33-.97.5ZM166.46,636.01c.3-.16.61-.31.9-.46-.3.15-.6.31-.9.46ZM167.99,635.22c.27-.14.55-.28.81-.42-.27.14-.54.28-.81.42ZM169.39,634.49c.27-.14.55-.28.81-.42-.26.14-.54.28-.81.42ZM170.72,633.8c.26-.13.51-.27.76-.4-.25.13-.5.26-.76.4ZM172,633.13c.25-.13.49-.26.73-.38-.23.12-.48.25-.73.38ZM173.14,632.53c.23-.12.46-.24.68-.36-.22.12-.45.24-.68.36ZM174.25,631.95c.2-.11.4-.21.59-.31-.19.1-.39.21-.59.31ZM175.17,631.46c.19-.1.39-.21.56-.3-.18.09-.37.2-.56.3ZM176.02,631c.16-.09.32-.18.47-.25-.14.08-.31.17-.47.25ZM176.77,630.59c.12-.06.24-.13.34-.19-.1.06-.23.12-.34.19ZM171.64,593.73c-1.93,3.81-3.91,7.59-5.94,11.33s-4.12,7.46-6.26,11.14c2.14-3.68,4.23-7.39,6.26-11.14s4.01-7.52,5.94-11.33c4.82-9.52,9.29-19.23,13.41-29.09-4.12,9.86-8.59,19.57-13.41,29.09ZM192.06,546.73c-1.47,4.01-3,8.01-4.59,11.98,1.59-3.97,3.12-7.96,4.59-11.98,1.47-4.01,2.88-8.05,4.23-12.11.83-2.51,1.64-5.02,2.43-7.54-.79,2.52-1.59,5.04-2.43,7.54-1.35,4.06-2.76,8.09-4.23,12.11ZM184.73,373.14c.24-.16.48-.33.73-.48-.25.15-.49.32-.73.48ZM186.47,372.08c.24-.13.49-.27.74-.4-.25.12-.49.26-.74.4ZM188.29,371.2c.24-.1.47-.21.72-.31-.24.09-.48.2-.72.31ZM190.21,370.49c.21-.07.42-.15.64-.21-.21.06-.42.14-.64.21ZM192.42,369.91c.1-.02.2-.05.31-.07-.1.02-.2.05-.31.07ZM194.62,369.57c.19-.02.38-.02.57-.03-.19.01-.38.01-.57.03ZM202.35,370.28c.37.1.74.21,1.11.33-.36-.12-.73-.23-1.11-.33ZM204.11,370.85c.33.13.67.25.99.39-.33-.14-.66-.27-.99-.39ZM205.78,371.56c.31.15.62.3.93.46-.3-.16-.62-.31-.93-.46ZM207.37,372.41c.29.17.59.35.87.54-.29-.19-.58-.36-.87-.54ZM208.89,373.39c.28.2.55.4.82.61-.27-.21-.54-.41-.82-.61ZM210.33,374.51c.26.22.51.45.76.69-.25-.24-.51-.46-.76-.69ZM214.07,378.68c.21.3.4.62.6.94-.19-.32-.39-.64-.6-.94ZM215.1,380.32c.19.34.37.7.54,1.06-.18-.36-.35-.71-.54-1.06ZM216,382.1c.18.4.34.83.51,1.25-.16-.42-.32-.84-.51-1.25ZM216.76,384.01c.22.64.43,1.3.61,1.98-.18-.68-.38-1.34-.61-1.98ZM212.39,376.53c-.23-.26-.47-.52-.71-.76.24.25.48.5.71.76ZM213.58,378c-.21-.29-.43-.57-.65-.85.23.27.44.56.65.85ZM197.76,369.52c-.41-.02-.83-.04-1.24-.04.04,0,.07,0,.11,0,.38,0,.76.03,1.13.05ZM201.76,370.11c-.48-.12-.97-.22-1.46-.3.49.09.97.18,1.46.3ZM200.03,369.75c-.58-.09-1.17-.16-1.75-.21.59.05,1.17.11,1.75.21ZM182.18,375.14c-.23.21-.46.43-.68.65.22-.22.45-.44.68-.65ZM183.78,373.81c-.24.18-.47.37-.71.57.23-.19.47-.39.71-.57ZM173.93,390.93c.06-.31.14-.61.21-.91-.07.31-.15.6-.21.91ZM174.56,388.2c.1-.35.21-.68.31-1.01-.1.34-.22.67-.31,1.01ZM175.37,385.65c.12-.34.26-.67.4-1-.13.33-.27.66-.4,1ZM176.33,383.3c.15-.33.31-.64.47-.95-.16.31-.32.62-.47.95ZM177.44,381.14c.17-.3.35-.59.53-.88-.18.29-.36.58-.53.88ZM178.67,379.17c.19-.28.39-.55.59-.81-.2.27-.4.53-.59.81ZM180.03,377.39c.21-.25.42-.49.64-.73-.22.24-.43.48-.64.73ZM172.95,398.7c-.2,1.99-.37,3.96-.53,5.91.15-1.95.33-3.93.53-5.91ZM156.16,515c1.58-4.73,3.03-9.35,4.35-13.84.66-2.25,1.28-4.46,1.87-6.64,1.47-5.44,2.72-10.65,3.73-15.58,1.19-5.81,2.08-11.41,2.75-16.86-.67,5.45-1.56,11.05-2.75,16.86-1.01,4.93-2.26,10.14-3.73,15.58-.59,2.18-1.21,4.39-1.87,6.64-1.32,4.49-2.77,9.12-4.35,13.84-.79,2.36-1.61,4.75-2.46,7.16.85-2.41,1.67-4.8,2.46-7.16ZM151.04,529.45c-1.37,3.68-2.81,7.39-4.31,11.14,1.5-3.75,2.94-7.46,4.31-11.14ZM127.85,582.32c-1.28,2.52-2.58,5.04-3.9,7.55,1.32-2.51,2.62-5.02,3.9-7.55ZM134.15,703.61c-1.48.38-2.97.78-4.45,1.18,1.48-.4,2.97-.8,4.45-1.18ZM126.42,705.68c-1.56.43-3.11.89-4.67,1.34,1.56-.45,3.11-.91,4.67-1.34ZM118.71,707.9c-1.73.52-3.45,1.06-5.18,1.6,1.73-.54,3.45-1.08,5.18-1.6ZM115.01,606.07c-1.15,1.99-2.31,3.97-3.48,5.94,1.17-1.96,2.33-3.95,3.48-5.94ZM100.43,629.56c2.28-3.4,4.53-6.88,6.73-10.41-2.21,3.53-4.45,7.01-6.73,10.41-3.8,5.67-7.69,11.15-11.66,16.37,3.97-5.22,7.86-10.69,11.66-16.37ZM34.24,693.31c4.23-1.49,8.47-2.93,12.02-5.26,7.74-5.07,15.41-11.6,22.92-19.26,5.84-5.96,11.59-12.6,17.19-19.76-5.6,7.16-11.35,13.8-17.19,19.76-7.51,7.66-15.19,14.19-22.92,19.26-3.55,2.33-7.79,3.76-12.02,5.26-.7.25-1.41.5-2.11.76.7-.26,1.4-.51,2.11-.76ZM34.5,737.79c-.27-.02-.54-.04-.81-.07.27.03.54.05.81.07ZM33.03,737.66c-.27-.03-.53-.08-.8-.12.27.04.53.09.8.12ZM30.05,694.85c-.69.27-1.37.56-2.04.85-.45.2-.89.41-1.32.62.44-.21.88-.42,1.32-.62.67-.3,1.35-.58,2.04-.85ZM31.58,737.43c-.27-.05-.53-.12-.79-.18.26.06.53.13.79.18ZM30.18,737.1c-.27-.07-.53-.16-.8-.24.26.08.53.17.8.24ZM28.81,736.69c-.28-.09-.55-.2-.82-.31.27.11.54.21.82.31ZM27.49,736.19c-.3-.12-.59-.26-.88-.4.29.14.58.28.88.4ZM26.21,735.61c-.41-.2-.81-.42-1.21-.65.39.23.8.45,1.21.65ZM24.97,734.94c-.41-.24-.8-.48-1.19-.75.39.26.78.51,1.19.75ZM20.18,731.16c-.19-.2-.38-.4-.56-.6.18.21.37.4.56.6ZM19.24,730.12c-.17-.21-.35-.41-.52-.63.17.21.34.42.52.63ZM18.38,729.02c-.16-.21-.32-.43-.47-.65.15.22.31.43.47.65ZM17.58,727.87c-.14-.22-.28-.44-.42-.66.13.22.28.44.42.66ZM16.85,726.68c-.13-.23-.25-.45-.37-.68.12.23.25.46.37.68ZM14.02,715.09c-.01.27-.02.53-.02.8,0-.27.01-.53.02-.8ZM16.5,705.67c-.24.47-.46.94-.66,1.41.2-.47.42-.94.66-1.41ZM15.64,707.59c-.13.32-.26.64-.37.96.11-.32.24-.64.37-.96ZM15.08,709.15c-.09.29-.19.58-.27.87.08-.29.18-.58.27-.87ZM14.65,710.66c-.07.28-.14.56-.2.84.06-.28.13-.56.2-.84ZM14.33,712.15c-.05.27-.1.55-.14.82.04-.27.09-.55.14-.82ZM14.13,713.62c-.03.27-.06.54-.08.81.02-.27.05-.54.08-.81ZM16.21,725.45c-.11-.23-.22-.47-.33-.7.1.24.22.47.33.7ZM15.64,724.17c-.1-.24-.19-.48-.28-.72.09.24.18.48.28.72ZM15.15,722.86c-.08-.24-.16-.49-.23-.74.07.25.15.49.23.74ZM14.74,721.52c-.07-.25-.13-.5-.19-.75.06.25.12.5.19.75ZM14.42,720.14c-.05-.25-.09-.51-.14-.76.04.26.09.51.14.76ZM14.19,718.74c-.03-.26-.06-.52-.09-.78.02.26.05.52.09.78ZM14.05,717.32c-.02-.26-.03-.52-.03-.79,0,.26.02.53.03.79ZM20.57,731.56c.2.2.41.39.62.59-.21-.19-.42-.38-.62-.59ZM23.52,734.01c-.29-.2-.58-.41-.86-.62.28.22.57.42.86.62ZM22.29,733.09c-.24-.19-.48-.38-.71-.58.23.2.47.39.71.58ZM35.19,737.82c.25,0,.5.01.75,0-.07,0-.14.01-.21.01-.18,0-.36-.01-.54-.02ZM103.3,712.83c-16.58,5.66-47.81,22.35-63.95,24.72-.52.08-1.03.14-1.51.18h0,0c.49-.05.99-.11,1.51-.18,16.15-2.38,47.37-19.06,63.95-24.73,2.56-.88,5.13-1.72,7.7-2.54-2.57.82-5.13,1.67-7.7,2.54ZM304.82,698.27c1.09.21,2.18.42,3.28.63-1.09-.22-2.18-.43-3.28-.63ZM312.22,699.76c1.07.23,2.15.45,3.22.68-1.07-.24-2.15-.46-3.22-.68ZM319.67,701.4c1.04.24,2.08.47,3.12.72-1.04-.25-2.08-.48-3.12-.72ZM327.19,703.21c.98.24,1.96.48,2.93.73-.98-.25-1.96-.49-2.93-.73ZM334.98,705.23c.82.22,1.65.44,2.47.66-.82-.23-1.65-.44-2.47-.66ZM360.97,714.01c-5.8-2.41-11.38-4.59-16.2-6.02-.04-.01-.08-.02-.13-.04.04.01.08.02.13.04,4.81,1.43,10.4,3.61,16.2,6.02,1.74.72,3.5,1.46,5.26,2.21-1.76-.75-3.52-1.49-5.26-2.21ZM388.62,725.23c.67.23,1.33.44,1.97.65-.64-.2-1.3-.42-1.97-.65ZM391.37,726.12c.73.22,1.44.43,2.13.61-.69-.18-1.4-.39-2.13-.61ZM394.04,726.88c.79.2,1.54.38,2.27.52,0,0,0,0,.01,0,0,0,0,0-.01,0-.72-.14-1.48-.32-2.27-.52ZM397.79,727.65c.16.02.31.04.46.06-.15-.02-.31-.04-.46-.06ZM399.26,727.84c.17.02.34.03.51.05-.17-.02-.34-.03-.51-.05ZM400.75,727.96c.15,0,.29.02.44.03-.15,0-.29-.02-.44-.03ZM402.57,728.02s0,0,.01,0c0,0,0,0-.01,0,0,0,0,0,0,0ZM406.91,727.68c-.09.01-.18.03-.27.04.09-.01.18-.03.27-.04ZM404.79,727.93c-.06,0-.12,0-.19.01.06,0,.12,0,.19-.01ZM408.63,727.35c.09-.02.19-.04.28-.07-.09.02-.19.04-.28.07ZM410.54,726.83c.09-.03.17-.06.26-.08-.09.03-.17.06-.26.08ZM412.37,726.16c.07-.03.13-.06.19-.08-.07.03-.13.06-.19.08ZM414.1,725.36s.05-.03.08-.04c-.03.01-.05.03-.08.04ZM415.62,724.48s.06-.04.09-.05c-.03.02-.06.04-.09.05ZM417.04,723.51c.05-.04.11-.08.17-.12-.05.04-.11.08-.17.12ZM418.38,722.4c.06-.05.12-.11.18-.17-.06.06-.12.11-.18.17ZM419.63,721.18c.06-.06.11-.12.17-.18-.06.06-.11.12-.17.18ZM424.73,708.88c0-.06,0-.12,0-.18,0,.06,0,.12,0,.18ZM420.76,719.86c.04-.06.09-.11.13-.17-.04.06-.09.11-.13.17ZM421.77,718.44s.05-.08.07-.11c-.02.04-.05.08-.07.11ZM422.62,716.97s.01-.02.02-.03c0,0-.01.02-.02.03ZM423.29,715.53c.02-.05.04-.1.06-.15-.02.05-.04.1-.06.15ZM423.86,713.97c.02-.07.05-.14.07-.22-.02.07-.05.14-.07.22ZM424.3,712.33c.02-.08.03-.16.05-.24-.02.08-.03.16-.05.24ZM424.59,710.63c0-.08.02-.15.03-.23,0,.08-.02.15-.03.23ZM424.71,707.09s0-.03,0-.05c0,.02,0,.03,0,.05ZM424.53,705.41s-.01-.09-.02-.14c0,.05.01.09.02.14ZM424.2,703.67c-.02-.07-.03-.15-.05-.22.02.07.03.15.05.22ZM423.7,701.89c-.03-.09-.06-.17-.09-.26.03.09.06.17.09.26ZM423.02,700.08c-.04-.08-.07-.17-.11-.25.04.08.08.17.11.25ZM422.15,698.26c-.04-.07-.08-.14-.12-.21.04.07.08.14.12.21ZM421.09,696.46s-.05-.07-.07-.11c.02.04.05.07.07.11ZM419.89,694.75s-.04-.05-.06-.08c.02.03.04.05.06.08ZM418.54,693.11c-.06-.06-.11-.13-.17-.19.06.06.11.13.17.19ZM416.97,691.45c-.08-.08-.16-.15-.24-.23.08.08.16.15.24.23ZM410.71,686.53c.07.04.14.09.21.13-.07-.04-.14-.09-.21-.13ZM412.88,688c.09.07.19.13.28.2-.09-.07-.19-.13-.28-.2ZM414.9,689.57c.09.08.19.16.28.23-.09-.08-.19-.16-.28-.23ZM495.08,630.89c2.23.6,4.46,1.22,6.68,1.87-2.22-.64-4.45-1.26-6.68-1.87ZM441.08,620.18c1.29.16,2.58.34,3.86.51-1.29-.18-2.58-.35-3.86-.51ZM447.87,621.1c1.29.19,2.58.38,3.87.58-1.29-.2-2.58-.4-3.87-.58ZM454.65,622.15c1.29.21,2.59.43,3.88.66-1.29-.22-2.59-.45-3.88-.66ZM461.42,623.31c1.3.23,2.59.48,3.89.73-1.3-.25-2.59-.49-3.89-.73ZM468.18,624.59c1.31.26,2.61.53,3.91.8-1.3-.27-2.61-.55-3.91-.8ZM474.92,625.99c1.33.29,2.65.59,3.97.89-1.32-.3-2.65-.6-3.97-.89ZM481.66,627.5c1.38.32,2.75.66,4.12,1-1.37-.34-2.75-.68-4.12-1ZM488.37,629.14c1.51.38,3.01.78,4.51,1.18-1.5-.4-3.01-.8-4.51-1.18ZM503.01,633.13c.16.05.32.1.48.16-.16-.05-.33-.11-.48-.16ZM504.38,633.57c.2.06.4.14.6.2-.2-.07-.41-.14-.6-.2ZM505.84,634.07c.22.08.44.16.67.23-.22-.08-.45-.16-.67-.23ZM507.4,634.61c.23.08.47.17.71.25-.24-.09-.48-.17-.71-.25ZM509.03,635.2c.26.09.52.19.78.29-.26-.1-.52-.19-.78-.29ZM510.75,635.83c.27.1.54.2.82.3-.27-.1-.55-.2-.82-.3ZM512.54,636.5c.28.11.56.21.85.32-.28-.11-.57-.21-.85-.32ZM514.41,637.2c.28.11.57.21.85.32-.29-.11-.57-.22-.85-.32ZM516.37,637.95c.29.11.57.22.86.33-.29-.11-.57-.22-.86-.33ZM518.84,638.89c.29.11.59.22.88.34-.29-.11-.59-.22-.88-.34ZM521.06,639.74c.31.12.62.23.93.35-.31-.12-.62-.24-.93-.35ZM523.12,640.52c.31.12.62.24.94.35-.31-.12-.62-.24-.94-.35ZM525.16,641.29c.35.13.7.26,1.04.39-.35-.13-.7-.26-1.04-.39ZM527.21,642.06c.38.14.76.28,1.14.42-.38-.14-.76-.28-1.14-.42ZM529.28,642.83c.68.25,1.35.5,2.03.74-.67-.24-1.35-.49-2.03-.74ZM531.91,643.79c.48.17.97.35,1.45.52-.48-.17-.97-.35-1.45-.52ZM534.16,644.59c.42.15.83.29,1.24.44-.41-.14-.83-.29-1.24-.44ZM536.26,645.32c.39.13.77.27,1.16.4-.38-.13-.77-.26-1.16-.4ZM538.3,646.01c.37.12.74.25,1.1.36-.36-.12-.73-.24-1.1-.36ZM540.28,646.66c.36.11.71.23,1.07.34-.35-.11-.71-.23-1.07-.34ZM542.23,647.27c.35.11.69.21,1.03.31-.34-.1-.69-.21-1.03-.31ZM544.12,647.84c.33.1.67.19,1,.29-.33-.09-.66-.19-1-.29ZM545.95,648.36c.32.09.64.17.96.26-.32-.08-.64-.17-.96-.26ZM547.71,648.82c.32.08.63.16.93.23-.31-.07-.62-.15-.93-.23ZM549.41,649.23c.3.07.6.13.9.2-.3-.06-.6-.13-.9-.2ZM551.03,649.58c.29.06.58.11.86.16-.28-.05-.57-.1-.86-.16ZM552.56,649.86c.28.05.55.08.83.12-.27-.04-.54-.08-.83-.12ZM554.01,650.06c.27.03.53.06.8.08-.26-.02-.52-.05-.8-.08ZM555.35,650.19c.27.02.53.03.79.03-.26,0-.52-.01-.79-.03ZM556.59,650.24c.27,0,.52-.01.77-.03-.23.01-.46.03-.72.03-.02,0-.04,0-.06,0ZM558.73,650.07c-.31.06-.65.1-1.01.13.36-.03.7-.07,1.01-.13,3.2-.62,5.97-1.84,8.31-3.47-2.34,1.63-5.1,2.85-8.31,3.47ZM579.09,700.71c-.41,5.37-.66,10.77-.78,16.19.12-5.42.38-10.82.78-16.19ZM811.99,1111.89c5.64,1.34,11.36,2.36,17.16,2.98.7.08,1.41.14,2.12.19-.71-.05-1.42-.11-2.12-.19-5.8-.62-11.51-1.64-17.15-2.98ZM803.12,1109.48c1.11.34,2.22.66,3.34.98-1.11-.31-2.23-.64-3.34-.98ZM836.58,1115.25c.41,0,.82,0,1.23,0-.08,0-.16,0-.25,0-.33,0-.65,0-.98,0ZM832,1115.1c.47.03.95.06,1.43.08-.48-.02-.95-.05-1.43-.08ZM834.31,1115.21c.43.01.87.03,1.31.04-.44,0-.87-.02-1.31-.04ZM843.6,1115.14c-.26,0-.52.02-.78.03.26,0,.52-.02.78-.03ZM840.29,1115.23c-.17,0-.33,0-.49,0,.17,0,.33,0,.49,0ZM848.35,1114.95c.63-.03,1.27-.05,1.9-.08-.63.03-1.27.05-1.9.08ZM855.79,1114.68c-.61.01-1.22.03-1.83.05.61-.02,1.22-.03,1.83-.05ZM852.99,1114.76c-.55.02-1.09.04-1.64.06.55-.02,1.09-.04,1.64-.06ZM862.77,1114.71c.99.04,1.97.08,2.94.16-.97-.07-1.95-.12-2.94-.16ZM859.28,1114.64c.91,0,1.81.02,2.71.04-.9-.03-1.8-.04-2.71-.04ZM908.77,1100.34c8.25-3.78,16.22-8.03,23.89-12.73-7.67,4.7-15.64,8.95-23.89,12.73ZM945.51,1079.14c-2.57,1.81-5.17,3.59-7.81,5.3,2.64-1.71,5.24-3.49,7.81-5.3ZM979.22,1050.87s.1-.09.15-.14c-.05.05-.1.09-.15.14ZM951.04,1075.13c.78-.58,1.55-1.16,2.32-1.75-.77.59-1.54,1.17-2.32,1.75ZM960.76,1067.51c.52-.43,1.04-.86,1.56-1.29-.52.43-1.04.86-1.56,1.29ZM970.15,1059.41c.27-.25.55-.5.82-.74-.27.25-.55.5-.82.74ZM1084.55,873.99c-1.89,5.16-3.85,10.33-5.88,15.51,2.03-5.17,3.98-10.35,5.88-15.51ZM1085.84,870.42c5.21-14.43,9.89-28.74,14.1-42.71l5.71-28.56-5.71,28.56c-4.2,13.97-8.89,28.29-14.1,42.71Z"/>
  <path class="b" d="M999.3,557.95c.18,0,.37,0,.55,0,11.46-.19,20.75-5.51,25.5-14.6,5.02-9.6,4.23-22.26-1.97-31.49-5.72-8.53-15.04-12.85-25.55-11.88-18.24,1.7-27.01,16.75-26.24,30.74.75,13.62,10.5,27.25,27.72,27.25Z"/>
</svg>