<?xml version="1.0" encoding="UTF-8"?>
<svg id="Layer_1" xmlns="http://www.w3.org/2000/svg" version="1.1" viewBox="0 0 32 32">
  <!-- Generator: Adobe Illustrator 29.5.1, SVG Export Plug-In . SVG Version: 2.1.0 Build 141)  -->
  <defs>
    <style>
      .st0 {
        fill: #b1632e;
      }
    </style>
  </defs>
  <path class="st0" d="M16,.3C7.3000002.3.3,7.3000002.3,16s7.0000002,15.7000008,15.7,15.7000008,15.7000008-7,15.7000008-15.7000008S24.7000008.3000002,16,.3ZM17.2000008,29.2999992v-9.6000004h3.6000004c.7000008,0,1.2000008-.5,1.2000008-1.2000008s-.5-1.2000008-1.2000008-1.2000008h-3.6000004v-3.6000004c0-1.3000002,1.1000004-2.3999996,2.3999996-2.3999996h2.3999996c.7000008,0,1.2000008-.5,1.2000008-1.1999998s-.5-1.1999998-1.2000008-1.1999998h-2.3999996c-2.7000008,0-4.8000002,2.1999998-4.8000002,4.8000002v3.5999994h-3.5999994c-.6999998,0-1.1999998.5-1.1999998,1.2000008s.5,1.2000008,1.1999998,1.2000008h3.6000004v9.6000004c-7.3000002-.7000008-12.6999998-7.1000004-12-14.5.7-7.3000002,7.1000004-12.6999998,14.5-12s12.6999989,7.1000004,12,14.5c-.6000004,6.3999996-5.6999989,11.5-12,12h-.1000004Z"/>
</svg>