<?xml version="1.0" encoding="UTF-8"?>
<svg id="Layer_1" data-name="Layer 1" xmlns="http://www.w3.org/2000/svg" version="1.1" viewBox="0 0 512 512">
  <defs>
    <style>
      .cls-1 {
        fill: white;
        stroke-width: 0px;
      }
    </style>
  </defs>
  <path class="cls-1" d="M298.7,512H0v-42.7h298.7v42.7ZM426.7,469.3h-85.3v42.7h85.3v-42.7ZM512,384H213.3v42.7h298.7v-42.7ZM170.7,384h-85.4v42.7h85.3v-42.7h0ZM298.7,298.7H0v42.7h298.7v-42.7ZM426.7,298.7h-85.3v42.7h85.3v-42.7ZM411.2,230c119.7,34.5,140.4-151.2,16-143.9-22.4-30.3-59.2-46.6-96.7-42.8-47.6-52.9-129.1-57.3-182-9.7-4.5,4.1-8.8,8.5-12.7,13.2C78.7,30.9,19.7,64.4,3.9,121.5c-2.5,9.1-3.8,18.5-3.9,27.9.7,59.3,49.4,106.8,108.7,106.1,21-.3,41.5-6.7,58.9-18.4,37.4,22.6,83.6,24.9,123,6.2,39,21,87,15.7,120.6-13.3h0Z"/>
</svg>