<?xml version="1.0" encoding="UTF-8"?>
<svg id="a" data-name="Layer_1" xmlns="http://www.w3.org/2000/svg" width="305.76" height="511.02" viewBox="0 0 305.76 511.02">
  <defs>
    <style>
      .b {
        fill: #00a95a;
      }
    </style>
  </defs>
  <path class="b" d="M209.71,511.02H51.22c-4.93-3.42-6.47-8.12-6.2-14.05.39-8.46.1-16.96.1-25.44,0-3.76,0-7.51,0-11.29-1.55-.14-2.37-.27-3.19-.29-12.55-.33-15.12-2.93-15.13-15.4,0-10.64.1-21.29-.12-31.93-.03-1.47-1.36-3.93-2.52-4.22C7.41,404.22.07,395.17.04,378.01c-.04-26.61-.03-53.22,0-79.84,0-9.31-.22-18.64.28-27.93.65-11.95,9.75-22.45,21.37-24.34,4.45-.72,5.19-2.37,5.17-6.33-.14-30.6-.08-61.21-.07-91.81,0-11.39,2.86-14.29,14.01-14.3,13.95,0,27.91,0,41.86,0,1.76,0,3.51,0,5.3,0v-31.79c-2.15,0-3.95,0-5.75,0-17.94,0-35.88.1-53.82-.04-14.6-.11-24.86-10.12-25.24-24.59-.21-7.98-.26-15.98.09-23.94.59-13.18,10.88-22.99,23.97-23.09,12.62-.1,25.25-.14,37.87.02,21.81.28,41.43,17.73,42.81,39.53,1.19,18.89.59,37.89.78,56.84.02,2.13,0,4.27,0,6.61h44.17c0-2.27,0-4.09,0-5.91.01-27.78-.14-55.55.09-83.33C153.15,19.75,172.99.23,196.99.05c11.96-.09,23.92-.04,35.88-.01,14.93.04,25.31,10.33,25.51,25.33.09,6.32.03,12.64.01,18.96-.04,17.14-10.16,27.32-27.24,27.35-17.61.03-35.22,0-52.82,0-1.75,0-3.49,0-5.19,0v61.78c2.14,0,3.93,0,5.73,0,14.62,0,29.24-.05,43.85.02,8.16.04,11.73,3.75,11.8,11.98.04,4.94,0,9.88,0,15.29,8.63,0,16.74-.31,24.82.11,5.24.27,10.64.92,15.59,2.56,19.43,6.45,30.77,23.48,30.79,45.77.05,58.21.02,116.43,0,174.64,0,1.99-.11,3.99-.24,5.98-1.27,20.05-15.56,37.51-35.25,41.11-9.68,1.77-19.82.99-29.76,1.34-1.9.07-3.81,0-5.97,0,0,5.81.05,10.8-.01,15.78-.09,7.66-3.98,11.61-11.65,11.86-2.06.07-4.13.01-6.44.01,0,12.83-.2,24.8.08,36.76.14,6.13-1.4,11.05-6.8,14.34ZM47.26,245.12c4.72,0,8.85-.02,12.98,0,19.17.13,30.35,11.21,30.39,30.37.07,34.26.08,68.52,0,102.78-.04,19.11-11.27,30.14-30.48,30.23-4.25.02-8.5,0-12.8,0v30.79h167.07c0-2.08,0-3.86,0-5.64,0-74.34-.04-148.69.1-223.03,0-4.58-1.21-5.83-5.8-5.82-51.99.16-103.98.1-155.97.1h-5.49v40.21ZM234.87,181.35v230.91c8.12,0,15.9.02,23.68,0,16.37-.04,27-10.72,27.03-27.23.04-22.95.01-45.9.01-68.85,0-36.59.05-73.17-.04-109.76-.03-12.81-8.59-23.45-21.28-24.86-9.62-1.06-19.45-.21-29.4-.21ZM47.29,184.44h166.8v-30.44H47.29v30.44ZM195.79,460.28H65.45v30.38h130.35v-30.38ZM20.75,313.54c-.26.72-.46,1.02-.46,1.32-.04,21.92-.11,43.83-.04,65.75.02,5.07,2.95,7.68,8.32,7.72,10.78.08,21.56.05,32.34.02,7.03-.02,9.42-2.45,9.43-9.64.03-20.26.02-40.51,0-60.77,0-1.42-.21-2.85-.33-4.39H20.75ZM87.71,81.18c3.04-16.35-6.86-30.17-22.77-31.06-12.07-.68-24.22-.21-36.33-.2-3.6,0-5.48,1.78-5.42,5.56.09,6.15,0,12.29.02,18.44.01,6.58.86,7.49,7.42,7.5,17.59.03,35.17.02,52.76,0,1.46,0,2.93-.16,4.31-.24ZM173.21,51.29c20.29,0,40.35.02,60.41-.02,3.44,0,4.49-2.32,4.5-5.34.02-6.48-.07-12.97.05-19.44.09-4.61-1.88-6.64-6.56-6.57-10.46.15-20.91.03-31.37.05-18.34.04-29.02,12.11-27.03,31.33ZM20.22,293.06h50.1c0-7.04.12-13.67-.04-20.31-.11-4.61-2.89-7.3-7.6-7.35-11.61-.11-23.21-.11-34.82,0-4.68.05-7.49,2.8-7.6,7.38-.16,6.63-.04,13.27-.04,20.28Z"/>
</svg>