<?xml version="1.0" encoding="UTF-8"?>
<svg id="Layer_1" xmlns="http://www.w3.org/2000/svg" version="1.1" viewBox="0 0 388.2000122 388.2000122">
  <!-- Generator: Adobe Illustrator 29.5.1, SVG Export Plug-In . SVG Version: 2.1.0 Build 141)  -->
  <defs>
    <style>
      .st0 {
        fill: #b1632e;
      }
    </style>
  </defs>
  <g id="Layer_11" data-name="Layer_1">
    <g>
      <path class="st0" d="M387.6000061,189.5c-.7999878-1-1.6000061-2-2.3999939-3-1.5-2-3.1000061-4.1000061-5-5.8999939-57.2000122-57.3000031-115.2999878-115.4000015-172.6000061-172.6000061-2-2-4.1999969-3.6999998-6.3999939-5.4000001-.8999939-.7-1.8000031-1.4-2.6999969-2.0999999-.3999939-.4-1-.5-1.6000061-.5h-6c-.6000061,0-1.1000061.2-1.6000061.6-1,.8000001-2,1.6-3,2.4-2,1.5-4.1000061,3.0999999-5.8999939,5C122.5999985,65.6999969,63.9000015,124.4000015,6.0999999,182.3000031c-7.3000002,7.3000031-8.1000004,15.5-2.0999999,21.5,5.6000004,5.6000061,12.8999996,5.3000031,20-.6999969v168.5c0,11.3999939,5.1000004,16.5,16.5,16.5h306.8999939c11.7999878,0,16.7999878-5.1000061,16.7999878-17v-168h.1000061c3,1.6999969,6.1000061,3.5,9.6000061,4.1999969,8.2999878,1.6000061,12.5-6.1999969,14-9.1999969.2000122-.3999939.2999878-.8000031.2999878-1.1999969v-6c0-.6000061-.2000122-1.1000061-.6000061-1.6000061l.0000305.1999969ZM336.7999878,178v182.6000061H51.5v-182.6000061c0-1.1999969.5-2.6999969,1-3.1000061,47.1999969-47.3000031,95.1999969-95.3000031,141.6999969-141.8000031.3999939.4000015.8000031.7999992,1.1999969,1.2000008,46.1999969,46.2999992,93.1000061,93.1999931,139.3999939,139.3999901,1.5,1.6000061,2.1000061,2.6000061,2.1000061,4.3999939l-.1000061-.0999756Z"/>
      <path class="st0" d="M252.1000061,164.3999939c-18.3999939-10.3000031-37.3999939-10.1999969-56.1999969.1999969-1.6000061.8999939-2,.8000031-3.1999969,0-12.1999969-7.1999969-25.1000061-9.5-38.5-6.8000031-21.6999969,4.3000031-36.5999985,17.5-43.0999985,38.1000061-6.5999985,21-1.9000015,40.3999939,13.5999985,56.3000031,16.6999969,17.0999908,34,34.1999969,50.6999969,50.9000092l8.5,8.5c3.1000061,3.1000061,6.6999969,4.6000061,10.1999969,4.6000061s7.1000061-1.5,10.1999969-4.6000061c5.6999969-5.7000122,11.3999939-11.3999939,17.1999969-17.1000061,14.1000061-14,28.6000061-28.5,42.7999878-43,9.2999878-9.5,15.1000061-21.8999939,15.5-33.3999939,0-.1999969.1000061-.5.1000061-.8000031.1000061-24-9.7999878-42.8000031-27.8999939-52.9000092h.1000061ZM247.1999969,229.3000031c-.1999969.3000031-.3999939.5-.6000061.8000031-.5.6999969-1,1.3000031-1.6000061,1.8999939-16.8999939,16.8000031-33.6999969,33.5-51.3000031,51-.6999969-.8999939-1.5-1.7999878-2.3000031-2.7000122-6.6999969-6.7000122-13.3999939-13.3999939-20.1000061-20.1000061-8.8000031-8.8000031-17.8000031-17.8000031-26.6999969-26.8000031-11.6999969-11.8000031-11.8999939-29.3999939-.6000061-40.8000031,5.6000061-5.6999969,13-8.6000061,20.3000031-8.6000061s13.3000031,2.3000031,18.6999969,7.1000061c8.3999939,7.3000031,14,7.3000031,22.5,0,10.8999939-9.3999939,27.1000061-9.1999969,37.6999969.5,10.8000031,9.8000031,12.5,26.1000061,4.1000061,37.6999969l-.0999756.0000305Z"/>
    </g>
  </g>
</svg>