<?xml version="1.0" encoding="UTF-8"?>
<svg id="Layer_1" xmlns="http://www.w3.org/2000/svg" version="1.1" viewBox="0 0 32 32">
  <!-- Generator: Adobe Illustrator 29.5.1, SVG Export Plug-In . SVG Version: 2.1.0 Build 141)  -->
  <defs>
    <style>
      .st0 {
        fill: #b1632e;
      }
    </style>
  </defs>
  <path class="st0" d="M16,8.8000002c-4,0-7.1999998,3.1999998-7.1999998,7.1999998s3.1999998,7.2000008,7.1999998,7.2000008,7.2000008-3.2000008,7.2000008-7.2000008-3.2000008-7.1999998-7.2000008-7.1999998ZM16,20.7999992c-2.6000004,0-4.8000002-2.2000008-4.8000002-4.8000002s2.1999998-4.8000002,4.8000002-4.8000002,4.7999992,2.1999998,4.7999992,4.8000002-2.2000008,4.8000002-4.7999992,4.8000002ZM23.2000008.4h-14.3999996C4.0999999.4.4,4.0999999.4,8.8000002v14.4000006c0,4.7000008,3.6999999,8.3999996,8.3999992,8.3999996h14.3999996c4.6999989,0,8.3999996-3.7000008,8.3999996-8.3999996v-14.3999996c.0000019-4.7000012-3.6999989-8.4000011-8.3999977-8.4000011ZM29.2000008,23.2000008c0,3.3999996-2.6000004,6-6,6h-14.3999996c-3.4000001,0-6-2.6000004-6-6v-14.3999996c0-3.4000001,2.5999999-6,6-6h14.3999996c3.3999996,0,6,2.5999999,6,6v14.3999996ZM25.6000004,8.1999998c0,1-.7999992,1.8000002-1.7999992,1.8000002s-1.7999992-.8000002-1.7999992-1.8000002.7999992-1.8000002,1.7999992-1.8000002,1.7999992.8000002,1.7999992,1.8000002Z"/>
</svg>