<?xml version="1.0" encoding="UTF-8"?>
<svg id="a" xmlns="http://www.w3.org/2000/svg" version="1.1" viewBox="0 0 32 32">
  <!-- Generator: Adobe Illustrator 29.5.1, SVG Export Plug-In . SVG Version: 2.1.0 Build 141)  -->
  <defs>
    <style>
      .st0 {
        fill: #b1632e;
      }
    </style>
  </defs>
  <path class="st0" d="M16,8c-2.7600002,0-5,2.2399998-5,5s2.2399998,5,5,5,5-2.2399998,5-5-2.2399998-5-5-5ZM16,16c-1.6599998,0-3-1.3400002-3-3s1.3400002-3,3-3,3,1.3400002,3,3-1.3400002,3-3,3ZM16,2c-6.0699997,0-10.9899998,4.9299998-11,11,0,3.9200001,1.8099999,8.0799999,5.25,12.0299988,1.54,1.7800007,3.2799997,3.3899994,5.1800003,4.7900009.3400002.2399998.7999992.2399998,1.1499996,0,1.8999996-1.3999996,3.6299992-3,5.1700001-4.7900009,3.4300003-3.9500008,5.25-8.1100006,5.25-12.0299997,0-6.0700002-4.9300003-10.9899998-11-10.999999ZM16,27.75c-2.0699997-1.6200008-9-7.5900002-9-14.75,0-4.9699993,4.0300007-9,9-9s9,4.0300007,9,9c0,7.1499996-6.9300003,13.1199989-9,14.75Z"/>
</svg>