<?xml version="1.0" encoding="UTF-8"?>
<svg id="a" xmlns="http://www.w3.org/2000/svg" version="1.1" viewBox="0 0 2207.7 2109">
  <!-- Generator: Adobe Illustrator 29.5.1, SVG Export Plug-In . SVG Version: 2.1.0 Build 141)  -->
  <defs>
    <style>
      .st0 {
        fill: #fff;
      }
    </style>
  </defs>
  <path class="st0" d="M1854.6,0c181.1,20.4,324.5,154.2,351,335.3l.3,822.6c-14.6,56.2-82.4,81.4-127.4,41.3-6.4-5.7-26.4-39.2-26.4-45.8V423.8l-854.1,511.3c-59.8,35.8-129.8,35.8-189.5,0L154.4,423.8v1028.2c0,6.1,15.9,48.1,19.9,57.1,91.8,206,362.7,118.3,540.1,139.1,81.8,31.5,70,134-13.8,152.6-108.7-4.6-224.2,7.5-332.1.6C174.6,1789,20.3,1645.9,0,1452.2V349C15.4,166.7,170.3,16.1,351.8,0h1502.8ZM384.6,155.5c-77.3,3.2-149.2,37-191.1,103l3.8,9,903.6,537.1,912.2-542.8c-41.2-74.4-118-102.3-199.5-107.7l-1429,1.4h0Z"/>
  <path class="st0" d="M1941.3,1801.2h-850.1c-6.8,0-36.9-17.3-43.5-23.9-24.5-24.6-29.3-63.8-11.1-93.3,6.4-10.4,33.5-36.9,44.9-36.9h859.8c-47.9-61.6-123.5-113.5-171-173.3-67.8-85.3,17.6-173.5,103.7-118.2,88.4,107.7,232.7,207.8,315.5,315.5,24.3,31.6,24.4,69.7,0,101.4-84.1,109.3-230.5,210.9-320.3,320.3-71.7,53.5-161.8-35.8-108.6-108.6l180.7-182.9h0Z"/>
</svg>