<?xml version="1.0" encoding="UTF-8"?>
<svg id="a" data-name="Layer 1" xmlns="http://www.w3.org/2000/svg" width="817.76" height="1160.45" viewBox="0 0 817.76 1160.45">
  <defs>
    <style>
      .b {
        fill: #b2642c;
      }
    </style>
  </defs>
  <path class="b" d="M815.29,864.33c-1.64-108.96-5.64-219.44-9.51-326.35v-.11c-2.22-61.35-4.52-124.78-6.33-186.98-1.02-35-1.19-71.21-1.35-106.23-.23-49.28-.47-100.2-3.04-149.85-1.04-19.99-2.05-31.09-3.48-38.3-3.82-19.14-23.35-40.72-38.49-48.12-10.64-5.2-22.35-7.73-35.81-7.73-7.88,0-15.22.85-21.7,1.6-4.84.56-9.01,1.04-12.41,1.08-74.92.93-151.54,1.38-234.22,1.38s-168.98-.45-265.95-1.38c-10.99-.11-22.88-.86-34.39-1.58-13.72-.87-27.91-1.76-42.32-1.76-8.77,0-16.74.33-24.38,1C45.47,4.22,29.34,24.36,22.22,40.69c-7.38,16.92-7.44,34.93-7.5,50.83-.02,4.34-.03,8.82-.22,12.69l-.14,2.79C8.69,223.12,2.84,343.2.61,460.39c-.04,2.1-.12,4.72-.21,7.49-1,31.76-.92,57.5,9.72,75.65,6.92,11.8,23.41,27.69,45.94,48.83l.09.08c4.18,3.93,7.8,7.32,10.17,9.64,10.56,10.33,21.6,20.22,32.27,29.78,9.12,8.17,18.56,16.63,27.23,24.97,50.04,48.13,100.75,97.48,149.8,145.21,109.37,106.44,222.47,216.5,336.58,321.27l2.22,2.04c11.63,10.71,24.83,22.86,41.41,31.42,4.66,2.41,9.9,3.68,15.14,3.68h20.48c4.97,0,9.95-1.15,14.42-3.32,24.34-11.82,41.48-31.78,49.55-57.73,6.21-19.97,6.86-43.45,1.88-67.9-1.48-7.28-3.94-13.36-5.91-18.24-.42-1.05-.94-2.32-1.34-3.38,11.24-3.24,21.69-8.43,30.1-15.15,14.54-11.61,20.99-27.3,25.71-38.75,1.94-4.72,3.95-9.6,5.65-11.95,4.09-5.66,6.26-12.35,6.26-19.33v-47.84c0-4.32-.83-8.53-2.47-12.53ZM725.42,1023.73c-1-2.49-1.96-4.88-2.66-7.12.69,2.24,1.65,4.63,2.66,7.12.64,1.58,1.29,3.19,1.9,4.83-.61-1.64-1.26-3.24-1.9-4.83ZM148.7,633.04c-5.16-4.96-10.46-9.85-15.8-14.7.03.03.07.06.1.09,5.31,4.83,10.57,9.68,15.7,14.61,22.87,22,45.71,44.09,68.52,66.21.33.32.66.64.98.95-23.14-22.45-46.3-44.85-69.51-67.17ZM130.49,616.15s0,0,0,0c.83.75,1.65,1.5,2.48,2.25-.03-.03-.07-.06-.1-.09-.79-.72-1.58-1.44-2.37-2.15ZM124.42,610.68s-.02-.02-.03-.03c.68.61,1.37,1.23,2.05,1.85-.1-.09-.2-.18-.3-.27-.57-.52-1.15-1.03-1.72-1.55ZM116.37,603.46c-.27-.24-.53-.48-.8-.72.95.85,1.89,1.7,2.84,2.55-.02-.02-.04-.03-.06-.05-.66-.59-1.32-1.19-1.98-1.78ZM109.2,596.99c-.23-.2-.45-.41-.68-.61,1.24,1.13,2.48,2.26,3.73,3.38,0,0-.01,0-.02-.01-1.02-.92-2.03-1.84-3.04-2.76ZM100.89,589.37s-.09-.08-.13-.12c1.8,1.67,3.62,3.34,5.44,5.01,0,0,0,0,0,0-1.78-1.62-3.54-3.25-5.3-4.88ZM100.71,589.21s.07.06.1.1c-.21-.19-.42-.38-.63-.58.17.16.35.32.52.48ZM106.2,594.27c.62.56,1.24,1.12,1.86,1.68.21.19.43.39.64.58-.83-.76-1.67-1.51-2.51-2.27,0,0,0,0,0,0ZM112.27,599.77c.88.8,1.77,1.59,2.65,2.39.29.26.57.51.86.77-1.18-1.06-2.35-2.11-3.53-3.17,0,0,.01,0,.02.01ZM118.68,605.53c1.89,1.7,3.78,3.39,5.67,5.09.01.01.02.02.03.03-2-1.79-4-3.58-5.99-5.38.1.09.19.17.29.26ZM126.72,612.75c1.25,1.13,2.51,2.25,3.76,3.38,0,0,0,0,0,0-1.34-1.22-2.69-2.43-4.04-3.64.09.08.19.17.28.25ZM307.4,786.92c-1.13-1.1-2.25-2.19-3.38-3.29,6.81,6.63,13.63,13.26,20.44,19.89-.91-.88-1.82-1.77-2.72-2.65-4.78-4.65-9.56-9.3-14.34-13.95ZM274.83,755.23c-.61-.59-1.21-1.18-1.82-1.77,2.8,2.73,5.61,5.45,8.41,8.18-.05-.04-.09-.09-.14-.13-2.15-2.09-4.3-4.19-6.45-6.28ZM245.58,726.79c-.34-.33-.68-.66-1.01-.98,3.53,3.43,7.05,6.85,10.58,10.27-.02-.02-.04-.04-.06-.05-3.17-3.08-6.34-6.16-9.51-9.24ZM218.44,700.44c-.33-.32-.66-.64-1-.97,3.82,3.7,7.63,7.4,11.45,11.1-.02-.02-.05-.04-.07-.07-3.46-3.36-6.92-6.71-10.38-10.07ZM228.93,710.61c4.96,4.82,9.92,9.64,14.88,14.46.34.34.69.67,1.03,1.01-5.33-5.18-10.65-10.35-15.98-15.53.02.02.05.04.07.07ZM255.2,736.13c4.99,4.86,9.99,9.71,14.98,14.57.57.55,1.13,1.1,1.7,1.65-5.58-5.43-11.16-10.86-16.74-16.28.02.02.04.04.06.05ZM281.7,761.91c2.11,2.05,4.21,4.1,6.32,6.15,4.65,4.53,9.3,9.05,13.95,13.58-6.8-6.62-13.61-13.24-20.41-19.86.05.04.09.09.14.13ZM330.5,809.4c1.05,1.02,2.09,2.04,3.14,3.06-1.36-1.32-2.71-2.64-4.07-3.96.31.3.62.6.93.91ZM47.71,91.14c-.01,3.35-.02,6.69-.1,9.97.08-3.29.09-6.63.1-9.97ZM47.45,105.82c.02-.48.04-.96.06-1.44-.02.48-.04.96-.06,1.44-.36,7.35-.72,14.72-1.08,22.09.36-7.37.72-14.73,1.08-22.09ZM83.24,34.03c.52-.06,1.04-.11,1.58-.16,1.91-.17,3.83-.31,5.74-.42-1.92.12-3.83.25-5.74.42-2.38.21-4.6.52-6.68.93-1.45.28-2.83.61-4.14.98.24-.07.49-.13.73-.2,1.09-.29,2.22-.55,3.41-.78.52-.1,1.05-.2,1.59-.29.54-.09,1.09-.17,1.64-.25,1.11-.15,2.26-.28,3.45-.39-.53.05-1.06.1-1.58.16ZM104.54,33.02c.7,0,1.39,0,2.09,0,.52,0,1.05,0,1.57,0-1.23,0-2.45,0-3.67,0,0,0,0,0,.01,0ZM720.68,119.49c-.23-6.29-.9-12.85-1.61-19.79-.36-3.48-.71-7.01-1.02-10.54.31,3.53.66,7.06,1.02,10.54.71,6.94,1.38,13.5,1.61,19.79ZM740.98,887.31c.03,1.33.07,2.56.12,3.72.03.77.07,1.51.12,2.22s.09,1.38.14,2.02c-.05-.64-.1-1.32-.14-2.02s-.08-1.44-.12-2.22c-.05-1.16-.09-2.4-.12-3.72-3.62-177.61-7.35-352.75-12.43-528.18,5.08,175.42,8.81,350.57,12.43,528.18ZM761.67,55.68c.19.35.36.7.53,1.04-.17-.35-.35-.69-.53-1.04ZM760.44,53.52c.25.41.49.82.72,1.23-.23-.41-.47-.81-.72-1.23ZM736.45,940.13h0c.16-.16.3-.41.43-.72-.13.31-.28.56-.43.72ZM716.47,1009.69s0-.01,0-.02c.13,1.49.29,2.99.55,4.48,0,.05.02.11.03.16,0,.01,0,.03,0,.04-.01-.07-.03-.14-.04-.2-.26-1.49-.42-2.97-.55-4.46ZM688.64,1048.72s0,.04.01.05c.13.72.27,1.45.4,2.18-.13-.76-.27-1.5-.41-2.24ZM687.64,1043.67s0,.04.01.06c.21.99.42,2.03.64,3.12,0,0,0,0,0,.01-.22-1.11-.44-2.18-.65-3.19ZM74.91,487.95c.06-.77.13-1.54.2-2.31-.07.76-.14,1.54-.2,2.31-.26,3.09-.43,6.22-.44,9.12,0-2.9.19-6.03.44-9.12ZM74.89,503.97c.18,1.14.42,2.17.74,3.05-.32-.88-.56-1.91-.74-3.05-.27-1.71-.4-3.68-.42-5.8.03,2.12.16,4.09.42,5.8ZM84.28,252.24c.62-17.47,1.23-34.52,1.83-51.04.36-9.91.72-19.62,1.07-29.12-.35,9.5-.71,19.21-1.07,29.12-.6,16.51-1.21,33.56-1.83,51.04-.24,6.87-.49,13.81-.73,20.8.24-6.99.49-13.93.73-20.8ZM726.37,937.82h0c1-.09,4.11-.83,6.07-1.43-1.96.6-5.06,1.33-6.07,1.43ZM721.95,980.66c.46.01.92.04,1.39.04-.47,0-.93-.03-1.4-.04,0,0,0,0,.01,0ZM723.57,980.69c-.53,0-1.05-.02-1.57-.03.58.02,1.16.03,1.74.03-.13,0-.25,0-.38,0h0c.13,0,.25,0,.38,0-.06,0-.12,0-.17,0ZM720.52,991.71c.15,1.35.26,2.69.34,4.03-.08-1.33-.18-2.68-.34-4.03-.23-2.03-.56-4.07-1.06-6.14h0c.5,2.07.83,4.11,1.06,6.14ZM717.82,932.22c1.13,1.82,2.26,3.26,3.69,4.22-1.43-.96-2.57-2.39-3.69-4.22ZM717.06,1014.36s0-.03,0-.04c.1.54.21,1.07.34,1.61,0,0,0,0,0,0-.13-.53-.24-1.05-.33-1.57ZM717.39,1015.93c.06.23.13.46.19.68,0,0,0,0,0,0-.06-.23-.13-.46-.19-.69,0,0,0,0,0,0ZM717.58,1016.64s0,0,0,0c.1.38.2.76.31,1.14-.11-.38-.21-.75-.31-1.13ZM717.41,931.55c-.33-.56-.67-1.15-1.01-1.78.34.62.68,1.22,1.01,1.78ZM711.94,979.39h0s0,0,0,0h0ZM711.93,922.99s.02.03.04.04c-.01-.01-.02-.03-.04-.04ZM714.74,979.98c-.93-.16-1.84-.36-2.74-.58-.01,0-.03,0-.04,0,.91.23,1.83.42,2.78.58ZM711.46,892.65c-1.8-.3-3.64-.45-5.46-.45-2.7,0-5.38.33-7.97.98-3.21-.75-7.66-1.67-12.77-1.67-2.43,0-4.84.21-7.16.62-5.25.92-10.1,3.03-14.26,6.1-7.56,1.42-14.35,3.57-20.78,10.01-8.98,8.99-11.99,22.36-7.78,34.3.13.89.28,2.67.38,4.02.43,5.37,1.02,12.73,3.96,20.67.86,2.34,2.12,5.03,3.93,7.78.03.78.06,1.55.09,2.34.27,7.1.58,15.05,2.88,28.19-.02.09-.04.17-.05.25-.34,1.6-.74,3.47-1.07,5.57L102.52,494.66c.26-5.25,1.1-12.35,1.45-15.24.67-5.65,1.25-10.52,1.39-15.09,3.58-121.77,8.02-243.94,11.49-336.78.12-3.34.02-8.12-.13-14.72-.07-3.06-.12-5.84-.16-8.36l574.96,1.05c.54,5.38,1.02,10.46,1.18,15.01,9.52,256.14,15.02,509.13,20.28,767.35.04,1.83.1,3.52.17,5.1-.56-.12-1.12-.23-1.7-.32ZM686.91,1040.43s-.02-.09-.03-.14c-.02-.1-.05-.2-.07-.29,0,0,0,0,0,0,.03.14.07.29.1.44ZM687.53,1043.18h0c.04.17.08.36.12.54,0-.02,0-.04-.01-.06-.03-.16-.07-.32-.1-.48ZM687.28,1042.05s0,0,0,0c.04.19.08.38.13.58,0-.03-.01-.06-.02-.09-.03-.16-.07-.32-.1-.48ZM677.7,1019.68s0,0,0,0c0,.58.03,1.13.1,1.66.14.93.47,1.86.91,2.79-.21-.45-.4-.91-.55-1.36-.16-.48-.29-.95-.36-1.43-.08-.52-.11-1.08-.1-1.66ZM676.23,967.96s0,0,0,0c.07,1.06.12,2.07.17,3.05-.05-.98-.11-1.99-.17-3.05ZM676.19,967.42s0,0,0,0c.01.18.02.36.04.54,0,0,0,0,0,0-.01-.18-.02-.36-.04-.54ZM676.1,966.09c0-.11-.02-.24-.03-.35h0c0,.11.02.24.03.35,0,.1.01.19.02.29h0c0-.1-.01-.19-.02-.29ZM675.94,964.03s0,0,0,0c.02.22.04.43.05.64,0,0,0,0,0,0-.02-.21-.03-.42-.05-.64ZM675.78,962.24s0,0,0,0c.02.19.03.37.05.55,0,0,0,0,0,0-.02-.18-.03-.36-.05-.55ZM675.59,960.32s0,.02,0,.03c.07.65.13,1.27.18,1.89,0,0,0,0,0,0-.06-.61-.12-1.24-.18-1.89,0-.04-.02-.07-.03-.1,0,.02.02.05.02.07ZM675.83,962.8c.04.42.07.83.11,1.23,0,0,0,0,0,0-.03-.4-.07-.81-.11-1.23,0,0,0,0,0,0ZM675.99,964.67c.03.36.06.71.08,1.06h0c-.03-.35-.05-.7-.08-1.06,0,0,0,0,0,0ZM676.12,966.37c.03.35.05.7.07,1.05,0,0,0,0,0,0-.02-.34-.05-.69-.07-1.05h0ZM679.25,1010.22c-.04.19-.07.38-.11.57,0,0,0,0,0,0,.04-.19.08-.37.11-.56ZM678.84,1012.22l-.03.17s0,0,0,0c.01-.05.02-.11.03-.16ZM679.09,1011.02s0,0,0,0c-.06.29-.12.57-.18.86.06-.29.12-.57.18-.86ZM679.14,1010.78c-.02.08-.03.15-.04.23,0,0,0,0,0,0,.02-.08.03-.16.05-.24,0,0,0,0,0,0ZM678.8,1012.39c-.12.56-.23,1.11-.35,1.66,0,0,0,0,0,0,.11-.55.23-1.1.35-1.66,0,0,0,0,0,0ZM677.77,1018.33s0,0,0,0c0,.06,0,.12-.01.18,0,0,0,0,0,0,0-.06,0-.12.01-.18ZM677.95,1016.82s0,0,0,0c-.01.09-.03.17-.04.26,0,0,0,0,0,0,.01-.08.02-.17.04-.25ZM678.46,1014.05c-.04.18-.07.36-.11.54.04-.18.07-.37.11-.55,0,0,0,0,0,0ZM677.95,1016.82s0,0,0,0c.05-.34.11-.69.17-1.04-.06.35-.12.69-.17,1.04ZM677.92,1017.08c-.06.42-.11.84-.15,1.25h0c.04-.41.09-.83.15-1.26,0,0,0,0,0,0ZM677.76,1018.51c-.03.4-.05.79-.05,1.17,0,0,0,0,0,0,0-.38.02-.77.05-1.17,0,0,0,0,0,0ZM682.9,925.37s-.06.09-.08.14c.17-.32.36-.6.63-.76-.23.13-.4.36-.55.61ZM677.91,924.26c-.05,0-.11.02-.16.03.05,0,.11-.02.16-.03.16-.41.36-.86.62-1.32-.26.46-.46.92-.62,1.32ZM661.72,933.33c1.22,3.19,1.52,6.97,1.84,10.97.35,4.37.71,8.88,2.31,13.21,1.14,3.08,3.35,4.66,4.96,5.54.3,3.31.47,6.12.6,8.72-.12-2.6-.3-5.41-.6-8.72-1.6-.88-3.82-2.46-4.96-5.54-1.6-4.33-1.96-8.84-2.31-13.21-.32-4-.62-7.78-1.84-10.97-.26-.69-.37-1.41-.32-2.12-.05.71.05,1.43.32,2.12ZM674.75,1004.23c-.16-.84-.31-1.66-.46-2.45-.41-2.26-.75-4.32-1.03-6.24.28,1.92.62,3.98,1.03,6.24.14.79.3,1.61.46,2.45.32,1.66-.32,4.69-.89,7.35-.56,2.63-1.13,5.33-1.16,7.94.04-2.61.61-5.31,1.16-7.94.56-2.67,1.2-5.69.89-7.35ZM674.69,1027.29c-.65-1.22-1.2-2.49-1.55-3.83.35,1.34.9,2.61,1.55,3.83ZM686.17,1037.48s0,0,0,0c-.05-.17-.09-.32-.14-.47.02.06.03.12.05.18.03.1.05.18.08.29ZM686.37,1038.23s0,0,0,0c-.04-.17-.09-.32-.13-.47.01.05.03.09.04.14.03.11.06.21.09.33ZM686.58,1039.07s0,0,0,0c-.05-.19-.09-.36-.14-.54.01.05.03.1.04.15.03.13.06.25.1.38ZM686.81,1039.99s0,0,0,0c-.05-.21-.1-.41-.15-.61.01.04.02.08.03.13.04.16.08.31.12.48ZM687.04,1040.98s0,0,0,0c-.05-.23-.11-.45-.16-.67.01.05.02.09.03.14.04.17.08.34.12.52ZM687.28,1042.04s0,0,0,0c-.05-.21-.09-.42-.14-.62,0,.04.02.08.03.12.04.16.07.32.11.49ZM687.14,1041.41c-.03-.14-.06-.28-.09-.41,0,0,0,0,0,0,.04.17.08.36.12.54,0-.04-.02-.08-.03-.12ZM686.65,1039.37c-.02-.09-.05-.19-.07-.29,0,0,0,0,0,0,.03.13.07.28.1.42-.01-.04-.02-.08-.03-.13ZM686.44,1038.51c-.02-.09-.05-.18-.07-.27,0,0,0,0,0,0,.04.13.07.28.11.42-.01-.05-.03-.1-.04-.15ZM686.23,1037.73c-.02-.08-.04-.17-.07-.24,0,0,0,0,0,0,.03.12.07.26.1.39-.01-.05-.03-.09-.04-.14ZM686.02,1036.97s-.03-.09-.04-.13c0,0,0,0,0,0,.03.1.06.21.09.32-.02-.06-.04-.12-.05-.18ZM685.86,1036.45c.04.12.08.24.12.38,0,0,0,0,0,0-.06-.2-.12-.39-.17-.56-.14-.42-.3-.84-.48-1.25-.18-.41-.38-.82-.59-1.23.43.81.79,1.64,1.07,2.48.01.04.03.09.04.14-.01-.04-.03-.1-.04-.14.02.05.04.12.05.17ZM685.14,924.5s.09,0,.13,0c.01,0,.03,0,.04,0h0c-.06,0-.12,0-.17,0h0ZM685.26,924.5s-.07,0-.11,0c.04,0,.07,0,.11,0,.02,0,.04,0,.06,0-.02,0-.04,0-.06,0ZM88.89,122.83c0-.99-.02-2.09-.04-3.29.02,1.2.04,2.3.04,3.29ZM88.85,119.48c-.03-1.78-.08-3.77-.12-5.93.05,2.16.09,4.15.12,5.93ZM88.49,90.11c.01-.86.02-1.7.04-2.53-.02.83-.03,1.67-.04,2.53ZM88.56,86.28c.02-.78.05-1.54.07-2.27-.03.73-.05,1.49-.07,2.27ZM88.46,94.13c0,1.35,0,2.71.01,4.05,0-1.35-.01-2.71-.01-4.05ZM88.9,124.24c0,.88-.01,1.64-.04,2.27.02-.63.03-1.39.04-2.27ZM81.31,338.51c.24-7.16.48-14.29.72-21.37-.24,7.08-.48,14.21-.72,21.37ZM87.52,162.65c.23-6.23.46-12.37.68-18.39-.22,6.03-.45,12.16-.68,18.39ZM680.49,1080.69c.06.95.07,1.86-.03,2.68h0c.09-.82.09-1.73.03-2.68ZM680.17,1073.89c-.13.43-.2.86-.23,1.29-.04.81.07,1.62.19,2.45-.12-.83-.24-1.64-.19-2.45.02-.43.09-.86.23-1.29.13-.43.33-.87.62-1.3.3-.46.65-.84,1.01-1.15-.37.31-.71.69-1.01,1.15-.29.44-.49.87-.62,1.3ZM686.01,1069.63c.02-.19.03-.4.04-.62,0,.22-.02.43-.04.62-.22.06-.44.12-.61.17.17-.05.39-.11.61-.17ZM685.08,1076.9c.02.12.04.24.06.38-.04-.3-.09-.58-.12-.82.01.11.03.22.05.34,0,.03.01.07.02.11ZM685.5,1080.55c-.02-.41-.06-.8-.1-1.18-.06-.59-.13-1.14-.2-1.63.02.16.05.33.07.51.09.7.18,1.5.23,2.34,0-.01,0-.03,0-.04ZM684.97,1086.2c.16-.51.28-1.04.37-1.57-.04.26-.1.53-.16.79-.06.26-.13.52-.21.78ZM685.57,1074.96c-.1.04-.19.07-.27.11-.12.06-.2.12-.27.19.24-.24.86-.42,1.62-.62-.41.11-.79.22-1.09.33ZM687.39,1042.55s.01.06.02.09c.04.18.08.35.12.53,0,0,0,0,0,0-.05-.21-.09-.42-.14-.63ZM688.54,1048.17s0,0,0-.01c.04.2.08.41.11.61,0-.02,0-.04-.01-.05-.03-.18-.07-.37-.1-.55ZM688.29,1046.86s0,0,0-.01c.04.2.08.41.12.62,0-.02,0-.05-.01-.07-.03-.18-.07-.36-.1-.54ZM688.39,1047.4s0,.05.01.07c.04.23.09.45.13.68,0,0,0,0,0,.01-.05-.26-.1-.51-.15-.77ZM690.49,1072.43c-.06.14-.12.26-.18.37.11-.18.21-.39.29-.65-.03.1-.07.19-.11.28ZM706,920.19s.02,0,.04,0c-.01,0-.02,0-.04,0h0ZM709.45,921.14s-.09-.06-.14-.08c.05.02.1.05.14.08ZM716.26,1006.71s0,0,0-.01c.03.66.07,1.33.11,1.99,0,0,0,0,0,0-.05-.66-.08-1.32-.11-1.98ZM716.13,1003.32c-.04-1.27-.07-2.54-.11-3.81,0,0,0,0,0,0,.04,1.27.07,2.54.11,3.82.03.9.06,1.79.1,2.69,0,0,0,0,0,0-.04-.9-.07-1.79-.1-2.69ZM715.91,996.92c.04.75.07,1.5.09,2.24h0c-.03-.75-.06-1.5-.09-2.24ZM716,999.16c0,.11,0,.23.01.34,0,0,0,0,0,0,0-.11,0-.23-.01-.34h0ZM716.22,1006.01c.01.23.03.46.04.68,0,0,0,0,0,.01-.01-.23-.03-.46-.04-.69,0,0,0,0,0,0ZM716.38,1008.69c.02.32.06.65.09.97,0,0,0,.01,0,.02-.03-.33-.07-.66-.09-.99h0ZM721.39,985.66c.65.02,1.31.03,1.97.03h0c-.66,0-1.32-.01-1.97-.03ZM733.11,934.08c-.04.17-.07.35-.11.54-.05.22-.1.45-.15.68.05-.23.1-.46.15-.68.04-.19.08-.37.11-.54.05-.23.1-.47.15-.71-.05.24-.1.47-.15.71ZM746.76,899.3c-.05-.42-.09-.85-.14-1.31,0,0,0,0,0,0,.05.45.09.89.14,1.31ZM746.49,896.65h0c.03.37.07.73.1,1.08h0c-.04-.35-.07-.71-.1-1.08ZM746.25,893.59s0,0,0,0c.02.34.05.67.07.99h0c-.02-.32-.05-.65-.07-.99ZM746.15,891.85h0c.02.36.04.72.06,1.07,0,0,0,0,0,0-.02-.35-.04-.7-.06-1.07ZM746.06,889.91s0-.01,0-.02c.02.42.03.84.05,1.25,0,0,0,0,0,0-.02-.4-.04-.81-.05-1.23ZM745.98,887.33s0-.04,0-.06c.01.68.03,1.34.05,1.98,0,0,0,0,0,0-.02-.61-.04-1.25-.05-1.91ZM744.13,797.58s0,0,0-.01c.15,7,.3,13.99.44,20.99,0,0,0,0,0,0-.14-6.99-.29-13.98-.44-20.97ZM742.98,743.28c.05,2.16.09,4.32.14,6.49h0c-.05-2.16-.09-4.32-.14-6.49ZM741.6,898.04c-.03-.3-.06-.61-.09-.93.03.32.06.63.09.93ZM741.85,900.39c-.03-.29-.07-.59-.1-.9.03.31.07.61.1.9ZM738.7,919.62c.29-.62.56-1.21.82-1.77-.25.56-.52,1.15-.82,1.77ZM739.82,928.72h0s-.02.05-.04.08c.01-.02.02-.05.03-.08ZM743.12,749.77h0c.33,15.61.66,31.21.99,46.82,0,0,0,0,0,.01-.33-15.61-.65-31.22-.99-46.83ZM744.57,818.83c.43,20.6.85,41.19,1.27,61.78.02,1.05.04,2.09.06,3.14-.44-21.64-.88-43.29-1.33-64.93,0,0,0,0,0,.01ZM746.03,889.26c0,.2.02.4.02.6,0,0,0,.01,0,.02,0-.21-.02-.41-.02-.62,0,0,0,0,0,0ZM746.11,891.16c.01.23.02.45.03.67,0,0,0,0,0,0-.01-.22-.02-.45-.03-.68,0,0,0,0,0,0ZM746.21,892.93c.01.22.03.44.04.65,0,0,0,0,0,0-.01-.22-.03-.43-.04-.65,0,0,0,0,0,0ZM746.32,894.59c0,.11.02.24.02.35,0-.11-.02-.24-.02-.35h0ZM746.49,896.64h0s0-.08-.01-.13c0,.05,0,.09.01.13ZM746.59,897.75c0,.08.02.17.02.24,0,0,0,0,0,0,0-.08-.02-.17-.02-.25,0,0,0,0,0,0ZM716.87,33.67c.13,0,.27,0,.4,0,.08,0,.16,0,.24,0,0,0,0,0,0,0-.22,0-.43,0-.65,0,0,0,0,0,0,0ZM72.37,463.36c-.01.4-.03.82-.06,1.26.02-.44.04-.86.06-1.26.43-14.48.86-28.97,1.31-43.45-.45,14.48-.89,28.97-1.31,43.45ZM668.45,1126.09c.83.47,1.67.92,2.51,1.36h20.48c4.61-2.24,8.7-4.84,12.33-7.75,1.81-1.46,3.51-2.99,5.09-4.6-.22.22-.44.45-.67.67,0,0-.01.01-.02.02-1.38,1.36-2.85,2.66-4.41,3.91-1.75,1.4-3.61,2.72-5.58,3.98-.95.61-1.92,1.2-2.93,1.76-1.23.7-2.51,1.37-3.82,2.01h-20.48c-.85-.44-1.68-.89-2.51-1.36ZM741.13,926.07h0c.31-.65.62-1.27.9-1.86.01-.02.03-.05.04-.08-.3.62-.62,1.27-.94,1.93ZM743.61,920.88c.08-.18.17-.37.25-.55.18-.39.34-.76.5-1.12.16-.36.31-.72.46-1.06-.29.69-.61,1.41-.96,2.18-.26.57-.54,1.17-.83,1.79.2-.43.39-.84.58-1.24ZM753.19,978.78c-.72.35-1.45.7-2.2,1.03.74-.33,1.48-.67,2.2-1.03ZM759.16,975.39c-.95.63-1.94,1.23-2.96,1.81,1.02-.58,2-1.18,2.96-1.81ZM776.45,642.37c0,.18.01.36.02.55-.26-7.52-.51-15.05-.77-22.57,0,0,0,0,0,0,.26,7.34.5,14.68.75,22.03ZM777.85,684.7c.01.38.02.75.04,1.13-.27-8.38-.53-16.75-.81-25.13,0,.01,0,.02,0,.03.27,7.99.52,15.98.77,23.97ZM779.48,738.39c0,.07,0,.14,0,.2-.35-12.51-.72-25.02-1.11-37.53,0,0,0,.02,0,.02.39,12.43.75,24.87,1.1,37.3ZM775.05,944.12c-.7,1.71-1.41,3.42-2.15,5.11.73-1.69,1.44-3.4,2.15-5.11ZM780.62,931.55c-1.24,2.41-2.36,4.91-3.44,7.46,1.08-2.54,2.2-5.05,3.44-7.46ZM780.7,620.28c.02.48.03.96.05,1.44-.02-.48-.03-.96-.05-1.44ZM779.49,738.77c0-.06,0-.12,0-.18.03.92.06,1.85.08,2.77-.02-.87-.05-1.73-.08-2.6ZM778.38,701.04c-.15-4.69-.3-9.38-.45-14.07-.01-.38-.02-.75-.04-1.13.16,5.08.33,10.15.49,15.23,0,0,0-.02,0-.02ZM777.08,660.67c-.19-5.6-.38-11.19-.57-16.79,0-.19-.01-.38-.02-.57.2,5.8.4,11.59.59,17.39,0-.01,0-.02,0-.03ZM775.7,620.29c0-.26-.02-.51-.03-.77,0,.26.02.52.03.77h0ZM770.16,257.94c.04,8.93.1,17.91.17,26.92-.07-9.01-.13-18-.17-26.92ZM771.1,338.13c0,.21,0,.41.01.62,0-.21,0-.41-.01-.62ZM778.28,936.47c-.74,1.67-1.46,3.38-2.17,5.08.71-1.71,1.42-3.41,2.17-5.08ZM783.28,926.89c.48-.75.97-1.48,1.49-2.19v-47.84l-1.82-4.24,1.82,4.24v47.84c-2.06,2.85-3.78,6-5.34,9.28,1.17-2.47,2.43-4.85,3.86-7.09ZM782.83,683.77c-.23-7.13-.46-14.26-.7-21.38.24,7.12.47,14.25.7,21.38ZM777.8,538.96c0,.25.02.49.03.74,0-.25-.02-.49-.03-.74-1.39-38.39-2.81-77.59-4.12-116.81,1.31,39.22,2.73,78.42,4.12,116.81ZM779.3,580.57c-.02-.49-.04-.98-.05-1.47.02.49.04.98.05,1.47ZM772.14,374.43c.25,8.06.5,16.12.76,24.2-.26-8.07-.51-16.14-.76-24.2ZM769.46,170.53c-.4-24.88-1.1-49.78-2.37-74.27-.44-8.44-1.01-18.19-1.8-25.79.79,7.6,1.36,17.35,1.8,25.79,1.27,24.49,1.96,49.39,2.37,74.27ZM759.52,52.04c-.46-.71-.95-1.41-1.45-2.12.51.71.99,1.41,1.45,2.12ZM712.58,28.79c1.56-.08,3.12-.12,4.69-.12,4.61,0,8.79.39,12.66,1.19-3.87-.8-8.05-1.19-12.66-1.19-1.57,0-3.13.04-4.69.12-1.56.08-3.11.19-4.65.32-.85.07-1.7.15-2.55.24.85-.08,1.7-.17,2.55-.24,1.54-.13,3.09-.24,4.65-.32ZM683.51,31.34c3.62-.04,7.38-.39,11.3-.81-3.92.43-7.68.77-11.3.81-4.69.06-9.39.11-14.09.17,4.7-.05,9.4-.11,14.09-.17ZM417.93,32.7c-13.03-.02-26.2-.05-39.53-.09-5.34-.02-10.71-.03-16.1-.05,5.39.02,10.76.04,16.1.05,13.33.04,26.49.07,39.53.09ZM329.68,32.42c2.77.01,5.54.03,8.29.04-2.76-.01-5.52-.03-8.29-.04ZM182.73,31.34c42.48.41,83.05.72,122.13.95-39.08-.23-79.65-.54-122.13-.95-7.33-.07-14.88-.4-22.41-.82,7.53.42,15.07.75,22.41.82ZM57.2,38.96c6.01-5.21,14.03-8.43,24.16-9.73-10.13,1.31-18.15,4.52-24.16,9.73-1.32,1.14-2.54,2.39-3.67,3.72,1.13-1.34,2.35-2.58,3.67-3.72ZM47.88,51.88c.75-1.73,1.6-3.36,2.54-4.89-.94,1.53-1.79,3.16-2.54,4.89-.32.73-.61,1.46-.89,2.21-.89,2.39-1.59,4.89-2.15,7.45.56-2.57,1.25-5.06,2.15-7.45.28-.75.58-1.48.89-2.21ZM42.71,91.63c.02-5.19.04-10.44.32-15.59.15-2.69.37-5.36.7-7.97-.33,2.62-.56,5.28-.7,7.97-.28,5.15-.3,10.41-.32,15.59,0,1.16,0,2.33-.02,3.51,0-1.17.01-2.34.02-3.51ZM42.46,105.58c.05-1.12.1-2.27.13-3.42-.03,1.16-.08,2.3-.13,3.42l-.14,2.79.14-2.79ZM37.08,217.98c.35-7.69.71-15.37,1.07-23.04-.36,7.67-.72,15.35-1.07,23.04-1.01,22.07-1.99,44.2-2.91,66.34.92-22.15,1.89-44.28,2.91-66.34ZM33.87,508.28h0c.04.35.07.69.11,1.03h0c-.04-.34-.08-.68-.11-1.03ZM33.59,505.24s0,0,0,0c.03.32.05.63.08.95,0,0,0,0,0,0-.03-.31-.06-.62-.08-.94ZM33.17,497.99h0c.01.34.02.68.04,1.02h0c-.01-.34-.03-.68-.04-1.02ZM33.01,491.39h0c0,.34,0,.68.01,1.02,0,0,0-.01,0-.02,0-.34-.01-.67-.01-1.01ZM33,488.2s0,.04,0,.05h0s0-.04,0-.05ZM33.37,502.17s0,.02,0,.03c0,0,0,0,0,0,0,0,0-.02,0-.03ZM33.1,495.78s0,0,0,0c-.01-.38-.02-.76-.03-1.14,0,0,0,0,0,0,0,.38.02.77.03,1.15ZM33,488.25c0,1.04,0,2.08.02,3.13h0c-.01-1.04-.02-2.09-.02-3.13h0ZM33.03,492.42c.01.74.02,1.47.04,2.21,0,0,0,0,0,0-.02-.74-.03-1.49-.04-2.23,0,0,0,.01,0,.02ZM33.1,495.78c.02.74.05,1.48.07,2.21h0c-.03-.74-.05-1.47-.07-2.21,0,0,0,0,0,0ZM33.21,499.01c0,.14,0,.27.02.41,0-.13,0-.27-.02-.41h0ZM33.37,502.2c.06,1.03.13,2.04.22,3.04,0,0,0,0,0,0-.08-1.01-.15-2.02-.22-3.05,0,0,0,0,0,0ZM33.67,506.19c.06.71.13,1.4.2,2.1h0c-.07-.69-.14-1.39-.2-2.1,0,0,0,0,0,0ZM33.98,509.31c.03.26.05.53.09.79-.03-.26-.06-.53-.09-.79h0ZM33.61,461.01c0,.52-.02,1.06-.04,1.62.01-.56.03-1.1.04-1.62,0-.24.01-.48.02-.72,0,.24-.01.48-.02.72ZM37.46,327.97c-.43,11.48-.83,22.95-1.22,34.41.38-11.46.79-22.93,1.22-34.41ZM32.4,329.42c.28-7.65.58-15.3.88-22.95-.3,7.65-.59,15.3-.88,22.95ZM28.52,464.68s0-.07,0-.11c0,.04,0,.07,0,.11ZM30.23,394.28c-.23,7.76-.44,15.51-.64,23.26.2-7.74.42-15.5.64-23.26ZM28.01,487.26c0,.74,0,1.48,0,2.22,0-.74,0-1.48,0-2.22ZM28.14,478.09s0,.07,0,.1c0-.03,0-.07,0-.1ZM28.16,498.08c.05,1.39.11,2.76.18,4.1-.08-1.34-.14-2.71-.18-4.1ZM29.2,511.73c.16,1.2.33,2.37.52,3.5-.19-1.13-.37-2.3-.52-3.5ZM34.28,529.36c-.72-1.23-1.36-2.6-1.94-4.09.57,1.49,1.21,2.86,1.94,4.09.68,1.15,1.59,2.46,2.7,3.9-1.11-1.44-2.02-2.75-2.7-3.9ZM30.36,518.53c.15.67.31,1.32.47,1.97-.17-.64-.32-1.29-.47-1.97ZM38.79,535.51c.97,1.17,2.04,2.4,3.19,3.68-1.15-1.28-2.22-2.51-3.19-3.68ZM97.53,593.1c5.24,4.86,10.56,9.66,15.82,14.38-5.26-4.72-10.58-9.51-15.82-14.38ZM141.89,633.49c-3.47-3.28-6.98-6.55-10.54-9.79,3.56,3.24,7.07,6.51,10.54,9.79ZM257.54,745.38c12.62,12.27,25.17,24.48,37.61,36.59,48.06,46.77,96.83,94.23,146.09,141.63-49.25-47.4-98.03-94.86-146.09-141.63-12.44-12.11-24.99-24.32-37.61-36.59ZM692.09,1132.4c-.21.03-.43.05-.65.05.22,0,.43-.02.65-.05ZM696.84,1130.29c2.09-1.14,4.1-2.37,6.01-3.67-1.92,1.3-3.92,2.53-6.01,3.67ZM705.66,1124.61c2.74-2.08,5.27-4.34,7.61-6.78-2.33,2.44-4.87,4.7-7.61,6.78ZM730.28,1085.13c-.46,2.03-1,4.02-1.6,5.95.6-1.93,1.14-3.92,1.6-5.95,3.25-14.21,3.12-30.68-.42-48.04-.36-1.79-.84-3.52-1.38-5.21.54,1.69,1.02,3.42,1.38,5.21,3.54,17.36,3.67,33.83.42,48.04ZM745.55,981.94c-1.14.39-2.28.76-3.45,1.09,1.17-.33,2.31-.7,3.45-1.09ZM779.97,945.32c-1.55,3.77-3.12,7.59-4.95,11.26-1.22,2.45-2.55,4.83-4.06,7.1-1.86,2.78-3.99,5.37-6.53,7.68,2.54-2.31,4.67-4.9,6.53-7.68,1.51-2.26,2.84-4.65,4.06-7.1,1.83-3.67,3.4-7.49,4.95-11.26,2.68-6.51,5.21-12.66,8.84-17.69.22-.3.39-.63.53-.97-.14.34-.31.67-.53.97-3.63,5.03-6.16,11.18-8.84,17.69Z"/>
</svg>