<?xml version="1.0" encoding="UTF-8"?>
<svg id="Layer_1" data-name="Layer 1" xmlns="http://www.w3.org/2000/svg" version="1.1" viewBox="0 0 512 512">
  <defs>
    <style>
      .cls-1 {
        fill:white;
        stroke-width: 0px;
      }
    </style>
  </defs>
  <path class="cls-1" d="M405.9,512h-192c-47.2-.5-85-39.2-84.5-86.4.4-38.4,26.4-71.8,63.5-81.7,7.1-117.3,169.6-150.2,221.9-44.9,134,13.7,126.5,210.1-8.9,213ZM309.9,192c20.7,0,41.3,4.1,60.5,11.9v-.2c-1.6-6.6-3.7-13.1-6.3-19.5l84.8-49.4-21.4-36.8-84.7,49.3c-6.1-7.5-13-14.3-20.5-20.3l49.2-84.6-36.9-21.3-49.1,84.4c-9.4-3.6-19.1-6.2-29-7.8V0h-42.7v97.8c-9.8,1.5-19.4,4.1-28.7,7.7l-49-84.5-36.8,21.5,49.1,84.3c-7.5,6.1-14.4,12.9-20.6,20.4l-84.6-49.1-21.3,36.9,84.4,49.1c-3.7,9.5-6.4,19.3-7.9,29.3H.5v42.6h97.8c1.5,10,4.1,19.8,7.7,29.2l-84.2,49,21.6,36.8,114.6-67.6c21.1-66.1,82.4-111.1,151.9-111.4Z"/>
</svg>