<?xml version="1.0" encoding="UTF-8"?>
<svg id="a" data-name="Layer 1" xmlns="http://www.w3.org/2000/svg" width="392.49" height="454.06" viewBox="0 0 392.49 454.06">
  <defs>
    <style>
      .b {
        fill: #b1632d;
      }
    </style>
  </defs>
  <path class="b" d="M390.06,343.09l-93.25-119.9h53.35c6.38,0,11.55-5.16,11.55-11.53,0-2.55-.84-5.03-2.4-7.05L205.4,4.52c-3.88-5.06-11.13-6.01-16.19-2.13-.8.61-1.52,1.33-2.13,2.13L33.17,204.61c-3.89,5.05-2.95,12.3,2.11,16.19,2.02,1.56,4.5,2.4,7.05,2.4h53.35L2.43,343.09c-3.91,5.04-3,12.29,2.04,16.2,2.03,1.57,4.52,2.43,7.08,2.43h173.15v80.81c0,6.38,5.17,11.54,11.54,11.54s11.54-5.17,11.54-11.54v-80.81h173.15c6.38,0,11.54-5.17,11.55-11.54,0-2.56-.85-5.06-2.43-7.08ZM35.15,338.63l93.25-119.9c3.91-5.04,3-12.29-2.04-16.2-2.03-1.57-4.52-2.43-7.08-2.43h-53.5L196.24,30.49l130.46,169.61h-53.5c-6.38,0-11.54,5.17-11.55,11.54,0,2.56.85,5.06,2.43,7.08l93.25,119.9H35.15Z"/>
</svg>