<?xml version="1.0" encoding="UTF-8"?>
<svg id="Layer_1" xmlns="http://www.w3.org/2000/svg" version="1.1" viewBox="0 0 32 32">
  <!-- Generator: Adobe Illustrator 29.5.1, SVG Export Plug-In . SVG Version: 2.1.0 Build 141)  -->
  <defs>
    <style>
      .st0 {
        fill: #b1632e;
      }
    </style>
  </defs>
  <path class="st0" d="M30.1000004,13.6000004c0,3.3999996-1.2000008,6.3999996-3.2999992,8.6000004-2,2.1000004-4.6999989,3.2999992-7.3999996,3.2999992s-4.3999996-.8999996-5.6000004-1.7999992l-1.6000004,6.7999992c-.1000004.5-.6000004.8999996-1.1999998.8999996h-.3000002c-.6000004-.1000004-1-.7999992-.8999996-1.3999996h0l4.8000002-20.2000008c.1999998-.6000004.8000002-1,1.4000006-.8999996.6000004.1999998,1,.8000002.8999996,1.3999996l-2.5,10.7000008c.5.6000004,1.8999996,2.1000004,4.8999996,2.1000004s8.3000011-3.6000004,8.3000011-9.5S22.8000031,2.9000006,16.9000015,2.9000006,6.2000017,7.7000008,6.2000017,13.6000004c0,1.8999996.5,3.7000008,1.4000001,5.3000011.3000002.6000004,0,1.2999992-.5,1.6000004-.5999999.2999992-1.2999997.1000004-1.5999999-.3999996C1.900002,13.8000021,4.0000019,5.8000021,10.3000021,2.2000027c6.3000002-3.5999999,14.3000002-1.5,17.8999987,4.8000002,1.1000004,2,1.7999992,4.1999998,1.7999992,6.5l.1000004.0999975Z"/>
</svg>