<?xml version="1.0" encoding="UTF-8"?>
<svg id="a" data-name="Layer 1" xmlns="http://www.w3.org/2000/svg" width="704.21" height="782.97" viewBox="0 0 704.21 782.97">
  <defs>
    <style>
      .b {
        fill: #b2642c;
      }
    </style>
  </defs>
  <path class="b" d="M481.08,252.49c22.49,34.35-36.45,59.07-52.1,23.88-16.73-37.6,34.52-50.73,52.1-23.88Z"/>
  <path class="b" d="M690.39,300.05c-19.07-28.18-34.79-25.51-59.4-40.93-51.86-32.5-99.34-72.24-151.2-104.78-.83-.52-1.37-1.4-1.49-2.38-5.77-48.94-45.04-69.66-70.59-101.52-12.03-15-8.58-35.38-22.06-44.74-29.34-20.36-45.79,18.82-59.93,38.76-.61.87-1.6,1.38-2.66,1.38-47.88-.22-96.39,3.52-143.12,14.06-21.96,4.95-70.07,15.13-79.43,36.83-6.45,14.95-7.47,32.63,1.45,46.54,2.99,4.66,20.02,16.28,22.56,23.24.66,1.8-.48,3.76-2.35,4.19-49.54,11.36-123.68,49.29-53.14,92.67,1.59.98,2.04,3.1.96,4.63C51.49,294.36,1.74,343.83.05,371.53c-1.32,21.73,21.89,40.28,42.51,34.61,2.05-.56,4.04,1.06,4.02,3.19-.58,66.32,13.76,133.6,46.91,191.17l-.48,3.88c-7.74,7.69-8.2,20.27-.55,28.41l9.85,10.46c7.34,7.79,19.49,8.35,27.6,1.37,66.66-57.41,32.64-131.87,46.12-225.72,12.47-86.79,54.92-175.47,137.48-214.34,18.69-8.8,52.36-9.4,61.39-28.68,6.67-14.25-16.43-60.86-7-83.93.78-1.91,3.17-2.59,4.86-1.39,9.63,6.87,35.82,33.13,38.7,37.38,12.79,18.86,11.05,44.16,25.24,59.88.2.22.44.42.69.58,57.05,35.88,113.72,87.71,171.35,120.88,14.15,8.14,31.8,7.94,38.86,21.85,11.13,21.94.92,35.63-14.23,52.44-21.65,24.02-94.66-37.91-140.63-37.36-18.81.22-25.39,12.17-41.13,14.4-19.01,2.69-46.33-9.14-55.49,14.7-31.31,81.54,64.63,179.09,105.44,241.35,29.94,45.68,34.81,80.56,24.26,133.63,0,.04-.56,2.63-.57,2.66-2.31,12.56,2.39,23.94,17.08,27.27l12.08,2.46c11,1.61,19.7-2.82,23.45-22.04,8.57-43.9,9.18-72.15-2.52-115.46-10.62-39.34-37.22-63.07-58.41-94.89-17.48-26.25-74.76-104.98-72.46-133.12.63-7.7,1.88-3.64,5.9-4.34,15.91-2.75,28.38-3.06,43.5-10.58.88-.44,1.9-.47,2.8-.07,64.02,28.62,126.79,67.3,164.41,28.85,35.26-36.03,59.78-85.93,29.3-130.96ZM122.96,415.28c-4.39,29.71-1.6,60.03-4.31,88.75-.09.9-.1,2.1-.15,3.38-.16,3.87-5.74,4.26-6.43.44-3.65-20.17-8.83-39.97-10.79-60.54-3.23-33.75,9.33-76.48-26.35-93.3-1.71-.81-2.35-2.94-1.39-4.57,21.98-37.28,80.79-77.65,52.56-121.53-1.22-1.89-.21-4.41,1.98-4.92,58.67-13.77,86.53-52.64,34.98-97.16-1.88-1.63-1.31-4.68,1.03-5.52,46.51-16.65,97.13-19.58,146.25-21.3,1.82-.06,3.33,1.39,3.35,3.21l.45,42.19c.01,1.34-.81,2.55-2.06,3.05-115.79,45.54-171.46,148.37-189.12,267.83Z"/>
</svg>