<?xml version="1.0" encoding="UTF-8"?>
<svg xmlns="http://www.w3.org/2000/svg" version="1.1" viewBox="0 0 512 512">
  <defs>
    <style>
      .cls-1 {
        fill: #9b9b9b;
      }
    </style>
  </defs>
  <!-- Generator: Adobe Illustrator 28.7.4, SVG Export Plug-In . SVG Version: 1.2.0 Build 166)  -->
  <g>
    <g id="Isolation_Mode">
      <g>
        <path class="cls-1" d="M256,512C114.6,512,0,397.4,0,256S114.6,0,256,0s256,114.6,256,256c-.2,141.3-114.7,255.8-256,256ZM256,64c-106,0-192,86-192,192s86,192,192,192,192-86,192-192c-.1-106-86-191.9-192-192Z"/>
        <path class="cls-1" d="M224,302c-.6-33.5,17-64.7,46-81.5,14.1-7.7,19.3-25.4,11.6-39.5-7.7-14.1-25.4-19.3-39.5-11.6-9.3,5.1-15.1,14.9-15.1,25.5h-64c0-51.4,41.7-93.1,93.1-93.1,5.6,0,11.1.5,16.6,1.5,50.6,9.1,84.2,57.5,75.1,108.1-5,27.7-22.2,51.6-46.9,65.1-8.5,5.6-13.3,15.3-12.8,25.5h-64Z"/>
        <rect class="cls-1" x="225.4" y="341.2" width="64" height="64"/>
      </g>
    </g>
  </g>
</svg>