<?xml version="1.0" encoding="UTF-8"?>
<svg id="Layer_1" data-name="Layer 1" xmlns="http://www.w3.org/2000/svg" version="1.1" viewBox="0 0 512 512">
  <defs>
    <style>
      .cls-1 {
        fill: white;
        stroke-width: 0px;
      }
    </style>
  </defs>
  <path class="cls-1" d="M298.7,512c-34,0-66.6-13.4-90.5-37.5-49.7-50.1-49.7-130.9,0-181l90.5-95.9,90.9,96.4c49.2,50.2,49,130.6-.4,180.6h0c-24,24-56.6,37.5-90.5,37.4ZM106.7,256c-28.3.1-55.5-11.2-75.4-31.3-41.4-41.8-41.4-109.1,0-150.8L106.7,0l75.2,73.6c41.6,41.7,41.6,109.2.2,151-20,20.1-47.1,31.4-75.4,31.3ZM426.7,213.3c-22.6.1-44.4-8.9-60.3-25-33.1-33.4-33.1-87.3,0-120.7L426.3,1l61.4,67.3c32.4,33.5,32.1,86.8-.7,120h0c-16,16.1-37.7,25.1-60.3,25Z"/>
</svg>