<?xml version="1.0" encoding="UTF-8"?>
<svg id="Layer_1" data-name="Layer 1" xmlns="http://www.w3.org/2000/svg" version="1.1" viewBox="0 0 512 512">
  <defs>
    <style>
      .cls-1 {
        fill: white;
        stroke-width: 0px;
      }
    </style>
  </defs>
  <path class="cls-1" d="M381.3,249.9l-48.8,48.8h-59.1c-2.4-6.9-6.1-13.3-10.7-18.9l30.7-50.6,67-16.4-10.2-41.4-54.9,13.5-13.5-54.9-41.3,10,16.4,67-30.5,50.3c-8.6-1.8-17.5-1.8-26.1,0l-30.5-50.3,16.4-67-41.4-10.2-13.5,54.9-54.9-13.5-10.2,41.4,67,16.4,30.7,50.6c-4.6,5.6-8.2,12-10.7,18.9h-59l-48.8-48.8-30.2,30.3,40,40-40,40,30.2,30.2,48.8-48.8h59.1c2.4,6.9,6.1,13.3,10.7,18.9l-30.6,50.6-67,16.4,10.2,41.4,54.9-13.5,13.5,54.9,41.4-10.2-16.4-66.9,30.5-50.3c8.6,1.8,17.5,1.8,26.1,0l30.5,50.3-16.4,67,41.4,10.2,13.5-54.9,54.9,13.5,10.2-41.4-67-16.4-30.7-50.6c4.6-5.6,8.2-12,10.7-18.9h59.1l48.8,48.8,30.2-30.2-40.3-40.1,40-40-30.2-30.1ZM192,320c0-11.8,9.6-21.3,21.3-21.3s21.3,9.6,21.3,21.3-9.6,21.3-21.3,21.3-21.3-9.5-21.3-21.3ZM512,106.7h-48.5l24.1,42.1-37,21.3-23.9-41.9-24,41.8-37-21.3,24.1-42h-48.5v-42.7h48.5l-24.1-42.1L402.7.7l23.9,41.7L450.5.7l37,21.2-24,42.1h48.5v42.7Z"/>
</svg>