<?xml version="1.0" encoding="UTF-8"?>
<svg id="Layer_1" data-name="Layer 1" xmlns="http://www.w3.org/2000/svg" version="1.1" viewBox="0 0 512 512">
  <defs>
    <style>
      .cls-1 {
        fill: white;
        stroke-width: 0px;
      }
    </style>
  </defs>
  <path class="cls-1" d="M403.6,277.3c-1.7,11.8-4.7,23.3-9.2,34.4l93.5,54.5-21.3,36.9-93.6-54.5c-7,8.9-15.1,17-23.9,24l54.6,93.9-37,21.4-54.5-93.7c-11.2,4.5-22.9,7.7-34.9,9.4v108.4h-42.7v-108.4c-11.9-1.7-23.5-4.8-34.6-9.3l-54.4,93.6-36.8-21.5,54.5-93.7c-8.9-7.1-17-15.2-24.1-24.1l-93.4,54.4-21.5-36.9,93.3-54.3c-4.5-11.1-7.6-22.7-9.2-34.5H0v-42.7h108.4c1.7-11.9,4.8-23.6,9.3-34.7l-93.5-54.4,21.5-36.9,93.6,54.5c7.2-9,15.4-17.2,24.5-24.3l-54.4-93.5,36.9-21.5,54.3,93.5c11-4.4,22.4-7.4,34.1-9.1V0h42.7v108.4c11.8,1.7,23.3,4.7,34.3,9.2l54.4-93.6,36.9,21.4-54.5,93.6c9,7.1,17.2,15.3,24.3,24.3l93.9-54.6,21.5,36.9-93.9,54.6c4.5,11.1,7.6,22.7,9.3,34.5h108.4v42.7h-108.4Z"/>
</svg>