<?xml version="1.0" encoding="UTF-8"?>
<svg id="a" data-name="Layer 1" xmlns="http://www.w3.org/2000/svg" width="1140.56" height="1404.98" viewBox="0 0 1140.56 1404.98">
  <defs>
    <style>
      .b {
        fill: #b2642c;
      }
    </style>
  </defs>
  <path class="b" d="M592,.53c23.92,5.52,48.03,9.2,71.2,17.86,25.41,9.49,47.68,24.58,69.92,39.79,5.29.03,18.04-16.23,23.52-20.42,24.81-18.98,54.51-30.12,84.71-37.22,14.92,1.2,32-1.65,46.58,0,33.72,3.81,88.03,32.77,108.31,60.21,25.23,34.14-2.36,77.47-43.74,71.14-15.24-2.33-21.19-15.05-31.92-22.87-36.25-26.42-82.65-28.79-116.19,3.9-23.56,22.97-19.09,63.39-63.05,63.23-27.65-.1-36.16-23.88-53.4-40-52.8-49.37-134.22-60.76-199.17-29.22-12.64,6.14-30.86,22.93-43.53,24.95-45.92,7.35-72.5-45.78-36.85-77.94C437.17,27.96,504.38,4.1,542.68.53h49.32Z"/>
  <path class="b" d="M732.01,570.24c64.29-4.53,131.41.16,144.67,75.93v374.82c-5.79,34.43-28.48,59.19-60.2,71.82-1.39,8.38,48.96,96.48,55.5,114.35,13.55,37.05-2.99,54.81-36.04,68.97,16.29,32.97,70.4,92.18,20.08,121.56-56.19,32.8-80.22-57.49-104.02-90.24-66.45,21.86-131.89,46.79-199,66.72-32,9.5-98.03,32.81-128.29,28.18-31.35-4.8-77.06-21.33-108.82-30.92-64.25-19.39-126.88-43.3-190.67-63.97-24.18,32.24-50.72,127.92-107.29,87.92-45.1-31.89,7.2-85.91,23.24-119.24-93.61-34.59,6.02-125.28,19.46-183.31-32.23-12.47-54.84-37.07-60.2-71.81l.94-379.38c15.66-72.73,81.58-75.23,143.73-71.38,23.56-82.43,83.91-151.27,160.6-188.77,6.79-52.93-4.5-113.83,1.33-165.83,2.41-21.49,18.34-37.44,39.73-39.73,40.57-4.34,143.23-4.52,183.61,0,21.49,2.41,37.44,18.35,39.73,39.73,5.51,51.43-4.49,111.59.43,163.99,18.65,12.62,38.95,22.48,56.88,36.29,48.46,37.32,87.74,95.58,104.62,154.33ZM482.39,263.6h-87.68v90.43c29.08-3.97,58.69-3.96,87.68,0v-90.43ZM418.82,439.8c-172.44,15.56-261.47,221.87-150.08,356.71,110.47,133.72,325.54,93.62,378.1-71.12,47.51-148.89-72.49-299.62-228.03-285.59ZM131.66,658.2h-43.84v350.76h701.48v-350.76h-43.84c2.23,134.23-92.54,259.52-221.36,295.18-199.14,55.12-391.75-89.98-392.43-295.18ZM211.12,1096.65h-50.69l-53.34,109.49,84.82,30.27,19.22-139.76ZM394.71,1096.65h-93.16l-24.68,169.87,117.84,35.66v-205.52ZM575.56,1096.65h-93.16v205.52l117.84-35.64-24.68-169.88ZM716.68,1096.65h-50.69l19.22,139.76,84.82-30.27-53.34-109.49Z"/>
  <path class="b" d="M1084.56,132.65c35.93-5.26,51.94,28.39,55.13,58.67,12.66,120.07-114.75,200.68-217.5,138.07-58.06,43-127.46,55.41-193.23,20.58-36.24-19.19-108.28-90.47-50.23-124.32,42.53-24.81,54.57,16.29,76.38,35.15,25.95,22.45,64.65,26.37,94.57,9.75,30.65-17.03,34.34-57.43,77.35-50.12,24.76,4.21,28.03,28.84,49.87,37.8,38.09,15.62,78.62-11.6,75.45-53.49-.85-11.22-6.71-20.49-5.62-32.93,1.66-18.95,19.26-36.43,37.83-39.15Z"/>
  <path class="b" d="M346.35,563.25c129.16-125.66,317.31,82.24,174.44,197.74-128.94,104.23-292.87-82.51-174.44-197.74ZM432.4,614.95c-64.55,9.48-36.26,112.1,26.35,81.28,43.1-21.22,21.05-88.24-26.35-81.28Z"/>
</svg>