<?xml version="1.0" encoding="UTF-8"?>
<svg id="Layer_1" data-name="Layer 1" xmlns="http://www.w3.org/2000/svg" version="1.1" viewBox="0 0 512 512">
  <defs>
    <style>
      .cls-1 {
        fill: white;
        stroke-width: 0px;
      }
    </style>
  </defs>
  <path class="cls-1" d="M170.7,277.3H0v-42.7h170.7v42.7ZM446.2,236.9c36.6-46.1,29-113.2-17.2-149.9s-113.2-29-149.9,17.2c-15,18.9-23.2,42.3-23.1,66.4v21.4h42.7v-21.3c0-35.3,28.7-64,64-64s64,28.7,64,64-28.7,64-64,64h-149.4v42.7h213.3c23.6,0,42.7,19.1,42.7,42.7s-19.1,42.7-42.7,42.7-42.7-19.1-42.7-42.7h-42.7c0,47.1,38.2,85.3,85.3,85.3s85.3-38.2,85.3-85.3c.2-39.7-27.1-74.1-65.6-83.2ZM234.7,341.3H0v42.7h234.7c23.6,0,42.7,19.1,42.7,42.7s-19.1,42.7-42.7,42.7-42.7-19.2-42.7-42.7h-42.7c0,47.1,38.2,85.3,85.3,85.3s85.3-38.2,85.3-85.3-38.1-85.4-85.2-85.4ZM234.7,85.3C234.7,38.2,196.5,0,149.4,0s-85.4,38.2-85.4,85.3h42.7c0-23.6,19.1-42.7,42.7-42.7s42.6,19.2,42.6,42.7-19.1,42.7-42.7,42.7H0v42.7h149.3c47.2,0,85.4-38.2,85.4-85.4Z"/>
</svg>