<?xml version="1.0" encoding="UTF-8"?>
<svg id="a" xmlns="http://www.w3.org/2000/svg" version="1.1" viewBox="0 0 249.6 499.9">
  <!-- Generator: Adobe Illustrator 29.5.1, SVG Export Plug-In . SVG Version: 2.1.0 Build 141)  -->
  <defs>
    <style>
      .st0 {
        fill: #fafafa;
        fill-rule: evenodd;
      }

      .st1 {
        fill: #4e5540;
      }
    </style>
  </defs>
  <g id="the_white_parts">
    <path class="st0" d="M90.9,141.1c-.8,0-2.8,1.9-2.8,2.4.4,5.2-.9,10.7-1.6,15.8-1.1,7.3-8.1,14.6-9.5,26.4-.8,6.2.3,16.1-.6,18.6-1.4,4.3-19.7,19.9-17.5,27.6,5,17.4,15.9,19.6,32.1,21.2,8.5.9,16.7,3.4,25.4,2.7,4.6-.4,8.7-2.7,13.2-3.3,6.6-.8,12.4,4.4,19.2,2.2,2.9-1,4.4-4.1,5.4-6.7,4.7-11.6-.9-11.5-3.1-22.1s-1.1-10.9-1.6-16.3c-.6-7.2-2-13.7-1.3-19.2.7-5.7,3.6-10.3,4.5-17.2.9-7.3.5-11.7,1.3-19,.3-2.5,1.7-10.9-.6-12.5-.5-.3-2,.9-2.3.6-1.3-1.3.4-5.7-.2-7.4-.6-1.7.3-1.8.8-4.4.8-3.8,2.5-7.4,3.9-10.8,1.4-3.3-3.2-4.8-3.6-5-7-3.9-2.8-4.8.6-3.8,2.8.8,3.3-5.4.6-8.1s-3.1-2.5-2.9-3.4c.4-2.2,3.9-1.9,4.7-4.1,1.9-5.3,2.6-11.9-1.6-18.1-1.1-1.7,1.2-5.2-.8-5.7-3.9-1-11,.9-12.7.4-1.4-.5-.8-3.6-3.4-4-6.9-1-13.4,6.2-17.1,11.1-1.8,2.4-.5,7.1-1.8,9.8-.6,1.2-3,1.8-3.8,2.5-1.1,1.1.2,4.2-1.6,5.4-5,3.3-21,8.9-23.1,15.1-1.4,4.3,4.4,4.2,5.6,6.5.7,1.3-3.2,8.2-3.4,10.2-.3,1.8,6.4,11.1,3.6,12.5-1.1.5-2.6.3-3.9.2h0Z"/>
    <path class="st0" d="M94.2,145.9c-1.6-.5-2.7-1.6-4.5-1.7-6.9-.6-11.8,2-18,4.5-2.1.8-4.8.3-7.1.6-4.1.5-7.2,2.7-11.5.9-5-2.2-8.7-6.6-10.1-11.9-.8-2.9-.3-6.1-1.1-9-1.1-4.1-3.8-6.9-5.7-10.6-1.1-2.3-2.2-5.2-4.1-7-4.1-3.7-7.6-8-11.8-11.7-2.6-2.3-6.4-3.7-9.3-5.6-.9-.6-4.5-5.6-3.5-6.6.2-.2.4-.9.8-1.3,3.9-3.9,10.6-1.1,15,.4,1.8.6,3.4,1.9,5.2,2.6.1,0,2.2,1,2.2,1,0-.4-.9-1.5-1.1-2.1-.5-1.6-.7-3.3-1-5-.6-3.5,1.5-7,.7-9.4-.8-2.3-3.3-3.2-4-5.3-.4-1.2-.6-3.6,1.1-4.2,1.5-.5,3.2-1.1,4.9-1.1s2,.7,2.6.4c.8-.4,1.6-1.7,2.5-2.2,1.7-.9,3.2,1.7,4.7,1.4.8-.2,1.1-1.1,1.8-1.5,3.1-1.5,7.5-.3,8.8,2.4,1,2-2.5,4.8-3.2,6.3-1.1,2.2-1,4.7-2.1,6.7-.7,1.3-2.3,2.1-3.1,3.3-1,1.4-1.6,3.2-2.2,4.8-.7,2,0,4.1.6,6.1.2.7,1.3,2.9.9,3.6-.4.8-3.9-.4-4.4-.5-2.4-.6-4.3-2.3-6.6-3.1-2.2-.8-4.6-.8-6.8-1.6h-.4c-2.1-.8-5-2-5-1.8s1.2.9,1.4,1c1.9,1.5,4.1,2.3,6.1,3.5,2.4,1.5,10,6.8,12.1,7.2,2.9.7,6.1,0,9,.9,1.9.5,4.2,1.6,5.9,2.6,1.4.8,2.9,2.6,4.5,3,1.2.3,2.3-.9,3.4-.6,2.1.5,5.8,3.9,7.6,5.2,2.9,1.9,7.1,2.9,10.5,3.7,3.2.8,6.6,1.9,9.8,2.4,2.5.4,5.5.4,7.2,2.4,1.9,2.3,1.1,6.1,1.5,8.8.4,3.2,2.1,6.3,2.3,9.4.6,7.2-2.5,7.1-6.6,8.2h0v.5Z"/>
    <path class="st0" d="M16.6,90.5c-1.3,0-6.6,0-7.6-.7-1.7-1-3.1-2.5-4.9-3.3-1-.4-2.4,0-3.2-.5-.8-.6-.8-2.6-.4-3.4,1.1-2.5,2.8-4.9,4.4-7.1,1-1.3,1.6-2.4,3-3.5.8-.6,1.8-.7,2.7-1.1,1.2-.4,2.4-.9,3.5-1.4,1.4-.7,2.9-1.7,4.4-2.2,3.7-1.1,8.1.2,11.2,2.4,1.3.9,3.3,2.7,3.6,4.2.3,1.3,0,2.9.2,4.3.5,2.5,2.3,5,2.2,7.6,0,.7-.3,1.3-.5,1.9-.3.7-.5,1.7-1,2.3-1.6,1.9-4.9,1-7,1.1-1.4,0-2.5.4-3.9.2-1.3-.2-2.5-.8-3.9-1-.9,0-1.9.2-2.8,0h0v.2Z"/>
    <path class="st0" d="M35.7,472.6l23-1s2.9-3,2.8-10c0-6.9-1.7-18.5-1.2-23.9s7.2-35.3,7.8-49.4-1.9-17.8-1.4-22.9c.5-5,1.2-5.7,3.1-11.7s6.1-16.7,8.2-22.1c2.2-5.3,3.4-4.3,7.8-4,4.5.3,7.2,2.4,8.8-.8,1.6-3.1,6.9-31.4,10.4-34.3,3.5-3,7.3-10.6,9.3,3.6s5.6,34.5,7.8,36.1,9.8.5,14.2-1.6,7-2.3,8.4,1.5,11,21.9,13.1,27.2c2.1,5.3,6.1,26.9,9,33.5,2.8,6.6,10.7,31.1,13.5,38s4.4,11.5,4.5,12.8c0,1.3-1.6,1.5-2,5.9s-3.4,18.7-.9,19.7c2.4,1,15.6,1.5,26.2.8,10.6-.7,15.3-2.3,12.2-5.8-3.2-3.5-10-7.2-13.2-11.1s-1.8-2.6-6.9-7.7c-5.1-5-3.5-6-6.9-8-3.4-2.1-.6,0-1-4.1-.4-4.2-5.1-17.9-6-28.1-.8-10.1,1.8-23.5-1.3-34.9s-6-17.2-9.4-30.2c-3.5-13-2.7-24.4-6.2-33.5s-9.4-33.1-11.7-42.3c-2.3-9.2-9.8-19.1-9.8-19.1,0,0-38.9-2.6-47-2.4-8.1.2-30.6-3.7-32.4-.5s-2.4,9-3.2,16.2c-.8,7.2.7,6.6-5,16.5-5.7,9.9-14,31.2-13.9,36.4s4.4,6.8,5.7,10.4,4.4,8.9,2.1,18.4c-2.2,9.5-4.6,18.5-4.4,22.2.2,3.6,1.6,5.6.9,8.6s-2.6,9.2-4.4,20.2c-1.8,11,0,19.3,0,29.6s1,13.7-2.4,22-7.5,15.3-9.4,20.2c-1.9,4.8,1.2,9.3,1.2,9.3h0v.3Z"/>
  </g>
  <g id="the_green_parts">
    <path class="st1" d="M129.9,495.9c2.2.3,4.1.5,5.9.8,1.6.2,3.2.5,4.8.8.4,0,.8.4,1.1.7-.3.3-.6.8-.9.9-7.4,1.4-14.9.6-22.3.8-.6,0-1.2-.7-1.9-1.1.6-.4,1.2-1,1.8-1.1,2.6-.4,4.9-1.2,7.2-2.4.9-.5,2.6.4,4.3.6h0Z"/>
    <path class="st1" d="M99,496.5c-1.8.2-3.3.1-4.9.2-3,.2-6.3-.1-9.1.9-4.1,1.6-7.7-.3-11.5-.4-2.7,0-5.4-.9-8.1-1.4-1.5-.3-2.9-.5-4.4-.8-.9-.1-1.8-.2-2.7-.3.7-.6,1.4-1.1,2.2-1.7,1.4-1,2.9-1.1,4.6-1.3,2.6-.2,5.1-.9,7.6-1.5,4.2-1.1,8.4-.6,12.7-.8,2.9-.1,5.7.4,8.5,1.3,1.5.5,3.4.5,4.9,0,2.4-.8,4.6-.9,6.9,0,.7.3,1.5.1,2.3.1h9c1.1,0,2.7-1,3.2.9,0,.2-1.9,1.3-3,1.4-3.2.4-6.3.8-9.5.8s-6,.3-8.8,2.2h0v.4Z"/>
    <path class="st1" d="M200,490.4c5.5-.1,10.6-.1,15.5,1.6.4.1.7.5,1.1.7-.3.3-.6.7-1,.8-2.6.3-5.3.5-7.9.8-4.2.5-8.5,1.2-12.7,1.5-5.8.4-11.6.6-17.4.8-3,.1-6.1.2-9,0-2.7-.2-5.4-.9-8-1.6-1.6-.4-1.8-1.6-.5-2.8,1.4-1.4,3.2-1.9,5.1-1.9,2.9.1,5.6-.6,8.5-1.4,2.7-.7,5.9-.8,8.6,0,3.7.9,7.4.4,11.1.7,2.1.2,4.2.5,6.8.8h-.2Z"/>
    <path class="st1" d="M240.9,477.8c0-1.9.9-2.1,1.5-1.1.6,1.1.8,2.6.8,4,0,2,.2,3.6,2.8,3.5.5,0,1.1.5,1.6.8.2.2.3.7.3,1s-.4.5-.5.4c-4.1-.5-7.8,2.4-11.9,1.6-2.4-.5-4.8-.5-7.1-.9-.3,0-.8-.7-.8-1,0-.5.4-1.2.8-1.3,1.7-.6,3.5-1.4,5.2-1.5,1.7,0,1.8-.7,1.8-2.1,0-3-.2-5.4-3.2-7.4-4.4-2.9-5.3-8-4.5-12.9.8-5.2,8.7-8.9,14-7.3,3.9,1.1,6.6,3.2,7.1,7.5.2,1.4,1.5,2.5.3,4.1-.8,1,.2,3.3-.4,4.5-.5,1-2.1.8-2.8,1.7-1.2,1.6-2.9,2.9-5.5,3.2-.6,0-1.4,1-1.5,1.7-.3,1.4-.4,2.9-.2,4.4,0,.8.6,1.6.9,2.4.2-.7.4-1.4.6-2.1.3-.9.5-1.9.8-3.2h-.1Z"/>
    <path class="st1" d="M137.8,477.8c2.8,1.3,5.2,0,7.6,0s6.6.1,9.8,0c2.9-.1,5.9-.1,8.8.1,3.5.2,6.9,1,10.4,1.5.4,0,.8.7,1.1,1.1-.4.2-.8.4-1.2.5-1.5.5-3,1.3-4.5,1.4-6.4.4-12.9.6-19.3.8-1.6,0-3.2-.6-4.8-.7-3.3-.3-6.4.4-9.6,1.5-4.8,1.6-9.7,1.3-14.6,0-1.2-.3-2.5-.8-3.7-.5-3.6.8-7.1,1.6-10.8,1.5-3.1-.1-6.2-.5-8.7-2.7-.9-.8-2.5-.9-3.8-1.2-1.7-.4-3.4-.5-5.2-.9-.4,0-1-.7-1-1.1s.6-1,1-1.1c3.3-.6,6.6-1.2,9.9-1.7s6.7.9,9.9-.8c2.1,1.6,4.3-.2,6.4,0,2.3.2,4.7-.1,7.1,0,4.2.4,8.5,1,12.7,1.6.7,0,1.4.5,2.4.8h0Z"/>
    <path class="st1" d="M237.5,14.4c-.9-3.1-1.6-6.4-4-9-.6-.7-.5-2.2-2-1.6-1.6.7-.6,1.9-.5,2.9,0,.3.4.6.6.9,2.1,3.8,1.6,7.9,1.5,11.9,0,1.3-.5,2.7-1.1,3.8-2.1,3.5-9,4.5-12.3,1.9-.2-.2-.4-.5-.5-.8.2,0,.5-.2.7-.2h1.9c1.9.4,3.3-.2,3.5-1.7.2-2.5,1.3-5.1-.1-7.5-.1-.3-.3-.6-.4-.8.4,0,.9-.2,1,0,.9.9,1.6,1.8,2.1,3.1.8,2-.4,3.6-.1,5.3,0,.5.6,1,1,1.6.4-.4,1.2-.6,1.3-1.1.6-3.3,1.8-6.7,1.4-9.9-.4-2.7-2.6-5.2-4.1-7.7-.5-.9-1.1-1-2.2-.3-1.4.9-3.1,1.6-4.7,1.8-2.5.3-4.3,1.7-6.3,3-2.7,1.6-5.6,2.9-8.5,4.1-.3.1-1-.4-1.5-.6.4-.3.8-.7,1.3-.9,1.8-.8,3.9-1.2,5.2-2.4,4.2-3.7,9.4-5.1,14.4-7.1.8-.3,1.6-.5,2.5-.7.6-.2,1.1-.3,1.7-.4-.5-.4-.9-.9-1.5-1.1-.9-.4-2-1-2.8-.7-4.4,1.3-8.9,2.7-13.1,4.4-5.1,2.1-10.5,3-15.4,5.7-1.3.7-2.7,1.2-4.1,1.6-5.4,1.6-10.8,3-16.2,4.7-8.4,2.6-16.7,5.2-25,8-4.3,1.4-8.5,3-12.7,4.6-.5.2-.9.9-1.4,1.3.6.1,1.3.5,1.8.4,8.1-2.5,16.3-5.1,24.4-7.6,3.5-1.1,6.9-2.3,10.4-3.3,4.2-1.2,8.6-2,12.9-3.2,3.4-.9,6.7-2.1,10.1-3.1.5-.1,1.2.2,1.8.3-.4.4-.6.9-1.1,1.1-2.3.8-4.6,1.5-6.9,2.2-5.5,1.7-10.9,3.3-16.4,4.9-9.7,2.8-19.5,5.5-29.2,8.5-8.6,2.6-17.2,5.4-25.7,8.4-9.5,3.3-19,6.7-28.4,10.3-8.7,3.3-17.4,6.9-26.1,10.3-2.6,1-5.2,1.9-7.9,2.8-.4,0-1-.2-1.5-.2.3-.4.5-.9.9-1.1,1.4-.7,2.9-1.2,4.4-1.8,10.4-4,20.9-7.9,31.3-11.9,6.1-2.3,12.2-4.8,18.4-7,6.9-2.4,13.8-4.6,20.7-7,1-.3,1.9-.9,2.9-1.4-1.1-.1-2.3-.6-3.4-.3-8.3,2.1-16.4,4.7-24.6,7.3-6.4,2-12.7,4.8-19.1,7.2-10.5,4-21.1,8-31.8,11.5-1,.3-2.1.6-3.2.8-2.5.3-5.1.3-7.5.9-1.5.4-2.6.7-4.1,0-1-.5-2.2-.2-3.1,1-.7,1-1.6,1.7-3,1.2-.5-.2-1.2,0-1.8-.2.3.5.5,1.3.9,1.6,2.3,1.5,2.8,4,3.8,6.3,0,.3-.2.7-.3,1-.3-.2-.6-.4-.8-.7-1-1.4-1.8-2.9-2.8-4.3-2.4-3.3-5.3-3.8-8.3-1.1-1,.9-1.9,1.3-3.3,1.6-4.3.7-8.8,1.5-12.5,3.9-2.5,1.7-4.4,4.4-6.6,6.7.6,2.2-.9,3.8-1.7,5.6-1.6,3.3-.3,5.8,3.2,5.7,1.9,0,2.7.8,3.2,2.2,1.4,4.1,3.9,7.1,8.1,8.7.8.3,1.5.9,2.2,1.4,4.4,3.3,8.8,6.7,13.2,10,1.1.9,2.1,1.8,1.9,3.6,0,.9.4,1.9.7,2.8,1.6,4.1,3,8.2,5.4,11.9,1.2,1.9,2.1,4.2,2.3,6.5.2,2.4,1.3,4.2,2.5,6.1,1.5,2.3,3.5,4.3,4.6,6.8,2.3,5.1,6.5,6.7,11.4,7,5.1.3,10-.5,14.2-3.8.7-.5,1.6-.7,2.4-.9,2.9-.8,5.9-1.6,8.8-2.5.6-.1,1.1-.4,1.6-.6v2.1c-.3,1.4-1.2,2.8-1.2,4.2.2,3.8-1.2,7.1-3,10.2-3.6,6.3-6.1,13.1-7.2,20.2-.8,4.8.2,9.6,1.1,14.4.3,1.5.3,3.4-.3,4.7-1.3,2.6-3.2,5-4.8,7.4-3.3,5.1-6.3,10.3-9.9,15.2-2.7,3.7-3.8,7.8-2.6,12,1.1,3.5,3.5,6.7,7.1,8.4,1.4.7,2.9,1.4,2.9,3.1-.2,5.8,0,11.6-1,17.3-.4,2.4-.6,4.5.6,6.4.7,1.1.2,1.4-.2,2.3-1.2,2.3-.7,3.5,2,4.3,2.4.7,4.8,1.1,7.2,1.6.4,0,.7.5,1,.8-.3.3-.7.7-1,.7-2.2.3-4.5.7-6.8.8-3.7.1-6.4,2-8.2,4.8-4.1,6.3-7.9,12.9-9.2,20.6,0,.5-.5,1-.7,1.5-.3-.6-.9-1.2-.8-1.8.8-3.3,1.2-6.9,2.7-9.9,3.6-7.6,6.3-15.5,9-23.4,1.4-4,2.5-8.2,3.1-12.5.5-4,0-8.1,0-12.2,0-.6-.3-1.6-.5-1.6-.7,0-1.7.1-2,.6-.7.8-1,1.9-1.4,2.9-.7,2.5-1.3,5-2,7.4-1.9,6.2-4.3,12.2-5.7,18.5-1.3,5.5-3,10.9-4.6,16.2-2.2,6.9-4.2,13.8-4.2,21.1s1.2,5.9,4.4,7.2c1.8.7,2.3,2.1,1.9,3.9-.6,2.4-1.4,4.7-1.9,7.1-.8,3.5-1.4,7-2,10.6-.6,3.7-.7,7.5-1.7,11.1-1.5,5.5-2.2,11.2-2.9,16.9-.8,5.6-.9,11.3-.8,17,.2,9.2-.8,18.4.6,27.6.7,4.7.6,9.5.9,14.2,0,.6.2,1.2.3,1.8.7,3.1.8,6.2-.5,9.3-.7,1.8-.5,4-1.3,5.8-.7,1.8-2.2,3.3-3.2,5-.2.3,0,.8,0,1.1-1.3,3.6-2.6,7.3-4.1,10.9-1.1,2.6-2.9,4.8-3,7.8,0,.7-1.2,1.8-1.9,1.8-3.9,0-5.2,0-7.5,1.3-.9.5-2.1.6-1.5,2,.4,1.1,1.1,1.5,2.4,1.5,2.3,0,4.5-.1,6.8.7,1.7.6,3.7.9,5.5.8,2.8-.2,5.6-.9,8.4-1.5,6.6-1.6,13-.5,19.6.5,4.2.6,8.6.3,12.9.2.6,0,1.3-.7,1.9-1.1-.6-.4-1.2-1-1.8-1.2-2.8-.6-5.6-1.1-8.4-1.6-1.1-.2-2.2-.4-3.2-.8-2.1-1,1-2,0-3.1-.3-.3-.2-1-.3-1.4-.7-2.4-.8-4.6.2-7,.9-2.1,1.4-4.5,1.6-6.8,0-1.6.4-3.2-.5-4.9-1.1-2-1.4-4.4-2-6.6-.2-.8-.4-1.8,0-2.4,2-3,1-6.6,1.8-9.9,1-4.1.8-8.5,1.8-12.7,1.7-7.1,4.1-14,6-21.1.8-2.9,1.6-5.8,1.6-8.7,0-4.1-.3-8.2-.7-12.3-.2-2.3-.9-4.6-1.6-6.8-.2-.7-1.2-1.4-2-1.7-.3-.1-1.3.9-1.5,1.6-.5,1.9-1.2,3.9-1.1,5.8.6,8.5-.9,16.6-3.2,24.7-1,3.6-2.3,7.2-3.1,10.9-1,4.5-1.6,9.2-2.2,13.8-.5,3.4-.7,6.8-1,10.2v3.5c0,1.1-.5,1.2-1.5.7-1.8-1-3.7-1.9-5.5-2.9-.4-.2-.8-.6-.8-.9-.3-2.1-.7-4.2-.8-6.4-.3-7-.5-14-.8-20.9,0-1.7-1.1-3.6-.6-5.1,1.1-3.6.4-7.2.7-10.7.4-6-.8-12.2.8-18.2.2-1,.4-2.3,0-3.1-1.9-3.8,0-7.4.6-11,.8-5,2.5-9.8,3.4-14.7,1-6,2.4-11.8,4-17.6.9-3,1.2-5.9,0-8.9-.4-1.2-.4-2.4,1.5-2.1,2.9.5,5.9.9,8.8,1.6,4.1,1,8.1,2.1,12.1,3.2.4.1.9,1,.8,1.3-.7,2.2-1.3,4.5-2.5,6.4-.9,1.5-1.6,3-1.9,4.8-.4,2.4-.8,4.9-1.4,7.3-1.6,6-5.3,11.3-5.8,17.7-1.9,1.3.9,2.4.3,3.8-.2.5,1.7.6,2.2-.4s.6-1.3.8-2c.8-2.2,1.5-4.4,2.4-6.5,3.1-7.6,6.3-15.2,9.4-22.9.4-1,.9-2.1,2.1-1.4,1.5.8,2.8.5,4.3.2,1.3-.3,2.9.5,4.2.3,1.9-.3,3.8-1.1,4.3-3.2,1.6-6.4,3.6-12.7,5.9-18.8,1.5-3.9,2.9-7.7,4.4-11.6.2-.4.8-.7,1.2-1,0,.5.5,1,.4,1.4-2,4.8,0,9,1.7,13.2,1.2,2.9,2.2,5.9,3.1,9,.7,2.6.8,5.4,1.7,8,.7,2.2,2,4.2,3.4,6.1,1.6,2.2,5.6,3,8.5,1.9,4.1-1.6,8.7-1.7,12.5-4.1.3-.2,1.3.3,1.4.6.6,1.8,1.4,3.7,1.6,5.6.6,5.4,2.9,9.9,6.4,13.9,1.4,1.5,2.7,3,3.9,4.7s2.3,3.4,2.4,5.7c0,2.6.2,5.4.8,7.9,1.2,5,2.7,9.9,4.1,14.8,1,3.4,1.7,6.9,3.1,10.1,1.9,4.2,4.6,8.1,6.5,12.2,2.2,4.7,4.6,9.4,5.1,14.8.4,3.5,1.5,7,2.3,10.4.4,1.8,1.1,3.5,1.5,5.3,1,4.2,2.3,8.2,6.3,10.7.4.2.5,1,.7,1.6-.5-.2-1-.3-1.5-.5-3.6-1.6-4.5-1-4.7,3.1,0,.7.1,1.3,0,2-.8,3.7-.9,6.8,0,10.1.4,1.9-.7,4-2.5,4.4-4.2.9-8.4,2.1-12.7,1.6-1.4-.1-2.9-.1-4.3,0-.8.1-1.5.7-2.3,1,.7.4,1.3,1,2.1,1.2,1.4.4,3.1.2,4.4.9,3.6,1.8,7.4,1.5,11.2,1.5s1.9-.9,2.4-.6c2.4,1.5,4.8.3,7.2.6,2.4.4,4.8.9,7.1.7,6.7-.4,13.5,1.2,20.3-1.4,3.2-1.2,7.1-.7,10.6-1,.8,0,1.5-.2,2.2-.3-.3-.6-.6-1.2-.9-1.9-.2-.7-.4-1.4-.6-2.1-.3-1.1-.2-2.4-.9-3.2-2.5-3-4.8-6.2-7.8-8.5-2.8-2-5.4-4.1-7.9-6.5-1.9-1.8-2.4-1.6-4.3.5-1.6,1.7-1.8,2.4-4.4.4-1.1-.9-2.4-1.7-3.8-2.2-.8-.3-2.3-.2-2.6.2-.5.9-.4,2.1-.3,3.1,0,.4.7.8,1.1,1.1,1.9,1.8,3,3.9,3.4,6.5,0,.7.9,1.3,1.4,1.9.5-.5,1.1-.9,1.6-1.4.2-.2.2-.7.5-1,.7-.8,1.4-2.1,2.1-2.2,1.8-.1,3.8.1,5.6.7,1.5.5,2.8,1.6,4.1,2.4.4.3.8.7,1.1,1.1-.5.1-.9.4-1.4.4-3.4.2-7-.5-10.3.8-2.1.8-3.9,1.1-6.1,0-2.2-1-4.8-1.4-7.2-1.6-2.1-.2-2.8-1-2.6-2.9,0-.9.1-1.9,0-2.8-.2-1.5.4-2.2,1.7-2.8,3.6-1.9,4.6-4.3,3.6-8-.1-.5-.4-1.2-.1-1.6.8-1.3,4-1.6,5.1-.5s2.9,3.1,4.5,4.4c.8.6,2.1.4,3.1.6,0-.9.4-1.9.2-2.6-.6-1.8-1.3-3.7-2.3-5.3-1-1.5-2.2-2.9-4.5-3.1-3.6-.2-6.7.2-10.1,2.6-1.1.8-1.5,1-1.9-.7-1.1-4.5-2.6-8.9-3.9-13.3-2.5-8.3-5.2-16.4-8.6-24.4-2.4-5.6-4.3-11.4-5.6-17.4-1.4-6.5-2.9-12.9-3.3-19.5-.1-2.7-.8-5.6-2.4-8-2-3-4.3-5.8-6.1-8.9-2.8-4.8-5.4-9.8-8.1-14.8-.4-.8-1-1.4-1.3-2.2-.1-.3.2-1,.5-1.1,1-.4,2.1-.7,3.2-.8,5.6-.5,11-1.6,16.4-3.1,2.8-.8,4.4.1,5.2,3,1.4,4.7,2.5,9.5,4,14.1,2,6.3,4.2,12.5,5.2,19.1.1.7.4,1.5.9,2,1.8,1.9,2.1,4.4,3.1,6.6,1.3,3.1,1.5,6.3,1.6,9.6.1,3.2,1.1,6.4,1.4,9.6.4,4.2.5,8.4.9,12.7.2,2.1.4,4.3.8,6.4,1,5.1,2,10.2,3.1,15.2.7,3.1,1.1,6.3,3.1,9,.8,1,1.3.7,1.7,0,.4-.6.7-1.4.6-2.1-.2-3.2-.9-6.4-.7-9.5.5-6-1.4-11.6-1.9-17.5-.4-5.9-1.5-11.9-1.4-17.9v-2c-.5-4-1.2-8-1.5-12-.1-2-.5-3.9-1.4-5.7-3.2-6.1-5.8-12.6-8.1-19.5-.5-2.3-1.3-4.2-1.5-6.2-.6-4.8-1.7-9.4-3.3-14-.3-.9-1-2.2-.6-2.8,1.7-3.1.2-5.8-.6-8.6-1.1-3.8-2.2-7.5-3.4-11.2-.5-1.6-1.1-3.2-1.6-4.9-.5-1.8-.8-3.6-1.5-5.3-1.3-3.4-2.8-6.7-4-10.1-1.6-4.5-3.2-8.9-4.5-13.5-.6-2.1-1.3-4.6-.7-6.6,1.1-3.7.4-6.6-1.9-9.4-.4-.5-1.1-.9-1.4-1.4-.7-1.3-1.5-2.6-1.6-4,0-.9,1.3-1.8,1.8-2.8,1.4-2.9,2.7-6,1.8-9.3-1.3-4.7-3.2-9.2-4.3-13.9s-1.7-9.5-2.5-14.3c-.4-2.5-.8-4.9-1.2-7.4-.2-1.1-.4-2.2-.9-3.2s-1.6-.5-1.8-.4c-.7,1.1-1.6,2.4-1.6,3.6.1,5.4.5,10.8.9,16.1.1,2.1.5,4.3.6,6.4,0,1.2-.7,1.2-1.5.6-1.2-1.1-2.2-2.2-3.4-3.3-1.8-1.8-3.7-3.6-5.5-5.5-1.2-1.3-2.2-2.8-3.4-4.1-.4-.4-1.3-.7-1.8-.5-.4.1-.7.9-.9,1.5-.1.5-.2,1.1,0,1.6,1.4,3.3,2.7,6.6,5.2,9.3,2.2,2.3,4.5,4.4,6.6,6.7,2.2,2.3,4.4,4.7,6.4,7.2,1,1.2,1.6,2.7,2.2,4.2.2.4-.1.9-.2,1.4-.4-.1-1,0-1.3-.4-2.8-2.2-5.5-4.4-8.3-6.7-2-1.6-4.1-3-5.9-4.7-3.2-3-6.8-5.8-9.3-9.4-3.8-5.3-5.9-11.7-8-17.9-.4-1.1-.7-2.4-1.3-3.4-.3-.6-1.2-.8-1.9-1.2-.2.8-.8,1.7-.7,2.4.6,3.4,1.3,6.8,2.3,10.1,2,6.9,4.5,13.6,9.9,18.7,3,2.8,6.1,5.5,9.1,8.4,2.9,2.7,5.2,6,9,7.5.4.1.6.7.9,1.1-.4.2-.9.4-1.3.6-4.2,1.6-8.4,3-13,2.9-6.4-.3-12.9.8-19.4-.7-1.9-.4-4.1.1-6.2.1h-8.2c-.9,0-1.8-.4-2.6-.1-6.6,2-12.6.1-18.3-2.8-3.2-1.6-6.2-3.4-9.2-5.3-3.1-2-6.2-4-7.7-7.7-.6-1.6-1-3,.4-4.6,2.2-2.6,4.3-5.2,6.2-8.1,2.7-4,5.6-7.8,7.2-12.4.2-.4.7-.7,1.1-1.1.2.4.4.9.4,1.4.3,2.5.3,5.1.8,7.5.6,2.7,1.5,5.4,2.3,8.1,0,.4.7.8,1,1.1.2-.4.5-.9.5-1.3-.2-3.8-.5-7.7-.8-11.5-.3-4.6.2-9.2-.6-13.9-.9-5-.6-10.3-1-15.4-.3-4.4,1.4-8.3,3.4-12,1.9-3.6,4.9-6.4,6.5-10.3,1.3-3.2,4.1-5.9,6.2-8.8.8-1.1,2-1.2,2.4,0,.6,1.9,2,2.6,3.5,3,4.5,1.5,9.1,3,13.7,3.9,2.8.5,4.2,1.6,5.4,4.3,1.9,4.6,4.8,8.7,8.2,12.4,4.5,4.9,10.7,7,16.2,10.2.8.5,1.8.5,2.8.7-.5-.7-1-1.6-1.6-2.2-2.9-2.7-6-5.2-8.8-8.1-3.6-3.7-7.1-7.6-10.6-11.3-.2-.2-.5-.3-.5-.6v-1.1c.3,0,.6.1.8.3,2.3,1,4.7,2,7,3.1,3.1,1.4,5.3,1.1,7.5-1.4,4.5-4.9,5.4-10.9,5-17.2,0-.3-.4-.5-.6-.7-.3.3-.7.6-.9.9-1.6,3.3-3.2,6.5-4.8,9.8-.3.6-.5,1.4-.7,2.1-.7,3.2-1.6,3.7-4.5,2.2-3-1.6-6.1-3-9-4.8-5.7-3.5-12-5.1-18.6-5.4-2.1,0-2.7-.9-3.3-2.6-1.2-3.4-2.4-6.9-3.9-10.2-2.5-5.2-3.4-10.7-3.1-16.4,0-2,.6-2.3,2.7-1.6.7.2,1.4.6,2.1.5,2.4-.3,4.6,1.2,7.2.6,5.2-1.1,10.5-1.9,15.8-1.7,3.5,0,7.3.5,10.6,2.9,3.9,2.8,7.9,2.2,11.7-.8.3-.2.6-.4.8-.6,0,.5.4,1,.2,1.4-.2.6-.7,1-1.1,1.5-1.4,1.6-1.3,3.5-1.2,5.4,0,.3,1.1.9,1.1.9,2.6-2.6,5.8-4.9,5.9-8.9,0-1.9.6-3.4,1.6-4.9.2-.3.4-.6.6-.8.2.5.5,1,.4,1.4-.3,1.6-1.3,3.3-1,4.6.7,2.5,1,4.8,0,7.3-.2.4.2.9.3,1.4.4-.3.8-.6,1.2-.9.3-.2.5-.6.8-.6s.7.4.7.6c.3,4.1,1.2,8.3.6,12.2-.5,3-.4,6-.5,8.9-.2,5.9-.2,11.7-1.6,17.5-1.4,5.4-1.8,10.9-3.8,16.1-.8,2.1-.7,4.4-1,6.7-.2,1.6,1.1,2.2,1.9,3.2.6-.8,1.3-1.4,1.6-2.3.8-1.6,1.5-3.3,2-5.1,1-3.5,1.8-7.1,2.8-10.6,1.7-5.8,3.4-11.6,2.8-17.8-.1-1.2.3-2.5.6-3.7,1.4-6,2.8-12,1.1-18.2-1.2-4.5-1.3-9.3-4.4-13.2-.5-.7-.7-2.2-.3-2.9,1.3-2.3.7-4.4-.1-6.4-.5-1.3-.4-1.7.9-2.4,2.9-1.6,4.5-4.2,3.9-7.6-.4-2-1.1-4-2.1-5.8s-1.1-3.3-.2-5.1c3-5.7,2.9-11.6,1.5-17.6-1.3-5.3-5-9-8.9-12.4-3.4-3-7.6-4.5-12.1-4.9-6.2-.5-12,1-16.9,4.8-5.3,4.1-10,8.8-9.3,16.4.2,1.9-.7,3.3-2,3.8-2.2.9-2.6,2.5-2.7,4.4,0,1.6-.6,2.3-2.1,3.1-2.1,1-3.8,2.8-5.8,4.1-1.2.8-2.5,1.5-3.9,2-2.5.9-5.3,1.3-7.6,2.6-2.5,1.3-5.2,2.7-5.2,6.4s-1.1,2.1-3.1,1.6c-3.9-1.1-7.4-2.9-11-4.7-.6-.3-1.4,0-2.1-.2.3.6.4,1.4.8,1.9,3.8,5,9.1,7.8,14.9,9.6,1.9.6,3.6,2.3,6,1.7,1.1-.3,1.3.7.6,1.4-1.5,1.7-1.2,3.8-1.2,5.8,0,3.8,0,7.7,1.1,11.4.3.8.4,1.4-.4,1-4.3-2.2-8.9-4.3-12.8-7.1-5.2-3.8-10.4-6.9-16.9-7.8-5.1-.7-10-2.3-14.4-5.2-7.7-5-14.8-10.7-21.2-17.2-3-3.1-6.7-5.2-10.7-6.5-2.4-.8-3.9-1.8-5.1-3.8-1.2-1.8-.4-3.9,1.7-4.3.8-.2,1.6-.2,2.3,0,2.1.6,4.2,1.1,6.2,2,2.2,1,4.2,2.8,6.5,3.3,3.6.9,6.7,2.9,10.3,3.8,4.1,1,7.5,3.5,12,3.6,3,0,5.9,1.4,8.9,2.2,2.2.6,4.4,1.4,6.6,2.1.4,0,.9,0,1.3,0,0-.4,0-1.1-.3-1.3-3.8-2.4-7.2-5.6-12.3-5.6s-5.5-.3-7.2-2.3-2.6-4.7-4-6.9c-1-1.5-.3-2.4.8-3.2,1.8-1.5,3.6-2.9,5.2-4.5,1-1.1,1.7-2.5,1.5-4.1,0-1-.3-2.2,0-3.1.6-2,1.3-4,2.4-5.7.5-.8,2-1.1,3.1-1.5,7.3-2.9,14.8-5.5,22-8.7,6-2.7,12-5.3,18.2-7.5,8.6-3,17.1-6.2,25.7-9.1,5.5-1.9,11.2-3.3,16.8-5.1,9-2.9,18-6.1,27-8.9,5.5-1.7,11-3.2,16.5-4.8,4.4-1.3,9-2.3,13.3-4.1,1.5-.7,2.7-.2,3.3.3,1.8,1.6,3.4,2.2,5.5.9.3-.2.9.1,1.3.2,2.6.5,4.3,2.2,5.5,4.3,1.7,3.1,4.2,5.5,6.7,7.8.9.9,2.4,1.4,3.6,1.6,1.6.2,3.2.2,4.9,0,5.1-.4,8.3-3.6,8.5-8.8,0-.8.4-1.7.6-2.5.3-2.2,1.3-4.6.7-6.6h0l-.8.2ZM46.6,453.4h5.9c.5,0,1.1.5,1.6.9,0,0,0,.6-.3.8-.8,1.1-1.5.6-2.2-.2-2.2,0-3.6-.1-5-.3-.3,0-.6-.5-.8-.8.3-.1.6-.4.8-.4h0ZM59,472.3h-13c-1.8.1-2.5-.9-1.8-1.2,1.8-.9,3.6-2.7,5.8-1.9,2.9,1.1,5.7,1.8,8.8,1.6.5,0,1,.6,1.5,1-.5.2-1,.5-1.5.5h.2ZM58.8,457.2c0-.6.2-1.2.3-1.8.5-.5.6-.6.7-.7.6-.9-.8-2.9.9-2.7,1.8.2.8,2.2.7,3.2-.2,1.8-1,3.5-1.5,5.2,0,.3-.3.6-.5.8-.3-.3-.8-.5-.8-.8,0-1,0-2.1.2-3.2h0ZM58,464.5c.5.5.9,1.2,1.1,1.9,0,.3.5,1.4-.8.8-1.4-.7-3.2-.6-4.5-1.5-3.3-2.3-6.3-2.8-9.8,0-1.9,1.5-4.7,1.8-7.1,2.6,0,0-.5-.2-.5-.2,0-.4,0-.9.3-1,1.8-1.3,3.5-2.8,5.5-3.9,1.6-.9,3.4-1.2,5.1-1.8.4-.1.6-.6.9-.9-.4-.2-.8-.6-1.2-.6-.8-.1-1.6,0-2.3,0s-.7-.3-1.1-.5c.3-.3.6-.8.8-.8,3.1,0,6.4-1.5,9.3.9,1.5,2.3,3,3.7,4.4,5.2h0v-.2ZM49.2,444c1.9-.9,3.3-1.2,4.7,0,1.8,1.5,1.2,3.7,2,5.5,0,0-.8.9-1.2.9-2.5-.2-5-.5-7.5-.8-.2,0-.5-1-.4-1.4.7-1.4,1.6-2.7,2.5-4.1h0ZM192.9,468.4h3.5c4,1.6,7.3.7,10.5.5h2.7c2.5,0,5.1,0,7.6-.2,1.2,0,2.5-.3,3.7-.4.3,0,.7.5,1,.7-.3.3-.6.8-1,.8-2.8.3-5.5.6-8.3.8-2.8.2-5.5,0-8.3.6-2.6.5-5.4-.4-8.2-.8-1.1-.1-2.2-.3-3.3-.6-.6-.2-1-.7-1.5-1,.5-.2,1-.5,1.4-.5h.2ZM155.8,275.5c-1-1.7-2.3-3.2-3.7-4.7-1.3-1.5-2.8-2.8-4.1-4.2-.3-.3-.4-.8-.6-1.1.5,0,1.1-.3,1.5-.1.7.4,1.2,1,1.8,1.5.7.6,1.3,1.2,2.1,1.6,1.1.6,2.4,1,3.6,1.5,0-1.3-.1-2.7-.3-4-.3-2.1-.7-4.2-1-6.3,0-.2.4-.6.7-.6s.7.3.8.5c1.1,3.7,2.5,7.5,3.1,11.3.9,5.7,2.8,11.1,4.5,16.6,1.7,5.3,3.6,10.5,3.6,16.3s1.1,5.2,1.7,7.9c.2.7.4,1.4.5,2.1,0,.3-.2.7-.3,1-.3-.2-.7-.4-.8-.7-1.6-2.9-3.2-5.7-4.7-8.7s0-1.6,0-2.4c-1.1-5.3-2.7-10.1-4-15.1-1.3-5.2-5.2-7.5-9.7-9.3-1.1-.5-2.3-.8-3.4-1.4-.3-.2-.4-.8-.6-1.3.4-.2.9-.5,1.3-.5,2.2.3,4.5.5,6.6,1.2,1.9.7,2-.5,1.5-1.3h0v.2ZM120.7,279.8c0-.2,1.7.2,2.6.5,2.9,1.2,5.8,2.6,8.6,3.9,3.4,1.3,6.4,2.2,9.5,3.2.4.1.8.7,1.2,1-.5,0-1.1.3-1.5.2-3.4-.9-6.8-1.8-10.2-2.8-3.1-.9-5.9-2.2-8.6-3.9-.9-.5-2-.8-1.4-2.1h-.2ZM94.1,265.3c.8.2,1.6.5,2.4.8,2.3,1.5,4,2.5,6.1,3.3,2,.8,3.6,2.7,5.3,4.2.2.1,0,.7,0,1-.3-.1-.5-.4-.8-.5-4.9-1.7-8.8-5.1-13.2-7.7-.3-.2-.4-.5-.7-.8.3-.1.7-.3,1-.3h0ZM84.2,298.8c1.5-.5,3-1,4.6-1.2,5.4-.8,10.4-2.6,15.2-5.2.4-.2.9-.1,1.3-.2-.2.5,0,1.4-.5,1.6-2.9,1.6-5.8,3.1-8.8,4.5-1.3.6-2.9.6-4.4.8-2.9,1.1-5.3.8-7.5.8s-.4-.2-.7-.3c.2-.3.4-.7.7-.8h.1ZM127.6,73.4c2.6-2.4,5.3-4.5,8.5-6.2,2.4-1.2,4.6-1.1,7-1.2,1.1,0,1.4.6.7,1.4-1.2,1.5,0,2.2,1.1,2.4,1.2.2,2.7.3,3.8-.3,1.9-1,3.1-.4,4.4.9.9,1,1.8,1.9,2.8,2.8,3.6,3,4.8,6.9,4.9,11.4,0,1,.6,1.9.6,2.9,0,1.5,0,3.1-.4,4.5-.7,2.6-1.8,5-2.6,7.6-.3.8-.4,2,0,2.7,1.2,1.9.6,4,.7,6,0,3.7-2.4,5.2-5.7,3.5-4.4-2.4-9.1-3-13.9-2.3-2.2.3-4.3.6-6.4,0-1.3-.4-2.6-.8-3.8-1.2-1.9-3.6-3.8-6.6-4.1-10.3,0-.9-.6-1.5.6-1.1,2.6,1.1,5.3,1.3,8,1.7,6.1,1,12.1,2.4,18.3.6.5,0,1.1,0,1.6,0,.8-.2,2.2.9,2.4-.9,0-.2-1.4-.7-2.2-.6-5.6.3-10.6-2.1-15.9-3.5-4.6-1.3-8.6-3.5-12.4-6-.7-.4-1.6-1.2-1.6-1.8-.3-4.8,0-9.3,3.9-12.9h-.3ZM93.7,114.1c-.6-2.6.6-5.2,3-6.5.5-.3,1.1-.6,1.6-.8h.8v.8c-.7,1.3-1.6,2.5-2.2,3.8-.7,1.6,0,2.4,1.8,2.1,2-.3,3.6-1.5,4.6-3.1,2.6-4.2,6.5-7,10.5-9.6.3-.2.8-.5.8-.4,1.2,1.3,3.1,2.7,3.2,4.1.2,4.1-.3,8.2-.7,12.2,0,.5-.6,1.3-1.1,1.4-1.3.4-2.6.6-4,.9-3.8,1.2-7.1,1-10.2-.7-1-.6-2.4-.7-3.6-.8-2-.3-4.4-1.8-4.7-3.2h0l.2-.2ZM29.2,74.7c-.1.8-.3,1.7-.5,2.5-.5-.6-1.1-1.1-1.6-1.7-1.7-2.1-4-2.6-6.5-2.2-.6,0-1.5.9-1.5,1.4s.7,1.3,1.3,1.7c.6.4,1.4.4,2,.7,3,1.4,4.7,5.2,3.6,8.2h-1c-1.6-.6-3.2-1-4.7-1.8-.6-.3-1.1-1.3-1.3-2.1-.4-1.4-.5-2.9-.9-4.4-.1-.4-.7-1.1-.9-1.1-.5,0-1.1.5-1.4.9-.4.6-.9,1.4-.8,2,.8,2.5-1.4,3.2-2.6,4.4-.5.5-1.2.7-1.9,1-.1-.6-.3-1.2-.3-1.8s.1-1.1,0-1.6c-.3-.9-.4-2.2-1.1-2.6-1.1-.7-1.7.5-2.1,1.4,0,.2-.6.5-.6.4-.3-.4-1-.8-.9-1.2.2-.8.4-1.8,1-2.3,2.2-2.1,4.4-4.3,6.9-6.1,1.3-.9,3.3-.7,5-1.2,3-1,5.6-.8,7.5,1.9,2,.7,3.5,1.3,3.1,3.4h0l.2.2ZM48,68.4c-.4.2-1.2,0-1.4.4-.4.5-.8,1.3-.7,1.8,1.6,4.7-.2,8.1-3.7,11-2.9,2.4-3.5,5-1.7,8.1.2.3.7.5.8.8.2.7,0,1.4.2,2.1-.5-.2-1.1-.4-1.6-.6-1.3-.7-2.5-1.5-3.9-2.1-2.4-.9-4.3-1.7-3.1-5.1.5-1.5-.5-3.4-.6-5.1-.2-1.7.5-2.7,2.3-2.7s1.2,0,1.4-.3c2-2.4,4.9-3.3,7.6-4.4.7-1.6.9-2.8,1.2-4,.5-1.6,1.8-1.6,3.1-1.5.3,0,.5.4.8.6-.3.3-.5.8-.8,1h.1ZM51.1,63.2c-.7,0-1.4-.3-2.1-.5v-.3c0,0,.2-.2.3-.3,1.2-.4,2-.5,2.8-.3.4,0,.5,1,.7,1.5-.5,0-1.1,0-1.6-.2h-.1Z"/>
    <path class="st1" d="M242.5,465.2c0-.6.6-2.3.8-2.5.3-.5.6-1.4.9-1.4s.9,1,1,1.5c.4,1.2,1.1,1.7,1.4,1.6,1.3-.6-.9-1.1-.2-2,.1-.1-.5-.8-.7-1.2-1.1-2.9-5.1-5.1-7.9-4.6-1.6.3-3.6.9-4.9,2.4-1.9,2.2-2.5,5.2-1.2,7.6.9,1.8,2.9,3,4.5,4.3.6.5,1.6.5,2.5.5s.3-1,.1-1c-.3-.3,0-1.1-.5-1.3-.4-.2-.9,0-1.2-.3-.9-.6-2.1-.7-2.3-2.2-.2-1.6-.3-2.4.3-3.3.1-.2.4-.3.7-.4s.6-.2.8-.4c.5.6-.5,1.8,0,2.5.3.5,1,1.3,1.4,1.3,1.2.2,2.8.5,2.8,1.6s.6,1,.6,1.6,1.6-.1,2,0c2,.4,2.1.1,2.9-.5.5-.4.2-1.7.2-2.5-.2-.1-.9.5-1.1.4-.2-.1-.4-.7-.7-.7s-.5.6-.7.6c-1.3,0-1.5-.5-1.4-1.6h-.1Z"/>
    <path class="st1" d="M242.3,461.5c.3.6-.1,1.5-.7,2.3-.3.4-.6,1-1.5,1.2-.6,0-1.8,0-2.1-.5-.2-.2-.1-.7-.2-1.1-.1-.4-.3-.7-.4-1-.2-1.1,1.3-1.8,2.9-1.5.9.2,1.7,0,2,.5h0Z"/>
    <path class="st1" d="M60.3,444s-.2.2-.2.3v.2c.5,0,1-.1,1.5-.2-.3-.2-.5-.5-1.2-.3h0Z"/>
    <path class="st1" d="M83.3,393.8c0,.1,0,.2-.2.2h-.3c0-.2.2-.3.5-.3h0Z"/>
    <path class="st1" d="M172.2,363.9c-.9-1.8-1.6-3.3-2.1-4.9-.1-.4.2-1.4.5-1.5.5-.2,1.4,0,1.7.3,1.9,2.1,4.2,3.4,6.8,4.5.9.4,1.6,1.9,1.9,3,.5,2.1-1.1,3.3-3.2,2.6-2.1-.8-4.6-1.1-5.6-4h0Z"/>
    <path class="st1" d="M163.6,340.2c2.2,3.1,2.6,6.4,2.5,9.8,0,.3-.2.7-.3,1-.4-.2-1.1-.2-1.3-.5-1.8-3.5-4.7-6.5-5.5-10.6-.3-1.8-1.1-3.5-1.5-5.2-.1-.5.3-1.1.4-1.7.5.3,1.3.5,1.6.9,1.4,2,2.6,4.1,4.1,6.4h0Z"/>
    <path class="st1" d="M68.5,342.4c-.3-3.2-.5-5.9-.8-8.7,0-1.2-.2-2.6,1.1-3,1.2-.4,2.3-.2,3.5.9,3.1,2.9,3.8,9.4-.6,13.4-.3.3-1.4.2-1.8,0-.6-.5-1-1.4-1.4-2.5h0Z"/>
    <path class="st1" d="M129.5,333.8c1.4-.3,2.9-.5,4.3-.8.8-.2,1.7-.3,2.5-.5.2,0,.4-.3.5-.5,0-.1-.2-.5-.3-.5-2.9.4-5.9-1-8.6.8-.4.3-.8.6-1.2,1,.7.2,1.3.4,2.8.6h0Z"/>
    <path class="st1" d="M91.4,328.6c.7.1,1.4.3,2.2.4.3,0,.7-.2,1-.4-.2-.2-.3-.4-.6-.5-2-1-4-2.1-6.1-2.9-.8-.3-1.8.3-2.8.5.8.6,1.5,1.4,2.4,1.8,1.1.5,2.3.6,3.9,1.2h0Z"/>
    <path class="st1" d="M53.6,319.2s-.2-.1-.2-.2c0,0-.2-.1-.2-.2,0,.2,0,.5.5.3h0Z"/>
    <path class="st1" d="M148,210.9c.2.6.5.8.5.9v2.9c-.9-.2-1.9-.5-2.8-.7-.2,0-.5,0-.7-.2-5.8-5.7-11.7-11.3-14.5-19.5-1.1-3.2-2.7-6.2-3.5-9.5,0-.6,0-1.5.5-1.8.4-.2,1.4,0,1.8.3,4.1,3.4,6.5,8.1,9.2,12.6,3,4.9,6.2,9.7,9.4,14.9h.1Z"/>
    <path class="st1" d="M89,188.1c1.1-3.9,2.4-7.3,3.1-10.9.8-4.2,3.1-7.7,4.2-11.7,0-.4.7-.8,1.1-1.1.5-.3,1.2-.7,1.6-.6.5.2,1.1,1,1.1,1.4,0,2.3-.3,4.5-.8,6.7-.6,2.6-1.4,5.2-2.3,7.7-.7,1.9-1.5,3.8-2.5,5.6-1.9,3.6-3.9,7.1-5.8,10.6-.2.3-.5.5-.8.8,0-.3-.3-.7-.3-1-.4-2.6,1-4.8,1.6-7.6h-.2Z"/>
    <path class="st1" d="M91.4,153.9l5.2-5.2c0-.1-.4-.7-.4-1.1-.2-1.8-2.1-1.7-3.2-2.7-.5-.4-1.7-.3-1.6,1.2,0,2.3,0,4.6,0,7.8h0Z"/>
    <path class="st1" d="M82.3,140.9c-2.9,1.1-6,1.6-9.2,1.6s-.9-.2-1.4-.4c.5-.4.9-1,1.4-1.2,2.1-.6,4.3-1,6.4-1.6.6-.2,1-.7,1.5-1.1-.2-.1-.3-.3-.5-.4-3.2-2-6.5-3.9-9.7-6-1.3-.8-1.2-.1-1.6.9-.8,2.3-2,4.4-3.1,6.6-.2.5-1.1.6-1.8.8,0,0-.5-.8-.5-1.2,0-.8,0-1.6,0-2.4-.6-2.5-1.2-5-2-7.4-.7-2.1-3.1-1.7-4.6-2.1-5.4-1.4-9.7-4.5-14.3-7.3-.5-.3-1.1-.5-1.6-.7.2.6.2,1.3.5,1.9,1.8,3.8,4.5,7.4,5.2,11.6.5,3,1.7,5.6,3,8.2.9,1.8,2.4,3.2,3.2,5,1,2.3,2.6,3.1,5,3.1,4.3,0,8.2-1.7,12.2-2.9.9-.3,1.8-.8,2.7-1,3.4-.6,7.1-.6,10.3-1.8,1.3-.5,3.4.6,4.1-1.5-1.4-.2-2.9-.4-5.1-.6h-.1Z"/>
    <path class="st1" d="M143.1,136.4c.5,2.6.7,4.9,1,7.3,0,.3-.2.7-.3,1.1-.4-.3-1-.6-1.1-.9-.7-5-5.2-7.7-7.2-11.9-.5-1.1-1.1-2.1-1.6-3.2-.3-.6-.3-1.3-.5-1.9.7,0,1.5,0,2.1.4,3.6,1.7,5.4,5,7,8.3.1.2.3.4.6.8h0Z"/>
    <path class="st1" d="M140.6,122h.8c3.3,1.4,4.3.9,5.1-2.3.4-1.8,1.7-2.7,3.4-3.2.7-.2,2.1.7,2-.8,0-.5-1.1-1.2-1.9-1.5-1.1-.4-2.4-.7-3.6-.8-1.2,0-2.3,0-1.1,1.6,1.1,1.7-.7,3-.7,4.5-1.1-.2-2.1-.4-3.2-.5-.9,0-1.8,0-2.7,0-2.1,0-2.9-1.9-1.6-3.6.9-1.1.5-1.2-.6-1.1h-2.4c-.6,0-1.2.2-1.8.3.3.6.6,1.2.9,1.9.2.7.8,1.8.5,2-1.3,1.4,0,1.7.8,2.1,1.7.6,3.5,1.1,6,1.6h.1Z"/>
    <path class="st1" d="M124.4,108.2c-.2-.4-.4-.8-.6-1.2-.3.3-.9.5-.9.8-.4,3.4.8,6.9-.8,10.2,0,0,.4.7.6.7.6,0,1.2-.2,1.7-.5.2,0,0-.8,0-1.1.2-.5.4-1,.6-1.5.5.3,1.2.6,1.5,1,.7,1,1.1,2.2,1.8,3.1.5.6,1.3.8,2,1.2.1-.9.5-1.9.2-2.6-.4-.9-1.4-1.5-2.1-2.3-.6-.7-1.7-1.4-1.7-2,.3-2.4-1.7-3.5-2.5-6.1h0l.2.3Z"/>
    <path class="st1" d="M51,112.7c3.1,2,6,3.9,8.9,5.7.3.2.5.5.7.8-.3,0-.7.3-1,.3-4.8.7-8.1-1.9-11.2-4.9-.6-.6-.7-1.7-1-2.6.9,0,1.7-.3,2.6-.3s.6.5,1,.9h0Z"/>
    <path class="st1" d="M108.7,116.5c-1.1-3.7-1.5-7.3,1.9-10.1.4-.3.8-.7,1.2-.9.7-.3,1.5-.4,2.3-.6,0,.7,0,1.5-.3,2.1-1.5,3.2-3.1,6.3-5.1,9.4h0Z"/>
    <path class="st1" d="M120.5,93.2c-.6-.4-1.2-.8-1.9-1.2,0,.6,0,1.2.2,1.8,0,.6,0,1.3.2,1.9.8,1.9,1.7,3.8,2.6,5.6,0,0,.7,0,1,0v-.6c-.6-2.4-1.1-4.8-2.1-7.6h0Z"/>
    <path class="st1" d="M134.9,71c.6-.6.9-1,1.3-1.3,1.4-.9,2.8-1.7,4.5-1.1-.8,1.2-1.3,2.6-2.3,3.5-3.6,3.1-4.7,7.5-6.9,11.3-.9,1.5-1.5,3.2-2.5,4.6-.2.3-1.5-3.8-.6-5.7,1.8-3.9,2.8-8.2,6.4-11.4h.1Z"/>
    <path class="st1" d="M4,84.6c1.3-1.1-.3-1.8-.3-2.7-.3,0-1,0-1,.2,0,.7,0,1.4.2,2.1,0,.3.5.6,1.2.4h-.1Z"/>
    <path class="st1" d="M29.2,68.8c1,1.1,2.6,2,3,3.3.5,1.5,1.3.8,2,1,0-.7,0-1.6-.5-2.1-1-1.2-2.1-2.3-3.3-3.3-.2-.2-.9,0-1.3,1h0Z"/>
    <path class="st1" d="M39.8,63.7c-.3,0-.7.2-1.1.3.6,1.2,1.1,2.3,1.7,3.5l.5-.2c-.2-1.1-.5-2.1-1.1-3.6h0Z"/>
  </g>
</svg>